<?xml version="1.0" standalone="no"?>
<!DOCTYPE svg PUBLIC "-//W3C//DTD SVG 1.1//EN" "http://www.w3.org/Graphics/SVG/1.1/DTD/svg11.dtd" >
<svg xmlns="http://www.w3.org/2000/svg">
<metadata></metadata>
<defs>
<font id="PTSansRegular" horiz-adv-x="1116" >
<font-face units-per-em="2048" ascent="1536" descent="-512" />
<missing-glyph horiz-adv-x="546" />
<glyph unicode="&#xfb01;" horiz-adv-x="1105" d="M45 881v143h160v57q0 193 95 280t280 87q234 0 362 -80l-55 -131q-107 68 -293 68q-141 0 -188 -71q-37 -57 -37 -210h577v-1024h-164v881h-413v-881h-164v881h-160z" />
<glyph unicode="&#xfb02;" horiz-adv-x="1193" d="M45 881v143h160v57q0 193 83 285t277 92q125 0 232.5 -14t136.5 -23v-1169q0 -133 94 -133q68 0 129 22l17 -129q-40 -20 -105 -28.5t-86 -8.5q-92 0 -152.5 52.5t-60.5 177.5v1093q-88 17 -179.5 17t-131 -19.5t-59.5 -57.5q-31 -57 -31 -214h211v-143h-211v-881h-164 v881h-160z" />
<glyph horiz-adv-x="0" />
<glyph horiz-adv-x="2048" />
<glyph unicode="&#xd;" horiz-adv-x="546" />
<glyph unicode=" "  horiz-adv-x="546" />
<glyph unicode="&#x09;" horiz-adv-x="546" />
<glyph unicode="&#xa0;" horiz-adv-x="546" />
<glyph unicode="!" horiz-adv-x="624" d="M225 95q0 54 32 86t86 32t87 -31.5t33 -86t-33 -87.5t-87 -33t-86 33t-32 87zM260 723v711h170v-711l-35 -361h-100z" />
<glyph unicode="&#x22;" horiz-adv-x="686" d="M184 1038v396h160l-63 -396h-97zM424 1038v396h160l-63 -396h-97z" />
<glyph unicode="#" d="M57 461l29 131h162l63 268h-151l28 131h154l78 324h141l-78 -324h215l78 324h142l-78 -324h157l-32 -131h-156l-64 -268h150l-33 -131h-147l-80 -342h-141l79 342h-215l-79 -342h-142l80 342h-160zM389 592h215l64 268h-215z" />
<glyph unicode="$" d="M156 41l55 149q104 -63 285 -67v553q-61 31 -122 65.5t-108 82.5q-104 106 -104 261.5t83 250t251 116.5v186h139v-180q173 -7 291 -59l-49 -144q-101 49 -242 56v-506q169 -88 230 -148q122 -118 122 -278t-89 -263.5t-263 -131.5v-189h-139v180q-227 4 -340 66z M332 1097q0 -81 56 -136.5t140 -100.5v449q-109 -12 -152.5 -71.5t-43.5 -140.5zM602 127q94 14 154.5 73t60.5 165q0 130 -131 213q-39 24 -84 47v-498z" />
<glyph unicode="%" horiz-adv-x="1583" d="M143 1108q0 94 24.5 159.5t66.5 108.5q80 82 227 82q224 0 292 -186q25 -66 25 -162q0 -269 -191 -330q-59 -18 -126 -18q-225 0 -294 186q-24 66 -24 160zM252 55l1053 1405l100 -78l-1051 -1407zM295 1110q0 -229 166 -229q125 0 154 117q11 44 11 112q0 184 -96 218 q-31 11 -69 11q-78 0 -122 -48t-44 -181zM874 348q0 94 24.5 159.5t66.5 108.5q80 82 227 82q224 0 292 -186q25 -66 25 -162q0 -269 -191 -330q-59 -18 -126 -18q-225 0 -294 186q-24 66 -24 160zM1026 350q0 -229 166 -229q125 0 154 117q11 44 11 112q0 184 -96 218 q-31 11 -69 11q-78 0 -122 -48t-44 -181z" />
<glyph unicode="&#x26;" horiz-adv-x="1667" d="M242 383q0 225 218 411q62 54 130 95q-49 74 -85 147.5t-36 141t16.5 114.5t52.5 84q78 82 228 82q156 0 234 -78q65 -65 65 -158q0 -198 -277 -360q62 -110 141 -209q157 -195 232 -270q83 91 160 315l127 -59q-36 -106 -142 -277q-28 -47 -53 -77q128 -122 256 -195 l-102 -115q-109 53 -248 191q-191 -191 -448 -191q-201 0 -331 106q-138 113 -138 302zM406 387q0 -125 99 -197q97 -71 230 -71q144 0 269 93q36 27 59 56q-152 152 -323 402q-44 65 -74 114q-124 -93 -173 -158q-87 -116 -87 -239zM629 1195q0 -106 92 -241 q192 123 192 228q0 66 -31.5 106.5t-107.5 40.5t-110.5 -37t-34.5 -97z" />
<glyph unicode="'" horiz-adv-x="446" d="M184 1038v396h160l-63 -396h-97z" />
<glyph unicode="(" horiz-adv-x="573" d="M123 497q0 114 18.5 238.5t59.5 250.5q90 277 270 472l98 -72q-282 -358 -282 -888q0 -361 153 -672q54 -111 129 -201l-104 -76q-259 270 -323 708q-19 126 -19 240z" />
<glyph unicode=")" horiz-adv-x="573" d="M4 -379q283 359 283 889q0 350 -154 672q-53 110 -129 200l105 76q259 -270 323 -707q19 -126 19 -240t-18.5 -239t-59.5 -250q-91 -278 -271 -473z" />
<glyph unicode="*" horiz-adv-x="718" d="M82 1133v114h102l127 -24l-92 90l-53 94l100 57l51 -86l37 -114l43 116l49 82l99 -53l-53 -88l-95 -98l140 24h98v-114h-94l-131 24l94 -98l47 -80l-96 -57l-54 86l-47 125l-39 -119l-51 -86l-102 57l55 86l86 86l-119 -24h-102z" />
<glyph unicode="+" horiz-adv-x="1034" d="M82 618v148h360v369h148v-369h360v-148h-360v-368h-148v368h-360z" />
<glyph unicode="," horiz-adv-x="399" d="M86 -225q74 29 109.5 89t35.5 122q-18 -6 -46.5 -6t-56.5 27.5t-28 78.5t33 82t90 31t97 -45t40 -125t-20.5 -135.5t-53.5 -95.5q-61 -76 -149 -103z" />
<glyph unicode="-" horiz-adv-x="737" d="M121 514v152h495v-152h-495z" />
<glyph unicode="." horiz-adv-x="438" d="M100 95q0 54 32 86t86 32t87 -31.5t33 -86t-33 -87.5t-87 -33t-86 33t-32 87z" />
<glyph unicode="/" horiz-adv-x="724" d="M-76 -229l748 1687l129 -57l-748 -1688z" />
<glyph unicode="0" d="M88 717q0 369 120 555t358.5 186t350 -183t111.5 -555t-120 -558.5t-351 -186.5q-469 0 -469 742zM258 717q0 -424 165 -554q56 -44 134 -44q156 0 228.5 144.5t72.5 453.5q0 436 -160 555q-57 43 -141 43q-154 0 -226.5 -145.5t-72.5 -452.5z" />
<glyph unicode="1" d="M143 1110l451 348h74v-1306h280v-152h-727v152h287v991l20 121l-82 -97l-225 -161z" />
<glyph unicode="2" d="M127 0v59q463 483 583 840q33 96 33 189t-57 160t-186 67t-267 -105l-67 117q155 131 381 131q172 0 270 -98q96 -96 96 -252q0 -280 -288 -674q-80 -110 -160 -209l-100 -88v-8l131 23h446v-152h-815z" />
<glyph unicode="3" d="M180 27l43 145q108 -53 256 -53q145 0 232 81q92 86 92 222.5t-85 206t-235 69.5h-151v60l295 454l94 91l-133 -21h-406v152h731v-60l-325 -489l-72 -60v-4l70 15q168 -4 272 -110q109 -111 109 -290q0 -213 -145 -340q-136 -121 -347 -121q-168 0 -295 52z" />
<glyph unicode="4" d="M41 440v68l680 948h110v-872h242v-144h-242v-440h-159v440h-631zM227 567l144 17h301v446l20 168h-6l-72 -139l-288 -391z" />
<glyph unicode="5" d="M158 16l43 140q97 -37 236.5 -37t232 82t92.5 234.5t-91 226t-251 73.5l-172 -10v709h639v-152h-486v-408l88 5q203 -2 320 -113t117 -317q0 -223 -144 -353q-136 -121 -350 -121q-161 0 -274 41z" />
<glyph unicode="6" d="M123 461q0 223 52 394t144.5 298t218.5 206t273 99l35 -131q-221 -39 -374 -219q-143 -169 -177 -403q33 55 110.5 101t190.5 46q193 0 302.5 -110.5t109.5 -307t-115.5 -328t-321 -131.5t-327 131.5t-121.5 354.5zM283 461q0 -225 163 -313q54 -29 120 -29t114.5 22.5 t83.5 61.5q74 82 74 213q0 293 -277 293q-100 0 -173 -49.5t-101 -110.5q-4 -29 -4 -47v-41z" />
<glyph unicode="7" d="M125 1282v152h856v-56l-590 -1378h-166l514 1200l90 100l-120 -18h-584z" />
<glyph unicode="8" d="M139 326.5q0 144.5 67.5 240t211.5 172.5q-117 71 -162 128q-84 106 -84 233q0 162 108 258q111 100 289 100q171 0 274 -92q101 -90 101 -220t-53 -219t-176 -175q191 -112 241 -252q21 -56 21 -135.5t-28.5 -152.5t-84.5 -125q-119 -112 -317 -112q-188 0 -302 107 q-106 100 -106 244.5zM299 376.5q0 -63.5 16.5 -108.5t48.5 -78q72 -71 193 -71q107 0 181 61q79 64 79 182q0 153 -180 260q-51 31 -107 60q-125 -70 -178 -156t-53 -149.5zM332 1096q0 -49 22.5 -93.5t60.5 -78.5q67 -61 189 -121q92 72 136 141.5t44 163.5t-64.5 150.5 t-137 56.5t-115.5 -18.5t-74 -47t-46 -66.5t-15 -87z" />
<glyph unicode="9" d="M106 998q0 99 29 183.5t84 146.5q117 130 329 130t328.5 -135t116.5 -373.5t-52 -411.5t-144 -292q-178 -231 -492 -271l-37 131q235 36 378 199q138 157 171 393q-55 -66 -121.5 -91t-163 -25t-171 27.5t-132 80.5t-90.5 131t-33 177zM276 1014q0 -143 77 -216 t189.5 -73t184.5 33t102 86q5 34 5 99t-17.5 133.5t-52.5 122.5q-75 116 -211.5 116t-206.5 -79t-70 -222z" />
<glyph unicode=":" horiz-adv-x="448" d="M186 95q0 54 32 86t86 32t87 -31.5t33 -86t-33 -87.5t-87 -33t-86 33t-32 87zM186 921q0 54 32 85.5t86 31.5t87 -31.5t33 -85.5t-33 -87t-87 -33t-86 33t-32 87z" />
<glyph unicode=";" horiz-adv-x="524" d="M168 -225q74 29 109.5 89t35.5 122q-18 -6 -46.5 -6t-56.5 27.5t-28 78.5t33 82t90 31t97 -45t40 -125t-20.5 -135.5t-53.5 -95.5q-61 -76 -149 -103zM197 921q0 54 31.5 85.5t85.5 31.5t87 -31.5t33 -85.5t-32.5 -87t-87 -33t-86 33t-31.5 87z" />
<glyph unicode="&#x3c;" horiz-adv-x="1034" d="M86 625v59l774 473l78 -127l-485 -297l-187 -78l185 -65l497 -295l-78 -123z" />
<glyph unicode="=" horiz-adv-x="1034" d="M82 449v147h868v-147h-868zM82 788v148h868v-148h-868z" />
<glyph unicode="&#x3e;" horiz-adv-x="1034" d="M86 1032l78 125l784 -452v-60l-774 -473l-78 125l486 297l186 78l-184 65z" />
<glyph unicode="?" horiz-adv-x="892" d="M76 1356q78 47 164 74.5t194.5 27.5t177 -25.5t114.5 -70.5q91 -89 91 -238q0 -155 -97 -286q-42 -56 -90 -105t-90 -103q-98 -128 -98 -268h-135q-2 10 -2 22v24q0 189 171 372q105 112 138 182t33 152t-54 141.5t-190.5 59.5t-271.5 -86zM266 95q0 54 32 86t86 32 t87 -31.5t33 -86t-33 -87.5t-87 -33t-86 33t-32 87z" />
<glyph unicode="@" horiz-adv-x="2179" d="M178 485q0 221 77 401.5t208 307.5t305 195.5t363.5 68.5t347 -54t273.5 -156q249 -217 249 -580q0 -131 -45 -251t-122 -210t-179.5 -144.5t-202.5 -54.5t-151.5 37t-51.5 137q0 38 8 86h-8q-106 -172 -257 -236q-54 -24 -108 -24t-99.5 21.5t-78.5 62.5q-71 90 -71 223 t43 260t115.5 225.5t170 159t189.5 60.5t137 -22.5t88 -55.5l70 64h70l-105 -588q-20 -106 -20 -163.5t17 -81t73.5 -23.5t125 36.5t121.5 103.5q121 153 121 378q0 308 -203 482q-196 169 -522 169q-166 0 -312 -61.5t-253.5 -170t-170 -260t-62.5 -331.5t56 -323.5 t160 -242.5q213 -200 574 -200q159 0 273 57l41 -131q-156 -66 -342 -66t-353.5 57.5t-291 170t-195.5 279.5t-72 388zM795 344q0 -80 32.5 -136t118.5 -56q117 0 254 202q39 58 70 117l61 334q-35 41 -69.5 56.5t-101 15.5t-136.5 -48.5t-120 -124.5q-109 -167 -109 -360z " />
<glyph unicode="A" horiz-adv-x="1198" d="M16 0l543 1456h78l545 -1456h-178l-148 397h-528l-144 -397h-168zM383 545h422l-160 436l-51 217h-2l-51 -221z" />
<glyph unicode="B" horiz-adv-x="1196" d="M174 10v1411q184 29 329.5 29t228.5 -13.5t150 -50.5q156 -87 156 -280q0 -113 -65 -204q-72 -100 -205 -134v-8q212 -35 286 -207q27 -61 27 -158.5t-46 -178.5t-121 -132q-146 -100 -367 -100h-82q-190 0 -291 26zM344 145q49 -14 167 -14t179.5 15.5t108.5 49.5 q102 72 102 199q0 152 -121 215q-93 49 -258 49h-178v-514zM344 803h107q101 0 165 8q170 55 222 169q20 42 20 100.5t-25.5 102.5t-68.5 70.5t-98.5 38t-157 11.5t-164.5 -13v-487z" />
<glyph unicode="C" horiz-adv-x="1169" d="M115 717q0 373 197 570q171 171 425 171q217 0 334 -49l-41 -149q-98 47 -280 47q-190 0 -312 -131q-143 -154 -143 -459q0 -285 139 -443q129 -147 340 -147q170 0 277 66l41 -134q-109 -84 -357 -84q-272 0 -438 179q-182 196 -182 563z" />
<glyph unicode="D" horiz-adv-x="1339" d="M174 -2v1436q104 16 383 16q332 0 506 -202q162 -188 162 -521q0 -318 -158 -517q-180 -228 -530 -228q-101 0 -174.5 4t-120.5 6t-68 6zM344 141q40 -8 190 -8t247.5 49t155.5 132q107 153 107 413q0 381 -248 519q-94 52 -235 52h-59q-88 0 -158 -10v-1147z" />
<glyph unicode="E" horiz-adv-x="1097" d="M174 0v1434h780v-152h-610v-469h559v-151h-559v-510h621v-152h-791z" />
<glyph unicode="F" horiz-adv-x="1058" d="M174 0v1434h780v-152h-610v-489h569v-152h-569v-641h-170z" />
<glyph unicode="G" horiz-adv-x="1253" d="M115 717q0 371 207 570q177 171 436 171q219 0 338 -49l-43 -149q-98 47 -281 47q-315 0 -434 -311q-43 -113 -43 -272t35 -269.5t97 -182.5q124 -145 343 -145q131 0 223 51v400l-336 40v97h482v-631q-101 -77 -286 -102q-56 -7 -110 -7q-285 0 -450 179 q-178 194 -178 563z" />
<glyph unicode="H" horiz-adv-x="1376" d="M174 0v1434h170v-625h688v625h170v-1434h-170v657h-688v-657h-170z" />
<glyph unicode="I" horiz-adv-x="595" d="M213 0v1434h170v-1434h-170z" />
<glyph unicode="J" horiz-adv-x="595" d="M-70 12l33 146q57 -27 134 -27t104.5 60.5t27.5 164.5v1078h170v-1119q0 -335 -293 -335q-116 0 -176 32z" />
<glyph unicode="K" horiz-adv-x="1249" d="M174 0v1434h170v-668l92 29l482 639h196l-479 -617l-86 -67l104 -82l525 -668h-215l-523 664h-96v-664h-170z" />
<glyph unicode="L" horiz-adv-x="1058" d="M174 0v1434h170v-1282h678v-152h-848z" />
<glyph unicode="M" horiz-adv-x="1619" d="M174 0v1434h127l449 -734l67 -159h4l64 164l428 729h133v-1434h-170v963l20 215h-10l-78 -197l-372 -647h-52l-395 649l-74 195h-10l29 -213v-965h-160z" />
<glyph unicode="N" horiz-adv-x="1378" d="M174 0v1456h90l686 -956l107 -197h10l-23 197v934h160v-1457h-90l-682 961l-110 207h-9l21 -207v-938h-160z" />
<glyph unicode="O" horiz-adv-x="1400" d="M115 721.5q0 353.5 151.5 545t431.5 191.5q294 0 446 -204q142 -189 142 -542t-152.5 -545t-435.5 -192q-287 0 -441 204q-142 189 -142 542.5zM295 740.5q0 -277.5 101.5 -445.5t296.5 -168t304 144.5t109 445.5q0 399 -224 541q-77 49 -184 49q-188 0 -295.5 -144.5 t-107.5 -422z" />
<glyph unicode="P" horiz-adv-x="1144" d="M174 0v1419q134 31 287 31t250.5 -18.5t177.5 -67.5q180 -110 180 -354q0 -245 -172 -368q-78 -56 -178.5 -80.5t-158.5 -24.5h-117q-59 0 -99 8v-545h-170zM344 696q20 -8 85 -8h75q385 0 385 322q0 154 -116 230q-96 63 -239 63t-190 -13v-594z" />
<glyph unicode="Q" horiz-adv-x="1400" d="M115 721.5q0 353.5 151.5 545t431.5 191.5q294 0 446 -204q142 -189 142 -542t-152.5 -545t-435.5 -192q-287 0 -441 204q-142 189 -142 542.5zM295 740.5q0 -277.5 101.5 -445.5t296.5 -168t304 144.5t109 445.5q0 399 -224 541q-77 49 -184 49q-188 0 -295.5 -144.5 t-107.5 -422zM434 -100q68 14 132.5 14t149.5 -21.5t173 -47t180 -47t188.5 -21.5t184.5 20v-147q-88 -25 -190.5 -25t-200 21.5t-188.5 47t-175 47t-146.5 21.5t-107.5 -12v150z" />
<glyph unicode="R" horiz-adv-x="1218" d="M174 0v1419q173 31 316 31t228 -20.5t150 -67.5q142 -104 142 -307q0 -168 -92.5 -272.5t-233.5 -139.5l98 -76l357 -567h-199l-395 618l-201 31v-649h-170zM344 762h160q141 0 233 69.5t92 217.5q0 111 -75.5 182.5t-210.5 71.5h-90q-64 0 -109 -13v-528z" />
<glyph unicode="S" horiz-adv-x="1087" d="M94 51l58 154q47 -27 139 -52.5t183.5 -25.5t150.5 13.5t102 43t68.5 75t25.5 119t-51 127.5t-128 96t-167 79t-167 89q-179 121 -179 325q0 168 116.5 266t332.5 98q252 0 387 -65l-52 -150q-47 23 -138 43.5t-216 20.5t-192.5 -60.5t-67.5 -141.5t51 -134t128 -95 t167 -83t167 -95.5t128 -130t51 -178t-32.5 -176.5t-96.5 -127q-132 -111 -358 -111q-258 0 -410 76z" />
<glyph unicode="T" horiz-adv-x="1136" d="M37 1282v152h1063v-152h-447v-1282h-170v1282h-446z" />
<glyph unicode="U" horiz-adv-x="1335" d="M174 444v990h170v-910q0 -309 194 -370q64 -21 150 -21q166 0 237.5 91t71.5 300v910h164v-957q0 -376 -280 -467q-88 -28 -195 -28q-512 0 -512 462z" />
<glyph unicode="V" horiz-adv-x="1163" d="M-4 1434h186l365 -985l49 -218h2l53 222l346 981h170l-542 -1457h-76z" />
<glyph unicode="W" horiz-adv-x="1695" d="M16 1434h181l258 -961l32 -237h2l35 241l295 957h82l297 -961l35 -237h2l37 241l241 957h166l-399 -1457h-94l-291 961l-37 217h-10l-37 -219l-291 -959h-94z" />
<glyph unicode="X" horiz-adv-x="1265" d="M53 0l477 729l-436 705h205l291 -486l51 -117l49 117l307 486h189l-451 -691l471 -743h-198l-324 514l-55 123l-54 -123l-331 -514h-191z" />
<glyph unicode="Y" horiz-adv-x="1142" d="M16 1434h199l336 -627l35 -125h2l37 129l321 623h182l-469 -863v-571h-170v569z" />
<glyph unicode="Z" d="M78 0v154l723 1046l86 82h-809v152h962v-154l-727 -1053l-86 -75h813v-152h-962z" />
<glyph unicode="[" horiz-adv-x="622" d="M174 -471v1905h371v-144h-211v-1618h211v-143h-371z" />
<glyph unicode="\" horiz-adv-x="778" d="M-76 1401l137 57l756 -1685l-135 -60z" />
<glyph unicode="]" horiz-adv-x="622" d="M78 -328h213v1618h-213v144h373v-1905h-373v143z" />
<glyph unicode="^" horiz-adv-x="1024" d="M98 891l381 565h60l346 -565h-168l-164 276l-47 142l-64 -144l-188 -274h-156z" />
<glyph unicode="_" horiz-adv-x="835" d="M0 -276h836v-144h-836v144z" />
<glyph unicode="`" horiz-adv-x="573" d="M123 1432v43h194l134 -306h-93z" />
<glyph unicode="a" horiz-adv-x="1015" d="M80 274q0 248 300 298q93 16 164 16h98q28 0 56 -4q6 61 7 110q0 113 -45.5 158t-163.5 45q-114 0 -237 -42q-38 -13 -66 -30l-52 123q153 92 398 92q193 0 269 -103q56 -76 56 -212l-12 -461q0 -171 29 -268h-121l-43 143h-10q-64 -103 -203 -141q-51 -14 -117 -14 q-133 0 -219 78q-88 81 -88 212zM250 291q0 -72 51 -118t119.5 -46t114 15.5t77.5 39.5q63 45 86 107v170q-58 4 -116 4q-332 0 -332 -172z" />
<glyph unicode="b" horiz-adv-x="1105" d="M158 59v1375h164v-510h8q100 125 288 125q388 0 388 -521q0 -268 -131.5 -407t-368.5 -139q-115 0 -208 24.5t-140 52.5zM322 170q76 -45 211.5 -45t219 98.5t83.5 306.5q0 263 -138 346q-48 29 -118 29q-200 0 -258 -219v-516z" />
<glyph unicode="c" horiz-adv-x="923" d="M100 512q0 260 115 398.5t330 138.5q175 0 291 -60l-48 -141q-99 57 -227 57q-291 0 -291 -393q0 -270 161 -360q58 -33 144 -33q134 0 228 74l53 -125q-126 -93 -321 -93q-435 0 -435 537z" />
<glyph unicode="d" horiz-adv-x="1101" d="M100 501.5q0 268.5 124 404.5t341 136q119 0 215 -34v426h164v-1082q0 -104 2 -189t19 -167h-111l-41 145h-8q-41 -72 -119 -119t-182 -47q-205 0 -304.5 129t-99.5 397.5zM270 508q0 -389 260 -389q207 0 250 219v508q-68 53 -209 53t-221 -93t-80 -298z" />
<glyph unicode="e" horiz-adv-x="1040" d="M100 518.5q0 255.5 117 393t334 137.5q169 0 264 -74q125 -98 125 -330q0 -68 -12 -149h-658q0 -279 178 -352q62 -25 142 -25t149.5 24.5t104.5 57.5l61 -119q-61 -49 -154.5 -78t-204 -29t-196.5 38t-141 109q-109 141 -109 396.5zM272 625h508q0 156 -59 218t-174 62 t-187.5 -63.5t-87.5 -216.5z" />
<glyph unicode="f" horiz-adv-x="653" d="M45 881v143h160v57q0 194 65 278q69 87 228 87q128 0 221 -39l-37 -137q-78 33 -149.5 33t-101.5 -16.5t-43 -48.5q-19 -47 -19 -185v-29h272v-143h-272v-881h-164v881h-160z" />
<glyph unicode="g" horiz-adv-x="1099" d="M100 503q0 267 125 403t369 136q189 0 348 -61v-1028q0 -199 -105.5 -293t-312.5 -94q-204 0 -325 55l43 139q47 -18 104 -34.5t146.5 -16.5t143.5 15.5t87 51.5q57 62 57 226v98h-8q-85 -123 -281 -123t-293.5 129.5t-97.5 396.5zM270 510q0 -389 260 -389q104 0 164 52 t84 163v524q-82 39 -215 39t-213 -94t-80 -295z" />
<glyph unicode="h" horiz-adv-x="1120" d="M158 0v1434h164v-525h8q118 140 313 140q180 0 255 -89q81 -95 81 -342v-618h-164v584q0 171 -43 240q-49 81 -160.5 81t-189.5 -62.5t-100 -160.5v-682h-164z" />
<glyph unicode="i" horiz-adv-x="548" d="M158 1335q0 47 31.5 81t80.5 34t84 -34t35 -81t-35 -77.5t-84 -30.5t-80.5 30.5t-31.5 77.5zM193 0v1024h163v-1024h-163z" />
<glyph unicode="j" horiz-adv-x="546" d="M18 -291q108 0 144 72q28 57 28 225v1018h164v-1079q0 -190 -65.5 -284.5t-208.5 -94.5q-28 0 -62 4v139zM156 1335q0 47 31.5 81t80.5 34t84 -34t35 -81t-35 -77.5t-84 -30.5t-80.5 30.5t-31.5 77.5z" />
<glyph unicode="k" horiz-adv-x="980" d="M158 0v1434h164v-873l84 29l317 434h190l-313 -412l-84 -67l102 -82l343 -463h-203l-342 461h-94v-461h-164z" />
<glyph unicode="l" horiz-adv-x="598" d="M176 205v1229h164v-1182q0 -133 94 -133q66 0 127 22l19 -129q-33 -16 -91.5 -26.5t-101.5 -10.5q-92 0 -151.5 52.5t-59.5 177.5z" />
<glyph unicode="m" horiz-adv-x="1662" d="M158 0v1024h114l31 -125h8q55 66 128 108t180.5 42t170 -38t97.5 -132q47 80 130 125t178 45t154.5 -19.5t98.5 -69.5q74 -93 74 -346v-614h-164v616q0 158 -36 218q-43 71 -159 71q-191 0 -241 -221v-684h-164v580q0 172 -28 228t-65.5 76.5t-115.5 20.5t-140.5 -57 t-86.5 -143v-705h-164z" />
<glyph unicode="n" horiz-adv-x="1120" d="M158 0v1024h114l31 -125h8q49 66 132 108t182.5 42t163 -19.5t105.5 -69.5q85 -100 85 -342v-618h-164v584q0 160 -46 240.5t-162 80.5t-186.5 -58.5t-98.5 -146.5v-700h-164z" />
<glyph unicode="o" horiz-adv-x="1097" d="M100 512q0 260 116 398.5t333 138.5q226 0 340 -147q108 -139 108 -394.5t-115.5 -394t-332.5 -138.5q-336 0 -422 317q-27 99 -27 220zM270 512q0 -269 150 -360q53 -33 129 -33h3q275 0 275 390q0 276 -149 365q-53 31 -129 31h-3q-276 0 -276 -393z" />
<glyph unicode="p" horiz-adv-x="1107" d="M158 -410v1434h112l31 -123h8q97 148 297.5 148t301 -121t100.5 -396q0 -255 -130 -407q-128 -150 -348 -150q-113 0 -208 41v-426h-164zM322 178q75 -59 212 -59t220.5 105.5t83.5 310.5q0 370 -267 370q-202 0 -249 -219v-508z" />
<glyph unicode="q" horiz-adv-x="1099" d="M100 508q0 264 127 399t371 135q109 0 204 -20.5t140 -42.5v-1389h-164v512h-8q-85 -127 -279 -127q-391 0 -391 533zM270 510q0 -391 260 -391q104 0 164 53t84 164v524q-76 39 -213 39t-216 -95t-79 -294z" />
<glyph unicode="r" horiz-adv-x="696" d="M158 0v1024h114l31 -125h8q39 70 93.5 107.5t126 37.5t145.5 -20l-35 -158q-61 20 -133 20q-1 0 -1 1q-71 0 -122 -48t-63 -122v-717h-164z" />
<glyph unicode="s" horiz-adv-x="862" d="M80 51l49 139q47 -27 123 -49t159 -22q197 0 197 160q0 61 -36.5 96t-91 58.5t-119 45t-119.5 55.5q-127 78 -127 227q0 288 317 288q179 0 316 -66l-39 -135q-116 57 -231 57t-157 -30.5t-42 -95t36.5 -94.5t91 -53.5t119 -46t118.5 -59.5q128 -88 128 -241 q0 -214 -200 -286q-66 -24 -170 -24q-187 0 -322 76z" />
<glyph unicode="t" horiz-adv-x="694" d="M23 881v143h159v203l164 47v-250h279v-143h-279v-568q0 -106 26.5 -150t96 -44t166.5 41l37 -125q-122 -60 -254.5 -60t-184 71t-51.5 237v598h-159z" />
<glyph unicode="u" horiz-adv-x="1103" d="M141 406v618h164v-584q0 -166 41 -240q46 -81 160 -81q148 0 234 136q26 40 42 85v684h164v-733q0 -187 23 -291h-113l-41 162h-10q-110 -187 -330 -187q-174 0 -249 89q-85 100 -85 342z" />
<glyph unicode="v" horiz-adv-x="987" d="M18 1024h189l246 -600l57 -195h2l51 199l230 596h176l-437 -1047h-69z" />
<glyph unicode="w" horiz-adv-x="1505" d="M16 1024h179l202 -596l35 -199h2l49 203l219 592h119l236 -598l51 -197h4l39 201l182 594h156l-344 -1047h-80l-268 676l-39 168h-6l-41 -170l-258 -674h-80z" />
<glyph unicode="x" horiz-adv-x="1054" d="M57 0l369 524l-344 500h201l194 -283l58 -116l59 116l199 283h184l-346 -492l366 -532h-194l-217 311l-62 123l-63 -123l-221 -311h-183z" />
<glyph unicode="y" horiz-adv-x="954" d="M25 1024h188l246 -664l57 -196h10l45 198l199 662h166l-303 -920q-35 -100 -69 -194t-74 -168q-89 -162 -211 -162q-74 0 -121 21l28 141q27 -10 52 -10q57 0 110 60.5t88 207.5z" />
<glyph unicode="z" horiz-adv-x="915" d="M86 0v143l473 652l86 86h-559v143h729v-143l-477 -658l-84 -80h561v-143h-729z" />
<glyph unicode="{" horiz-adv-x="708" d="M117 410v143q164 0 164 172v496q0 96 48 155.5t146 59.5h174v-144h-102q-55 0 -81 -27.5t-26 -93.5v-485q0 -90 -43 -137t-100 -57v-13q55 -8 99 -62.5t44 -140.5v-483q0 -63 24.5 -92t84.5 -29h100v-143h-174q-92 0 -143 54.5t-51 158.5v487q0 104 -43 142.5t-121 38.5z " />
<glyph unicode="|" horiz-adv-x="487" d="M174 -266v1700h139v-1700h-139z" />
<glyph unicode="}" horiz-adv-x="708" d="M113 -328h102q55 0 81 28t26 93v486q0 90 42 137t99 57v12q-55 8 -98 62.5t-43 140.5v483q0 63 -25 92t-82 29h-102v144h176q90 0 141 -54.5t51 -158.5v-488q0 -104 43 -142t121 -38v-143q-164 0 -164 -172v-496q0 -96 -48 -155.5t-146 -59.5h-174v143z" />
<glyph unicode="~" horiz-adv-x="1034" d="M63 739q157 121 291 121q83 0 201 -56q45 -22 88 -39t90 -17q84 0 168 73l70 -125q-141 -96 -254 -96q-80 0 -190 56q-42 22 -84 39.5t-91 17.5q-100 0 -219 -97z" />
<glyph unicode="&#xa1;" horiz-adv-x="622" d="M152 929q0 54 31.5 86t85.5 32t87 -32t33 -86t-32.5 -87t-87 -33t-86 33t-31.5 87zM190 301l35 361h101l34 -361v-711h-170v711z" />
<glyph unicode="&#xa2;" d="M178 512q0 236 97.5 372t277.5 158v187h145v-182q128 -7 228 -58l-47 -139q-93 45 -195 53v-784q121 7 207 74l53 -125q-97 -69 -246 -86v-187h-145v185q-375 37 -375 532zM348 512q0 -232 119 -334q43 -37 106 -51v772q-225 -43 -225 -387z" />
<glyph unicode="&#xa3;" d="M86 0v147q120 0 188 85q58 75 58 184.5t-47 224.5h-199v143h135q-57 121 -57 267q0 201 114.5 304t313.5 103q230 0 369 -65l-54 -146q-123 60 -317 60q-123 0 -189.5 -66.5t-66.5 -187.5t69 -269h330v-143h-268q37 -109 37 -211q0 -61 -18.5 -125.5t-55.5 -105.5 l-80 -68v-8l127 29h524v-152h-913z" />
<glyph unicode="&#xa4;" d="M43 293l158 160l69 45q-63 86 -63 201t63 219l-69 43l-158 159l100 101l160 -158l43 -72q86 68 209 68t213 -68l45 72l160 158l100 -101l-158 -159l-71 -46q66 -88 65.5 -209.5t-65.5 -209.5l71 -43l158 -160l-100 -98l-160 157l-43 68q-88 -63 -214 -63.5t-210 63.5 l-43 -68l-160 -157zM348 707q0 -92 58.5 -153.5t150.5 -61.5t151.5 61t59.5 154q0 92 -59.5 154.5t-151.5 62.5t-150.5 -62.5t-58.5 -154.5z" />
<glyph unicode="&#xa5;" d="M4 1434h199l336 -627l34 -125h2l37 129l322 623h182l-416 -762h193v-123h-248v-129h248v-123h-248v-297h-170v297h-248v123h248v129h-248v123h193z" />
<glyph unicode="&#xa6;" horiz-adv-x="487" d="M174 -266v688h139v-688h-139zM174 745v689h139v-689h-139z" />
<glyph unicode="&#xa7;" horiz-adv-x="1017" d="M117 723q0 128 116 231l84 29q-53 33 -88.5 83t-35.5 149.5t84.5 171t216.5 71.5q204 0 340 -63l-39 -138q-124 58 -237 58q-202 0 -202 -121q0 -53 40 -83t101.5 -52.5t131 -45t131.5 -57.5q141 -82 141 -245q0 -130 -115 -230l-92 -28q131 -79 131 -220 q0 -122 -93 -192q-88 -66 -216.5 -66t-202 19.5t-131.5 48.5l41 133q116 -57 230 -57t161.5 27.5t47.5 87t-40 90t-101.5 53t-131.5 45t-131 58.5q-141 83 -141 243zM281 738.5q0 -62.5 26.5 -95.5t68.5 -56.5t96 -40t110 -36.5q59 24 94 64t48 70t13 72t-26.5 74.5 t-70.5 56t-99.5 41t-110.5 38.5q-59 -27 -104 -76t-45 -111.5z" />
<glyph unicode="&#xa8;" horiz-adv-x="841" d="M123 1339q0 45 27.5 74t72.5 29t73 -29t28 -74t-28 -73.5t-73 -28.5t-72.5 28.5t-27.5 73.5zM516 1339q0 45 27.5 74t73.5 29t74 -29t28 -74t-27.5 -73.5t-74 -28.5t-74 28.5t-27.5 73.5z" />
<glyph unicode="&#xa9;" horiz-adv-x="1650" d="M104 594q0 330 214 530q202 191 507 191q306 0 509 -191q212 -199 212 -530t-212 -530q-203 -191 -509 -191q-330 0 -524 191q-197 193 -197 530zM248 594q0 -276 168 -434q161 -152 409 -152q249 0 410 152q168 158 168 434q0 275 -168 434q-160 152 -410 152 q-249 0 -409 -152q-168 -159 -168 -434zM481 597q0 183 93.5 284.5t246.5 101.5q97 0 173 -33q24 -10 55 -22l-54 -125q-76 39 -158.5 39t-137 -53.5t-54.5 -183.5q0 -257 211 -261q96 0 164 37l43 -121q-96 -55 -252 -55t-243 104.5t-87 287.5z" />
<glyph unicode="&#xaa;" horiz-adv-x="790" d="M98 951q0 77 31 120t83 69q101 52 275 52l56 -2q2 12 2 24v21q0 55 -24.5 77.5t-94.5 22.5q-161 0 -256 -51l-31 102q121 64 322 64q127 0 174 -53.5t47 -153.5l-6 -287q0 -116 16 -178h-112l-27 94h-8q-79 -102 -199 -102t-184 52t-64 129zM242 972q0 -38 29.5 -62.5 t82.5 -24.5q139 0 189 112v86q-23 2 -43 2h-43q-156 0 -198 -53q-17 -22 -17 -60z" />
<glyph unicode="&#xab;" horiz-adv-x="978" d="M80 530l328 471l110 -88l-201 -297l-98 -84l98 -73l213 -291l-110 -90zM455 530l323 467l109 -86l-199 -295l-98 -84l98 -73l211 -289l-106 -88z" />
<glyph unicode="&#xac;" horiz-adv-x="1034" d="M84 655v148h868v-393h-147v245h-721z" />
<glyph unicode="&#xad;" horiz-adv-x="737" d="M121 514v152h495v-152h-495z" />
<glyph unicode="&#xae;" horiz-adv-x="1433" d="M174 924q0 254 161 402q152 140 382 140q235 0 385 -140q158 -147 158 -402t-161 -402q-154 -141 -382 -141q-233 0 -385 141q-158 146 -158 402zM303 924q0 -204 122 -317q113 -105 292 -105q185 0 295 103q118 111 118 319q0 204 -122 316q-115 106 -291 106 q-185 0 -297 -106q-117 -111 -117 -316zM506 659v531q66 20 178.5 20t174 -35.5t61.5 -112.5t-42 -112t-104 -39l57 -28l152 -224h-125l-147 213l-99 31v-244h-106zM612 965h70q59 0 92 18t33 64q0 71 -119 71q-59 0 -76 -8v-145z" />
<glyph unicode="&#xaf;" horiz-adv-x="851" d="M123 1190v127h606v-127h-606z" />
<glyph unicode="&#xb0;" horiz-adv-x="870" d="M174 1166q0 66 22.5 119.5t61.5 91.5q83 81 205 81q126 0 205 -77q84 -82 84 -212q0 -131 -84 -211q-80 -77 -205 -77t-205 77q-84 80 -84 208zM303 1169q0 -78 48 -121.5t112 -43.5q63 0 111.5 44t48.5 121q0 78 -48.5 122t-111.5 44t-111.5 -44t-48.5 -122z" />
<glyph unicode="&#xb1;" horiz-adv-x="1034" d="M82 365v147h868v-147h-868zM82 864v148h360v368h148v-368h360v-148h-360v-248h-148v248h-360z" />
<glyph unicode="&#xb2;" horiz-adv-x="806" d="M98 778v68q259 215 366 401q46 80 46 145.5t-41 97.5t-120 32t-179 -64l-45 117q112 78 254.5 78t208 -63.5t65.5 -176.5q0 -167 -163 -354q-50 -56 -105 -113l-94 -65v-4l117 30h286v-129h-596z" />
<glyph unicode="&#xb3;" horiz-adv-x="808" d="M137 803l31 123q85 -39 180.5 -39t148 39t52.5 109q0 153 -199 153h-112v47l198 237l70 56l-100 -13h-267v123h525v-67l-211 -252l-52 -37v-4l48 6q113 -2 178 -67.5t65 -183.5t-91 -193.5t-243 -75.5q-114 0 -221 39z" />
<glyph unicode="&#xb4;" horiz-adv-x="548" d="M123 1169l121 306h182v-43l-207 -263h-96z" />
<glyph unicode="&#xb6;" horiz-adv-x="1011" d="M76 1036q0 161 92 274q100 124 258 124h92v-1700h-139v901q-129 0 -216 123t-87 278zM698 -266v1700h140v-1700h-140z" />
<glyph unicode="&#xb7;" horiz-adv-x="546" d="M155 607q0 54 32 86t86 32t87 -31.5t33 -86t-33 -87.5t-87 -33t-86 33t-32 87z" />
<glyph unicode="&#xb8;" horiz-adv-x="587" d="M123 -418l14 101q29 -5 62 -6t56.5 2.5t36.5 13.5q21 16 21 47q2 59 -176 76l99 184h116l-49 -88q86 -16 124 -53t38 -111t-67.5 -124t-182.5 -50q-44 0 -92 8z" />
<glyph unicode="&#xb9;" horiz-adv-x="806" d="M109 1444l315 209h84v-750h194v-125h-555v125h218v520l14 74l-55 -57l-160 -97z" />
<glyph unicode="&#xba;" horiz-adv-x="815" d="M90 1108q0 94 24.5 159.5t66.5 108.5q80 82 227 82q224 0 292 -186q25 -66 25 -162q0 -269 -191 -330q-59 -18 -126 -18q-225 0 -294 186q-24 66 -24 160zM242 1110q0 -229 166 -229q125 0 154 117q11 44 11 112q0 184 -96 218q-31 11 -69 11q-78 0 -122 -48t-44 -181z " />
<glyph unicode="&#xbb;" horiz-adv-x="978" d="M80 909l106 88l340 -448l-327 -467l-107 86l197 295l100 84l-100 74zM449 911l108 90l342 -452l-328 -471l-110 88l201 297l98 84l-98 74z" />
<glyph unicode="&#xbc;" horiz-adv-x="1714" d="M109 1239l315 209h86v-875h-143v646l14 73l-57 -57l-160 -96zM330 49l997 1411l106 -71l-997 -1414zM907 197v76l463 618h92v-573h170v-121h-170v-197h-137v197h-418zM1061 307l102 11h162v262l12 100h-4l-45 -94l-160 -215z" />
<glyph unicode="&#xbd;" horiz-adv-x="1740" d="M109 1239l315 209h86v-875h-143v646l14 73l-57 -57l-160 -96zM330 49l997 1411l106 -71l-997 -1414zM1063 0v68q259 215 366 401q46 80 46 145.5t-41 97.5t-120 32t-179 -64l-45 117q112 78 254.5 78t208 -63.5t65.5 -176.5q0 -167 -163 -354q-50 -56 -105 -113l-94 -65 v-4l117 30h286v-129h-596z" />
<glyph unicode="&#xbe;" horiz-adv-x="1794" d="M155 598l31 123q85 -39 180.5 -39t148 39t52.5 109q0 153 -199 153h-112v47l198 237l70 56l-100 -13h-267v123h525v-67l-211 -252l-52 -37v-4l48 6q113 -2 178 -67.5t65 -183.5t-91 -193.5t-243 -75.5q-114 0 -221 39zM410 49l997 1411l106 -71l-997 -1414zM987 197v76 l463 618h92v-573h170v-121h-170v-197h-137v197h-418zM1141 307l102 11h162v262l12 100h-4l-45 -94l-160 -215z" />
<glyph unicode="&#xbf;" horiz-adv-x="892" d="M76 -100q0 155 97 286q42 56 90 105t90 103q98 128 98 268h135q2 -10 2 -22v-24q0 -189 -171 -372q-105 -112 -138 -182t-33 -152t54 -141.5t190.5 -59.5t271.5 86l55 -127q-78 -47 -164 -74.5t-194.5 -27.5t-177 25.5t-114.5 70.5q-91 89 -91 238zM391 931q0 54 32 86 t86 32t87 -32t33 -86t-33 -87t-87 -33t-86 33t-32 87z" />
<glyph unicode="&#xc0;" horiz-adv-x="1198" d="M16 0l543 1456h78l545 -1456h-178l-148 397h-528l-144 -397h-168zM277 1739v43h233l242 -242h-152zM383 545h422l-160 436l-51 217h-2l-51 -221z" />
<glyph unicode="&#xc1;" horiz-adv-x="1198" d="M16 0l543 1456h78l545 -1456h-178l-148 397h-528l-144 -397h-168zM383 545h422l-160 436l-51 217h-2l-51 -221zM436 1540l242 242h233v-43l-334 -199h-141z" />
<glyph unicode="&#xc2;" horiz-adv-x="1198" d="M16 0l543 1456h78l545 -1456h-178l-148 397h-528l-144 -397h-168zM270 1530v45l272 207h123l260 -209v-43h-166l-123 100l-34 72l-39 -70l-131 -102h-162zM383 545h422l-160 436l-51 217h-2l-51 -221z" />
<glyph unicode="&#xc3;" horiz-adv-x="1198" d="M16 0l543 1456h78l545 -1456h-178l-148 397h-528l-144 -397h-168zM277 1608q107 112 221 112q63 0 122 -24q108 -43 158 -43t99 43l51 -88q-97 -90 -196 -90q-59 0 -118 24q-109 43 -157 43q-70 0 -131 -61zM383 545h422l-160 436l-51 217h-2l-51 -221z" />
<glyph unicode="&#xc4;" horiz-adv-x="1198" d="M16 0l543 1456h78l545 -1456h-178l-148 397h-528l-144 -397h-168zM295 1627q0 42 30.5 68.5t78.5 26.5t78 -26.5t30 -68.5t-29.5 -68.5t-78 -26.5t-79 26.5t-30.5 68.5zM383 545h422l-160 436l-51 217h-2l-51 -221zM688 1627q0 42 29.5 68.5t78 26.5t79 -26.5t30.5 -68.5 t-30.5 -68.5t-78.5 -26.5t-78 26.5t-30 68.5z" />
<glyph unicode="&#xc5;" horiz-adv-x="1198" d="M16 0l525 1407q-156 24 -156 171q0 71 51 120t158 49q223 0 223 -174q0 -66 -41 -110t-121 -56l527 -1407h-178l-148 397h-528l-144 -397h-168zM383 545h422l-160 436l-51 217h-2l-51 -221zM510 1575q0 -37 21.5 -60.5t67.5 -23.5t69.5 22.5t23.5 60.5t-22.5 61.5 t-68.5 23.5t-68.5 -23.5t-22.5 -60.5z" />
<glyph unicode="&#xc6;" horiz-adv-x="1732" d="M-45 0l850 1434h784v-152h-610v-469h559v-151h-559v-510h620v-152h-790v406h-438l-230 -406h-186zM459 549h350v680h-8l-70 -211z" />
<glyph unicode="&#xc7;" horiz-adv-x="1169" d="M115 717q0 373 197 570q171 171 425 171q217 0 334 -49l-41 -149q-98 47 -280 47q-190 0 -312 -131q-143 -154 -143 -459q0 -285 139 -443q129 -147 340 -147q170 0 277 66l41 -134q-91 -71 -301 -82l-35 -65q86 -16 124 -53t38 -109t-66 -124t-184 -52q-43 0 -93 8 l19 80q12 -2 22 -2h21q115 0 126 54q3 14 3 26q0 57 -176 76l86 164q-251 17 -400 194q-161 193 -161 543z" />
<glyph unicode="&#xc8;" horiz-adv-x="1097" d="M174 0v1434h780v-152h-610v-469h559v-151h-559v-510h621v-152h-791zM193 1739v43h233l242 -242h-152z" />
<glyph unicode="&#xc9;" horiz-adv-x="1097" d="M174 0v1434h780v-152h-610v-469h559v-151h-559v-510h621v-152h-791zM434 1540l242 242h233v-43l-334 -199h-141z" />
<glyph unicode="&#xca;" horiz-adv-x="1097" d="M174 0v1434h780v-152h-610v-469h559v-151h-559v-510h621v-152h-791zM223 1530v45l272 207h123l260 -209v-43h-166l-123 100l-34 72l-39 -70l-131 -102h-162z" />
<glyph unicode="&#xcb;" horiz-adv-x="1097" d="M174 0v1434h780v-152h-610v-469h559v-151h-559v-510h621v-152h-791zM246 1627q0 42 30.5 68.5t78.5 26.5t78 -26.5t30 -68.5t-29.5 -68.5t-78 -26.5t-79 26.5t-30.5 68.5zM639 1627q0 42 29.5 68.5t78 26.5t79 -26.5t30.5 -68.5t-30.5 -68.5t-78.5 -26.5t-78 26.5 t-30 68.5z" />
<glyph unicode="&#xcc;" horiz-adv-x="595" d="M-76 1739v43h233l242 -242h-152zM213 0v1434h170v-1434h-170z" />
<glyph unicode="&#xcd;" horiz-adv-x="595" d="M127 1540l242 242h233v-43l-334 -199h-141zM213 0v1434h170v-1434h-170z" />
<glyph unicode="&#xce;" horiz-adv-x="595" d="M-31 1530v45l272 207h123l260 -209v-43h-166l-123 100l-34 72l-39 -70l-131 -102h-162zM213 0v1434h170v-1434h-170z" />
<glyph unicode="&#xcf;" horiz-adv-x="595" d="M-4 1627q0 42 30.5 68.5t78.5 26.5t78 -26.5t30 -68.5t-29.5 -68.5t-78 -26.5t-79 26.5t-30.5 68.5zM213 0v1434h170v-1434h-170zM389 1627q0 42 29.5 68.5t78 26.5t79 -26.5t30.5 -68.5t-30.5 -68.5t-78.5 -26.5t-78 26.5t-30 68.5z" />
<glyph unicode="&#xd0;" horiz-adv-x="1347" d="M-2 680v123h184v631q104 16 383 16q332 0 506 -202q162 -188 162 -521q0 -318 -158 -517q-180 -228 -530 -228q-100 0 -174 4t-121 6t-68 6v682h-184zM352 141q40 -8 190 -8t247.5 49t156.5 132q107 153 107 413q0 380 -249 519q-94 52 -235 52h-59q-83 0 -158 -10v-485 h301v-123h-301v-539z" />
<glyph unicode="&#xd1;" horiz-adv-x="1378" d="M174 0v1456h90l686 -956l107 -197h10l-23 197v934h160v-1457h-90l-682 961l-110 207h-9l21 -207v-938h-160zM367 1608q107 112 221 112q63 0 122 -24q108 -43 158 -43t99 43l51 -88q-97 -90 -196 -90q-59 0 -118 24q-109 43 -157 43q-70 0 -131 -61z" />
<glyph unicode="&#xd2;" horiz-adv-x="1400" d="M115 721.5q0 353.5 151.5 545t431.5 191.5q294 0 446 -204q142 -189 142 -542t-152.5 -545t-435.5 -192q-287 0 -441 204q-142 189 -142 542.5zM295 740.5q0 -277.5 101.5 -445.5t296.5 -168t304 144.5t109 445.5q0 399 -224 541q-77 49 -184 49q-188 0 -295.5 -144.5 t-107.5 -422zM365 1739v43h233l242 -242h-152z" />
<glyph unicode="&#xd3;" horiz-adv-x="1400" d="M115 721.5q0 353.5 151.5 545t431.5 191.5q294 0 446 -204q142 -189 142 -542t-152.5 -545t-435.5 -192q-287 0 -441 204q-142 189 -142 542.5zM295 740.5q0 -277.5 101.5 -445.5t296.5 -168t304 144.5t109 445.5q0 399 -224 541q-77 49 -184 49q-188 0 -295.5 -144.5 t-107.5 -422zM608 1540l242 242h233v-43l-334 -199h-141z" />
<glyph unicode="&#xd4;" horiz-adv-x="1400" d="M115 721.5q0 353.5 151.5 545t431.5 191.5q294 0 446 -204q142 -189 142 -542t-152.5 -545t-435.5 -192q-287 0 -441 204q-142 189 -142 542.5zM295 740.5q0 -277.5 101.5 -445.5t296.5 -168t304 144.5t109 445.5q0 399 -224 541q-77 49 -184 49q-188 0 -295.5 -144.5 t-107.5 -422zM367 1530v45l272 207h123l260 -209v-43h-166l-123 100l-34 72l-39 -70l-131 -102h-162z" />
<glyph unicode="&#xd5;" horiz-adv-x="1400" d="M115 721.5q0 353.5 151.5 545t431.5 191.5q294 0 446 -204q142 -189 142 -542t-152.5 -545t-435.5 -192q-287 0 -441 204q-142 189 -142 542.5zM295 740.5q0 -277.5 101.5 -445.5t296.5 -168t304 144.5t109 445.5q0 399 -224 541q-77 49 -184 49q-188 0 -295.5 -144.5 t-107.5 -422zM373 1608q107 112 221 112q63 0 122 -24q108 -43 158 -43t99 43l51 -88q-97 -90 -196 -90q-59 0 -118 24q-109 43 -157 43q-70 0 -131 -61z" />
<glyph unicode="&#xd6;" horiz-adv-x="1400" d="M115 721.5q0 353.5 151.5 545t431.5 191.5q294 0 446 -204q142 -189 142 -542t-152.5 -545t-435.5 -192q-287 0 -441 204q-142 189 -142 542.5zM295 740.5q0 -277.5 101.5 -445.5t296.5 -168t304 144.5t109 445.5q0 399 -224 541q-77 49 -184 49q-188 0 -295.5 -144.5 t-107.5 -422zM389 1627q0 42 30.5 68.5t78.5 26.5t78 -26.5t30 -68.5t-29.5 -68.5t-78 -26.5t-79 26.5t-30.5 68.5zM782 1627q0 42 29.5 68.5t78 26.5t79 -26.5t30.5 -68.5t-30.5 -68.5t-78.5 -26.5t-78 26.5t-30 68.5z" />
<glyph unicode="&#xd7;" horiz-adv-x="1034" d="M152 430l262 264l-258 256l104 109l258 -260l260 260l105 -109l-258 -258l258 -260l-105 -106l-260 262l-260 -262z" />
<glyph unicode="&#xd8;" horiz-adv-x="1400" d="M115 725q0 350 151.5 541.5t431.5 191.5q226 0 367 -121l86 123l106 -71l-104 -148q133 -192 133 -537t-152.5 -537t-435.5 -192q-219 0 -358 115l-80 -115l-106 74l96 137q-135 189 -135 539zM295 717q0 -215 72 -367l594 842q-102 115 -276.5 115t-282 -144.5 t-107.5 -445.5zM442 233q98 -106 256 -106q190 0 299 144.5t109 445.5q0 206 -70 358z" />
<glyph unicode="&#xd9;" horiz-adv-x="1335" d="M174 444v990h170v-910q0 -309 194 -370q64 -21 150 -21q166 0 237.5 91t71.5 300v910h164v-957q0 -376 -280 -467q-88 -28 -195 -28q-512 0 -512 462zM359 1739v43h233l242 -242h-152z" />
<glyph unicode="&#xda;" horiz-adv-x="1335" d="M174 444v990h170v-910q0 -309 194 -370q64 -21 150 -21q166 0 237.5 91t71.5 300v910h164v-957q0 -376 -280 -467q-88 -28 -195 -28q-512 0 -512 462zM557 1540l242 242h233v-43l-334 -199h-141z" />
<glyph unicode="&#xdb;" horiz-adv-x="1335" d="M174 444v990h170v-910q0 -309 194 -370q64 -21 150 -21q166 0 237.5 91t71.5 300v910h164v-957q0 -376 -280 -467q-88 -28 -195 -28q-512 0 -512 462zM344 1530v45l272 207h123l260 -209v-43h-166l-123 100l-34 72l-39 -70l-131 -102h-162z" />
<glyph unicode="&#xdc;" horiz-adv-x="1335" d="M174 444v990h170v-910q0 -309 194 -370q64 -21 150 -21q166 0 237.5 91t71.5 300v910h164v-957q0 -376 -280 -467q-88 -28 -195 -28q-512 0 -512 462zM365 1627q0 42 30.5 68.5t78.5 26.5t78 -26.5t30 -68.5t-29.5 -68.5t-78 -26.5t-79 26.5t-30.5 68.5zM758 1627 q0 42 29.5 68.5t78 26.5t79 -26.5t30.5 -68.5t-30.5 -68.5t-78.5 -26.5t-78 26.5t-30 68.5z" />
<glyph unicode="&#xdd;" horiz-adv-x="1142" d="M16 1434h199l336 -627l35 -125h2l37 129l321 623h182l-469 -863v-571h-170v569zM485 1540l242 242h233v-43l-334 -199h-141z" />
<glyph unicode="&#xde;" horiz-adv-x="1144" d="M174 0v1638h170v-358q86 6 178 6t189.5 -18.5t177.5 -67.5q180 -110 180 -354q0 -243 -172 -368q-78 -56 -178.5 -80.5t-158.5 -24.5h-117q-59 0 -99 8v-381h-170zM344 532q20 -8 85 -8h75q265 0 351 160q34 64 34 155t-32 147t-84 90q-96 63 -241.5 63t-187.5 -13v-594z " />
<glyph unicode="&#xdf;" horiz-adv-x="1212" d="M45 881v143h160v47q0 199 97 287t269 88q170 0 274 -83q105 -84 105 -216q0 -78 -39 -125t-85 -84t-85 -72t-39 -83t31 -74.5t78 -47t100.5 -42t100.5 -56.5q108 -80 108 -237q0 -139 -95 -240q-104 -111 -273 -111t-258 58l47 137q25 -12 43 -22.5t40 -16.5 q42 -12 99 -12t97 15.5t71 41.5q65 56 65 130t-30.5 110.5t-76.5 61t-100.5 44t-100.5 48.5q-107 69 -107 200q0 80 37.5 128t86 86t85 73t36.5 79t-19 72.5t-50 49.5q-64 45 -130 45t-106.5 -14.5t-66.5 -47.5q-45 -59 -45 -221v-1020h-164v881h-160z" />
<glyph unicode="&#xe0;" horiz-adv-x="1015" d="M80 274q0 248 300 298q93 16 164 16h98q28 0 56 -4q6 61 7 110q0 113 -45.5 158t-163.5 45q-114 0 -237 -42q-38 -13 -66 -30l-52 123q153 92 398 92q193 0 269 -103q56 -76 56 -212l-12 -461q0 -171 29 -268h-121l-43 143h-10q-64 -103 -203 -141q-51 -14 -117 -14 q-133 0 -219 78q-88 81 -88 212zM250 291q0 -72 51 -118t119.5 -46t114 15.5t77.5 39.5q63 45 86 107v170q-58 4 -116 4q-332 0 -332 -172zM297 1432v43h194l134 -306h-93z" />
<glyph unicode="&#xe1;" horiz-adv-x="1015" d="M80 274q0 248 300 298q93 16 164 16h98q28 0 56 -4q6 61 7 110q0 113 -45.5 158t-163.5 45q-114 0 -237 -42q-38 -13 -66 -30l-52 123q153 92 398 92q193 0 269 -103q56 -76 56 -212l-12 -461q0 -171 29 -268h-121l-43 143h-10q-64 -103 -203 -141q-51 -14 -117 -14 q-133 0 -219 78q-88 81 -88 212zM250 291q0 -72 51 -118t119.5 -46t114 15.5t77.5 39.5q63 45 86 107v170q-58 4 -116 4q-332 0 -332 -172zM367 1169l121 306h182v-43l-207 -263h-96z" />
<glyph unicode="&#xe2;" horiz-adv-x="1015" d="M80 274q0 248 300 298q93 16 164 16h98q28 0 56 -4q6 61 7 110q0 113 -45.5 158t-163.5 45q-114 0 -237 -42q-38 -13 -66 -30l-52 123q153 92 398 92q193 0 269 -103q56 -76 56 -212l-12 -461q0 -171 29 -268h-121l-43 143h-10q-64 -103 -203 -141q-51 -14 -117 -14 q-133 0 -219 78q-88 81 -88 212zM238 1126l252 373h65l228 -373h-148l-80 136l-43 118l-45 -118l-92 -136h-137zM250 291q0 -72 51 -118t119.5 -46t114 15.5t77.5 39.5q63 45 86 107v170q-58 4 -116 4q-332 0 -332 -172z" />
<glyph unicode="&#xe3;" horiz-adv-x="1015" d="M80 274q0 248 300 298q93 16 164 16h98q28 0 56 -4q6 61 7 110q0 113 -45.5 158t-163.5 45q-114 0 -237 -42q-38 -13 -66 -30l-52 123q153 92 398 92q193 0 269 -103q56 -76 56 -212l-12 -461q0 -171 29 -268h-121l-43 143h-10q-64 -103 -203 -141q-51 -14 -117 -14 q-133 0 -219 78q-88 81 -88 212zM223 1343q103 119 199 119q48 0 98.5 -28.5t76 -41t62.5 -12.5t86 50l49 -89q-92 -102 -178 -102q-44 0 -94.5 27.5t-78.5 41t-56 13.5q-53 0 -117 -64zM250 291q0 -72 51 -118t119.5 -46t114 15.5t77.5 39.5q63 45 86 107v170q-58 4 -116 4 q-332 0 -332 -172z" />
<glyph unicode="&#xe4;" horiz-adv-x="1015" d="M80 274q0 248 300 298q93 16 164 16h98q28 0 56 -4q6 61 7 110q0 113 -45.5 158t-163.5 45q-114 0 -237 -42q-38 -13 -66 -30l-52 123q153 92 398 92q193 0 269 -103q56 -76 56 -212l-12 -461q0 -171 29 -268h-121l-43 143h-10q-64 -103 -203 -141q-51 -14 -117 -14 q-133 0 -219 78q-88 81 -88 212zM215 1339q0 45 27.5 74t72.5 29t73 -29t28 -74t-28 -73.5t-73 -28.5t-72.5 28.5t-27.5 73.5zM250 291q0 -72 51 -118t119.5 -46t114 15.5t77.5 39.5q63 45 86 107v170q-58 4 -116 4q-332 0 -332 -172zM608 1339q0 45 27.5 74t73.5 29t74 -29 t28 -74t-27.5 -73.5t-74 -28.5t-74 28.5t-27.5 73.5z" />
<glyph unicode="&#xe5;" horiz-adv-x="1015" d="M80 274q0 248 300 298q93 16 164 16h98q28 0 56 -4q6 61 7 110q0 113 -45.5 158t-163.5 45q-114 0 -237 -42q-38 -13 -66 -30l-52 123q153 92 398 92q193 0 269 -103q56 -76 56 -212l-12 -461q0 -171 29 -268h-121l-43 143h-10q-64 -103 -203 -141q-51 -14 -117 -14 q-133 0 -219 78q-88 81 -88 212zM250 291q0 -72 51 -118t119.5 -46t114 15.5t77.5 39.5q63 45 86 107v170q-58 4 -116 4q-332 0 -332 -172zM311 1316q0 87 54 137t142.5 50t145.5 -45t57 -133t-57 -140t-143 -52t-142.5 48t-56.5 135zM421 1320q0 -44 27 -66.5t62 -22.5 q90 0 90 86q0 45 -28 66.5t-62 21.5q-35 0 -62 -20.5t-27 -64.5z" />
<glyph unicode="&#xe6;" horiz-adv-x="1630" d="M80 274q0 248 300 298q93 16 164 16h98q28 0 56 -4q7 108 7 110q0 113 -45.5 159t-163.5 44q-114 0 -237 -42q-38 -13 -66 -30l-52 123q153 92 383 92t293 -133q53 74 143.5 108t170.5 34t149.5 -15.5t124.5 -59.5q125 -100 125 -333q0 -43 -10 -145h-662 q0 -178 75 -277.5t255 -99.5q72 0 140.5 25.5t105.5 56.5l61 -119q-61 -49 -154.5 -78t-208 -29t-216 51.5t-150.5 145.5h-14q-137 -188 -365 -188q-133 0 -219 78q-88 81 -88 212zM250 291q0 -72 51 -118t119.5 -46t114 15.5t77.5 39.5q63 45 86 107v170q-58 4 -116 4 q-332 0 -332 -172zM862 625h508v24q0 139 -62.5 197.5t-174 58.5t-185.5 -63.5t-86 -216.5z" />
<glyph unicode="&#xe7;" horiz-adv-x="923" d="M100 520q0 252 115 390.5t330 138.5q175 0 291 -60l-48 -141q-99 57 -227 57q-291 0 -291 -393q0 -272 161 -360q58 -31 144 -31q136 0 228 72l53 -125q-100 -72 -248 -88l-37 -68q86 -16 124 -53t38 -109t-65.5 -124t-184.5 -52q-42 0 -92 8l19 80q12 -2 22 -2h21 q113 0 125 54q4 14 4 26q0 57 -176 76l86 161q-201 11 -302 159q-90 132 -90 384z" />
<glyph unicode="&#xe8;" horiz-adv-x="1040" d="M100 518.5q0 255.5 117 393t334 137.5q169 0 264 -74q125 -98 125 -330q0 -68 -12 -149h-658q0 -279 178 -352q62 -25 142 -25t149.5 24.5t104.5 57.5l61 -119q-61 -49 -154.5 -78t-204 -29t-196.5 38t-141 109q-109 141 -109 396.5zM272 625h508q0 156 -59 218t-174 62 t-187.5 -63.5t-87.5 -216.5zM348 1432v43h194l134 -306h-93z" />
<glyph unicode="&#xe9;" horiz-adv-x="1040" d="M100 518.5q0 255.5 117 393t334 137.5q169 0 264 -74q125 -98 125 -330q0 -68 -12 -149h-658q0 -279 178 -352q62 -25 142 -25t149.5 24.5t104.5 57.5l61 -119q-61 -49 -154.5 -78t-204 -29t-196.5 38t-141 109q-109 141 -109 396.5zM272 625h508q0 156 -59 218t-174 62 t-187.5 -63.5t-87.5 -216.5zM475 1169l121 306h182v-43l-207 -263h-96z" />
<glyph unicode="&#xea;" horiz-adv-x="1040" d="M100 518.5q0 255.5 117 393t334 137.5q169 0 264 -74q125 -98 125 -330q0 -68 -12 -149h-658q0 -279 178 -352q62 -25 142 -25t149.5 24.5t104.5 57.5l61 -119q-61 -49 -154.5 -78t-204 -29t-196.5 38t-141 109q-109 141 -109 396.5zM250 1126l252 373h65l228 -373h-148 l-80 136l-43 118l-45 -118l-92 -136h-137zM272 625h508q0 156 -59 218t-174 62t-187.5 -63.5t-87.5 -216.5z" />
<glyph unicode="&#xeb;" horiz-adv-x="1040" d="M100 518.5q0 255.5 117 393t334 137.5q169 0 264 -74q125 -98 125 -330q0 -68 -12 -149h-658q0 -279 178 -352q62 -25 142 -25t149.5 24.5t104.5 57.5l61 -119q-61 -49 -154.5 -78t-204 -29t-196.5 38t-141 109q-109 141 -109 396.5zM244 1339q0 45 27.5 74t72.5 29 t73 -29t28 -74t-28 -73.5t-73 -28.5t-72.5 28.5t-27.5 73.5zM272 625h508q0 156 -59 218t-174 62t-187.5 -63.5t-87.5 -216.5zM637 1339q0 45 27.5 74t73.5 29t74 -29t28 -74t-27.5 -73.5t-74 -28.5t-74 28.5t-27.5 73.5z" />
<glyph unicode="&#xec;" horiz-adv-x="548" d="M25 1432v43h194l134 -306h-93zM193 0v1024h163v-1024h-163z" />
<glyph unicode="&#xed;" horiz-adv-x="548" d="M193 0v1024h163v-1024h-163zM195 1169l121 306h182v-43l-207 -263h-96z" />
<glyph unicode="&#xee;" horiz-adv-x="548" d="M-4 1126l252 373h65l228 -373h-148l-80 136l-43 118l-45 -118l-92 -136h-137zM193 0v1024h163v-1024h-163z" />
<glyph unicode="&#xef;" horiz-adv-x="548" d="M-24 1339q0 45 27.5 74t72.5 29t73 -29t28 -74t-28 -73.5t-73 -28.5t-72.5 28.5t-27.5 73.5zM193 0v1024h163v-1024h-163zM369 1339q0 45 27.5 74t73.5 29t74 -29t28 -74t-27.5 -73.5t-74 -28.5t-74 28.5t-27.5 73.5z" />
<glyph unicode="&#xf0;" horiz-adv-x="1148" d="M115 514q0 226 117 372q128 158 341 158q92 0 163 -28.5t100 -65.5q-45 148 -174 264l-156 -84l-55 91l116 63q-78 47 -155 66l71 110q135 -51 213 -106l140 76l53 -93l-103 -55q250 -240 250 -678q0 -313 -136 -480q-120 -149 -322 -149q-238 0 -357 160 q-106 143 -106 379zM283 503q0 -91 22.5 -165t62.5 -123q78 -96 218 -96q201 0 266 258q22 90 22 163.5t-1 99.5l-2 52q-2 52 -11 88q-30 54 -112 90q-70 29 -154 29t-142.5 -29.5t-96.5 -82t-55 -123t-17 -161.5z" />
<glyph unicode="&#xf1;" horiz-adv-x="1120" d="M158 0v1024h114l31 -125h8q49 66 132 108t182.5 42t163 -19.5t105.5 -69.5q85 -100 85 -342v-618h-164v584q0 160 -46 240.5t-162 80.5t-186.5 -58.5t-98.5 -146.5v-700h-164zM275 1343q103 119 199 119q48 0 98.5 -28.5t76 -41t62.5 -12.5t86 50l49 -89 q-92 -102 -178 -102q-44 0 -94.5 27.5t-78.5 41t-56 13.5q-53 0 -117 -64z" />
<glyph unicode="&#xf2;" horiz-adv-x="1097" d="M100 512q0 260 116 398.5t333 138.5q226 0 340 -147q108 -139 108 -394.5t-115.5 -394t-332.5 -138.5q-336 0 -422 317q-27 99 -27 220zM270 512q0 -269 150 -360q53 -33 129 -33q279 -2 278 393q0 273 -149 362q-53 31 -129 31q-279 2 -279 -393zM322 1432v43h194 l134 -306h-93z" />
<glyph unicode="&#xf3;" horiz-adv-x="1097" d="M100 512q0 260 116 398.5t333 138.5q226 0 340 -147q108 -139 108 -394.5t-115.5 -394t-332.5 -138.5q-336 0 -422 317q-27 99 -27 220zM270 512q0 -269 150 -360q53 -33 129 -33q279 -2 278 393q0 273 -149 362q-53 31 -129 31q-279 2 -279 -393zM465 1169l121 306h182 v-43l-207 -263h-96z" />
<glyph unicode="&#xf4;" horiz-adv-x="1097" d="M100 512q0 260 116 398.5t333 138.5q226 0 340 -147q108 -139 108 -394.5t-115.5 -394t-332.5 -138.5q-336 0 -422 317q-27 99 -27 220zM270 512q0 -269 150 -360q53 -33 129 -33q279 -2 278 393q0 273 -149 362q-53 31 -129 31q-279 2 -279 -393zM277 1126l252 373h65 l228 -373h-148l-80 136l-43 118l-45 -118l-92 -136h-137z" />
<glyph unicode="&#xf5;" horiz-adv-x="1097" d="M100 512q0 260 116 398.5t333 138.5q226 0 340 -147q108 -139 108 -394.5t-115.5 -394t-332.5 -138.5q-336 0 -422 317q-27 99 -27 220zM264 1343q103 119 199 119q48 0 98.5 -28.5t76 -41t62.5 -12.5t86 50l49 -89q-92 -102 -178 -102q-44 0 -94.5 27.5t-78.5 41 t-56 13.5q-53 0 -117 -64zM270 512q0 -269 150 -360q53 -33 129 -33q279 -2 278 393q0 273 -149 362q-53 31 -129 31q-279 2 -279 -393z" />
<glyph unicode="&#xf6;" horiz-adv-x="1097" d="M100 512q0 260 116 398.5t333 138.5q226 0 340 -147q108 -139 108 -394.5t-115.5 -394t-332.5 -138.5q-336 0 -422 317q-27 99 -27 220zM254 1339q0 45 27.5 74t72.5 29t73 -29t28 -74t-28 -73.5t-73 -28.5t-72.5 28.5t-27.5 73.5zM270 512q0 -269 150 -360 q53 -33 129 -33q279 -2 278 393q0 273 -149 362q-53 31 -129 31q-279 2 -279 -393zM647 1339q0 45 27.5 74t73.5 29t74 -29t28 -74t-27.5 -73.5t-74 -28.5t-74 28.5t-27.5 73.5z" />
<glyph unicode="&#xf7;" horiz-adv-x="1034" d="M82 618v148h868v-148h-868zM397 308q0 54 32 86t86 32t87 -32t33 -86t-33 -87t-87 -33t-86 33t-32 87zM397 1076q0 54 32 86t86 32t87 -32t33 -86t-33 -87t-87 -33t-86 33t-32 87z" />
<glyph unicode="&#xf8;" horiz-adv-x="1097" d="M100 527q0 245 116 383.5t333 138.5q150 0 250 -66l53 72l102 -76l-59 -86q102 -135 102 -388t-115.5 -391.5t-332.5 -138.5q-160 0 -262 72l-56 -76l-106 78l68 94q-93 139 -93 384zM270 512q0 -126 37 -223l404 561q-68 55 -162 55q-279 2 -279 -393zM377 180 q75 -61 172 -61q278 -2 278 393q0 143 -43 236z" />
<glyph unicode="&#xf9;" horiz-adv-x="1103" d="M141 406v618h164v-584q0 -166 41 -240q46 -81 160 -81q148 0 234 136q26 40 42 85v684h164v-733q0 -187 23 -291h-113l-41 162h-10q-110 -187 -330 -187q-174 0 -249 89q-85 100 -85 342zM303 1432v43h194l134 -306h-93z" />
<glyph unicode="&#xfa;" horiz-adv-x="1103" d="M141 406v618h164v-584q0 -166 41 -240q46 -81 160 -81q148 0 234 136q26 40 42 85v684h164v-733q0 -187 23 -291h-113l-41 162h-10q-110 -187 -330 -187q-174 0 -249 89q-85 100 -85 342zM463 1169l121 306h182v-43l-207 -263h-96z" />
<glyph unicode="&#xfb;" horiz-adv-x="1103" d="M141 406v618h164v-584q0 -166 41 -240q46 -81 160 -81q148 0 234 136q26 40 42 85v684h164v-733q0 -187 23 -291h-113l-41 162h-10q-110 -187 -330 -187q-174 0 -249 89q-85 100 -85 342zM281 1126l252 373h65l228 -373h-148l-80 136l-43 118l-45 -118l-92 -136h-137z " />
<glyph unicode="&#xfc;" horiz-adv-x="1103" d="M141 406v618h164v-584q0 -166 41 -240q46 -81 160 -81q148 0 234 136q26 40 42 85v684h164v-733q0 -187 23 -291h-113l-41 162h-10q-110 -187 -330 -187q-174 0 -249 89q-85 100 -85 342zM256 1339q0 45 27.5 74t72.5 29t73 -29t28 -74t-28 -73.5t-73 -28.5t-72.5 28.5 t-27.5 73.5zM649 1339q0 45 27.5 74t73.5 29t74 -29t28 -74t-27.5 -73.5t-74 -28.5t-74 28.5t-27.5 73.5z" />
<glyph unicode="&#xfd;" horiz-adv-x="954" d="M25 1024h188l246 -664l57 -196h10l45 198l199 662h166l-303 -920q-35 -100 -69 -194t-74 -168q-89 -162 -211 -162q-74 0 -121 21l28 141q27 -10 52 -10q57 0 110 60.5t88 207.5zM447 1169l121 306h182v-43l-207 -263h-96z" />
<glyph unicode="&#xfe;" horiz-adv-x="1107" d="M158 -410v1844h164v-512h8q88 127 282.5 127t295 -121t100.5 -396q0 -255 -130 -407q-128 -150 -348 -150q-113 0 -208 41v-426h-164zM322 176q73 -57 211 -57t221.5 105.5t83.5 310.5q0 370 -267 370q-201 2 -249 -219v-510z" />
<glyph unicode="&#xff;" horiz-adv-x="954" d="M25 1024h188l246 -664l57 -196h10l45 198l199 662h166l-303 -920q-35 -100 -69 -194t-74 -168q-89 -162 -211 -162q-74 0 -121 21l28 141q27 -10 52 -10q57 0 110 60.5t88 207.5zM182 1339q0 45 27.5 74t72.5 29t73 -29t28 -74t-28 -73.5t-73 -28.5t-72.5 28.5 t-27.5 73.5zM575 1339q0 45 27.5 74t73.5 29t74 -29t28 -74t-27.5 -73.5t-74 -28.5t-74 28.5t-27.5 73.5z" />
<glyph unicode="&#x152;" horiz-adv-x="1908" d="M115 721.5q0 353.5 151.5 545t431.5 191.5q131 0 287 -24h780v-152h-610v-469h559v-151h-559v-510h621v-152h-791q-127 -25 -282 -25t-264 53.5t-182 150.5q-142 189 -142 542.5zM295 717q0 -405 229 -542q80 -48 165 -48t147.5 4t148.5 31v1104q-102 41 -288.5 41 t-294 -144.5t-107.5 -445.5z" />
<glyph unicode="&#x153;" horiz-adv-x="1757" d="M100 512q0 260 116 398.5t333 138.5q129 0 218 -53.5t142 -135.5q53 86 144.5 137.5t188 51.5t166 -15.5t124.5 -58.5t90 -122t35 -184t-10 -173h-662q0 -286 179 -354q63 -25 144 -25t149.5 25.5t103.5 58.5l61 -119q-61 -49 -154.5 -78t-209 -29t-208 51.5 t-145.5 139.5q-114 -191 -356 -191q-336 0 -422 317q-27 99 -27 220zM270 512q0 -272 150 -362q53 -31 129 -31q276 -2 276 393q0 274 -147 362q-53 31 -129 31q-279 2 -279 -393zM989 625h508v18q0 264 -235 264q-111 0 -184.5 -64.5t-88.5 -217.5z" />
<glyph unicode="&#x178;" horiz-adv-x="1142" d="M16 1434h199l336 -627l35 -125h2l37 129l321 623h182l-469 -863v-571h-170v569zM273 1627q0 42 30.5 68.5t78.5 26.5t78 -26.5t30 -68.5t-29.5 -68.5t-78 -26.5t-79 26.5t-30.5 68.5zM666 1627q0 42 29.5 68.5t78 26.5t79 -26.5t30.5 -68.5t-30.5 -68.5t-78.5 -26.5 t-78 26.5t-30 68.5z" />
<glyph unicode="&#x2c6;" horiz-adv-x="790" d="M123 1126l252 373h65l228 -373h-148l-80 136l-43 118l-45 -118l-92 -136h-137z" />
<glyph unicode="&#x2dc;" horiz-adv-x="817" d="M123 1343q103 119 199 119q48 0 98.5 -28.5t76 -41t62.5 -12.5t86 50l49 -89q-92 -102 -178 -102q-44 0 -94.5 27.5t-78.5 41t-56 13.5q-53 0 -117 -64z" />
<glyph unicode="&#x2000;" horiz-adv-x="891" />
<glyph unicode="&#x2001;" horiz-adv-x="1782" />
<glyph unicode="&#x2002;" horiz-adv-x="891" />
<glyph unicode="&#x2003;" horiz-adv-x="1782" />
<glyph unicode="&#x2004;" horiz-adv-x="594" />
<glyph unicode="&#x2005;" horiz-adv-x="445" />
<glyph unicode="&#x2006;" horiz-adv-x="297" />
<glyph unicode="&#x2007;" horiz-adv-x="297" />
<glyph unicode="&#x2008;" horiz-adv-x="222" />
<glyph unicode="&#x2009;" horiz-adv-x="356" />
<glyph unicode="&#x200a;" horiz-adv-x="99" />
<glyph unicode="&#x2010;" horiz-adv-x="737" d="M121 514v152h495v-152h-495z" />
<glyph unicode="&#x2011;" horiz-adv-x="737" d="M121 514v152h495v-152h-495z" />
<glyph unicode="&#x2012;" horiz-adv-x="737" d="M121 514v152h495v-152h-495z" />
<glyph unicode="&#x2013;" horiz-adv-x="1351" d="M242 514v152h868v-152h-868z" />
<glyph unicode="&#x2014;" horiz-adv-x="1679" d="M242 514v152h1196v-152h-1196z" />
<glyph unicode="&#x2018;" horiz-adv-x="397" d="M82 1311q0 70 19.5 118t46.5 81q50 61 110 83l51 -71q-100 -51 -100 -156q8 2 35.5 2t50 -28.5t22.5 -72.5t-30.5 -72t-81.5 -28t-87 37t-36 107z" />
<glyph unicode="&#x2019;" horiz-adv-x="397" d="M82 1351q0 46 29.5 72.5t81.5 26.5t88 -36t36 -105.5t-19 -118.5t-47 -83q-51 -62 -112 -83l-51 70q100 53 100 157q-8 -2 -34.5 -2t-49 28t-22.5 74z" />
<glyph unicode="&#x201a;" horiz-adv-x="397" d="M82 104q0 46 29.5 72.5t81.5 26.5t88 -36t36 -105.5t-19 -118.5t-47 -83q-51 -62 -112 -83l-51 70q100 53 100 157q-8 -2 -34.5 -2t-49 28t-22.5 74z" />
<glyph unicode="&#x201c;" horiz-adv-x="696" d="M82 1311q0 70 19.5 118t46.5 81q50 61 110 83l51 -71q-100 -51 -100 -156q8 2 35.5 2t50 -28.5t22.5 -72.5t-30.5 -72t-81.5 -28t-87 37t-36 107zM381 1311q0 70 19.5 118t46.5 81q50 61 110 83l51 -71q-100 -51 -100 -156q8 2 35.5 2t50 -28.5t22.5 -72.5t-30.5 -72 t-81.5 -28t-87 37t-36 107z" />
<glyph unicode="&#x201d;" horiz-adv-x="696" d="M82 1351q0 46 29.5 72.5t81.5 26.5t88 -36t36 -105.5t-19 -118.5t-47 -83q-51 -62 -112 -83l-51 70q100 53 100 157q-8 -2 -34.5 -2t-49 28t-22.5 74zM381 1351q0 46 29.5 72.5t81.5 26.5t88 -36t36 -105.5t-19 -118.5t-47 -83q-51 -62 -112 -83l-51 70q100 53 100 157 q-8 -2 -34.5 -2t-49 28t-22.5 74z" />
<glyph unicode="&#x201e;" horiz-adv-x="696" d="M82 104q0 46 29.5 72.5t81.5 26.5t88 -36t36 -105.5t-19 -118.5t-47 -83q-51 -62 -112 -83l-51 70q100 53 100 157q-8 -2 -34.5 -2t-49 28t-22.5 74zM381 104q0 46 29.5 72.5t81.5 26.5t88 -36t36 -105.5t-19 -118.5t-47 -83q-51 -62 -112 -83l-51 70q100 53 100 157 q-8 -2 -34.5 -2t-49 28t-22.5 74z" />
<glyph unicode="&#x2022;" horiz-adv-x="925" d="M178 634q0 66 22.5 118.5t60.5 90.5q79 79 202 79q189 0 262 -165q23 -52 23 -120q0 -127 -84 -209q-77 -76 -201 -76t-202 76q-83 81 -83 206z" />
<glyph unicode="&#x2026;" horiz-adv-x="1554" d="M145 95q0 54 32 86t86 32t87 -31.5t33 -86t-33 -87.5t-87 -33t-86 33t-32 87zM666 95q0 54 31.5 86t85.5 32t87 -31.5t33 -86t-32.5 -87.5t-87 -33t-86 33t-31.5 87zM1186 95q0 54 31.5 86t86 32t87 -31.5t32.5 -86t-32.5 -87.5t-86.5 -33t-86 33t-32 87z" />
<glyph unicode="&#x202f;" horiz-adv-x="356" />
<glyph unicode="&#x2039;" horiz-adv-x="608" d="M80 530l328 471l108 -88l-199 -297l-98 -84l98 -73l211 -291l-108 -90z" />
<glyph unicode="&#x203a;" horiz-adv-x="608" d="M80 911l108 90l340 -452l-327 -471l-109 88l199 297l98 84l-98 74z" />
<glyph unicode="&#x205f;" horiz-adv-x="445" />
<glyph unicode="&#x20ac;" d="M20 514l37 135h111v107q0 18 2 39h-150l37 135h127q43 266 204 404q144 124 366 124q194 0 311 -49l-45 -145q-96 47 -264 47q-321 0 -398 -381h578l-35 -135h-557q-2 -18 -2 -38v-39v-36q0 -16 2 -33h516l-35 -135h-467q69 -391 426 -391q151 0 260 65l41 -129 q-109 -84 -335 -84q-491 0 -570 539h-160z" />
<glyph unicode="&#x2122;" horiz-adv-x="1812" d="M78 1294v140h717v-140h-279v-598h-160v598h-278zM877 696v738h159l215 -344l58 -119h2l61 123l199 340h162v-738h-156v342l20 211h-8l-80 -174l-178 -287h-67l-183 285l-73 176h-9l27 -209v-344h-149z" />
<glyph unicode="&#xe000;" horiz-adv-x="1024" d="M0 0v1024h1024v-1024h-1024z" />
</font>
</defs>
</svg>
