<?xml version="1.0" encoding="utf-8"?>
<!-- Generator: Adobe Illustrator 16.0.0, SVG Export Plug-In . SVG Version: 6.00 Build 0)  -->
<!DOCTYPE svg PUBLIC "-//W3C//DTD SVG 1.1//EN" "http://www.w3.org/Graphics/SVG/1.1/DTD/svg11.dtd">
<svg version="1.1" id="Layer_1" xmlns="http://www.w3.org/2000/svg" xmlns:xlink="http://www.w3.org/1999/xlink" x="0px" y="0px"
	 width="199.666px" height="68.334px" viewBox="0 0 199.666 68.334" enable-background="new 0 0 199.666 68.334"
	 xml:space="preserve">
<g>
	<polygon opacity="0.8" points="193.332,7.327 99.833,7.327 6.333,7.327 27.925,34.167 6.333,61.007 99.833,61.007 193.332,61.007 
		171.74,34.167 	"/>
	<g>
		<path fill="#FFFFFF" d="M62.65,30.222c0,2.767-0.537,4.646-1.609,5.641c-1.072,0.996-3.263,1.493-6.57,1.493h-4.885V48.56h-2.851
			V19.774h7.735c3.308,0,5.498,0.502,6.57,1.503s1.609,2.884,1.609,5.65V30.222z M54.043,22.468h-4.458V34.7h4.458
			c2.339,0,3.841-0.258,4.506-0.775c0.666-0.518,0.999-1.484,0.999-2.908v-4.922c0-1.408-0.317-2.365-0.95-2.871
			C57.964,22.722,56.447,22.468,54.043,22.468z"/>
		<path fill="#FFFFFF" d="M107.299,48.56V19.774h2.85v12.387h1.473l9.207-12.387h3.18L113.851,33.44l11.475,15.119h-3.586
			l-10.351-13.666h-1.24V48.56H107.299z"/>
		<path fill="#FFFFFF" d="M138.062,45.788v2.771h-12.87V19.774h12.87v2.791h-10.021v9.633h9.322v2.792h-9.322v10.798H138.062z"/>
		<path fill="#FFFFFF" d="M143.918,48.56V22.604h-6.165v-2.791h15.178v2.791h-6.164V48.56H143.918z"/>
		<path fill="#FFFFFF" d="M86.025,21.713c-1.176-1.524-3.075-2.287-5.699-2.287h-9.31c-2.636,0-4.538,0.763-5.709,2.287
			c-1.169,1.524-1.754,4.019-1.754,7.481v10.002c0,3.451,0.585,5.932,1.754,7.443c1.171,1.512,3.073,2.269,5.709,2.269h9.31
			c2.624,0,4.523-0.757,5.699-2.269c1.175-1.512,1.764-3.992,1.764-7.443V29.194C87.789,25.731,87.2,23.237,86.025,21.713z
			 M71.366,22.274h8.592c1.822,0,3.072,0.463,3.751,1.387c0.333,0.455,0.585,1.135,0.755,2.035l-8.792,5.342l-8.8-5.403
			c0.17-0.87,0.417-1.529,0.743-1.974C68.292,22.737,69.542,22.274,71.366,22.274z M83.708,44.711
			c-0.679,0.925-1.929,1.386-3.751,1.386h-8.592c-1.823,0-3.073-0.461-3.751-1.386c-0.68-0.925-1.018-2.763-1.018-5.515V28.329
			l9.074,5.678l9.055-5.603v10.792C84.726,41.948,84.386,43.786,83.708,44.711z"/>
		<g>
			<path fill="#FFFFFF" d="M105.156,38.847c0.012,0.189,0.021,0.4,0.028,0.637c0.007,0.234,0.01,0.572,0.01,1.015
				c0,2.786-0.538,4.845-1.615,6.174c-1.076,1.329-2.741,1.994-4.995,1.994h-2.717c-1.203,0-2.273-0.211-3.209-0.635
				c-0.938-0.425-1.66-1.028-2.166-1.815c-0.432-0.671-0.738-1.449-0.922-2.337c-0.184-0.886-0.275-2.247-0.275-4.083v-0.969v-9.48
				c0-3.393,0.573-5.836,1.719-7.33c1.146-1.496,3.011-2.242,5.595-2.242h1.463c2.558,0,4.39,0.631,5.499,1.891
				c1.107,1.26,1.662,3.34,1.662,6.239c0,0.356-0.003,0.624-0.01,0.808c-0.006,0.184-0.017,0.352-0.028,0.504h-3.002v-0.342
				c0-2.443-0.304-4.105-0.911-4.987c-0.607-0.879-1.703-1.321-3.287-1.321h-1.52c-1.607,0-2.716,0.457-3.323,1.369
				c-0.608,0.912-0.912,2.717-0.912,5.412v9.48c0,3.166,0.275,5.138,0.826,5.916c0.552,0.779,1.688,1.17,3.409,1.17h1.52
				c1.697,0,2.822-0.377,3.372-1.131c0.552-0.753,0.826-2.504,0.826-5.252v-0.703L105.156,38.847z"/>
		</g>
	</g>
</g>
</svg>
