<?xml version="1.0" encoding="utf-8"?>
<!-- Generator: Adobe Illustrator 16.0.0, SVG Export Plug-In . SVG Version: 6.00 Build 0)  -->
<!DOCTYPE svg PUBLIC "-//W3C//DTD SVG 1.1//EN" "http://www.w3.org/Graphics/SVG/1.1/DTD/svg11.dtd">
<svg version="1.1" id="Layer_1" xmlns="http://www.w3.org/2000/svg" xmlns:xlink="http://www.w3.org/1999/xlink" x="0px" y="0px"
	 width="187px" height="158.077px" viewBox="0 0 187 158.077" enable-background="new 0 0 187 158.077" xml:space="preserve">
<g>
	<g opacity="0.8">
		<g>
			<path d="M146.178,51.644C136.063,31.392,115.135,17.443,91,17.443S45.938,31.392,35.822,51.644H146.178z"/>
			<path d="M35.769,106.433C45.865,126.742,66.823,140.738,91,140.738s45.135-13.996,55.231-34.305H35.769z"/>
		</g>
		<g>
			<path d="M26.332,51.644h7.312C43.907,30.282,65.759,15.498,91,15.498c25.242,0,47.093,14.784,57.357,36.146h12.312
				c-2.011-1.47-2.528-4.077-1.029-6.659c1.981-3.417,0.373-6.205-3.578-6.198c-3.95,0.01-6.176-3.057-4.948-6.81
				c1.229-3.754-0.926-6.146-4.788-5.317c-3.861,0.831-6.677-1.704-6.255-5.632c0.42-3.927-2.184-5.82-5.79-4.206
				c-3.604,1.615-6.885-0.279-7.289-4.21c-0.406-3.928-3.347-5.237-6.538-2.909s-6.793,1.158-8.006-2.602s-4.361-4.428-6.998-1.487
				c-2.638,2.94-6.405,2.545-8.372-0.879c-1.968-3.426-5.188-3.426-7.155,0c-1.968,3.425-5.735,3.82-8.372,0.879
				c-2.638-2.94-5.787-2.272-7,1.487c-1.212,3.759-4.815,4.93-8.006,2.602c-3.19-2.328-6.132-1.019-6.536,2.909
				c-0.405,3.931-3.685,5.825-7.291,4.21c-3.605-1.615-6.21,0.278-5.789,4.206c0.421,3.929-2.394,6.463-6.256,5.632
				c-3.861-0.829-6.016,1.563-4.787,5.317c1.229,3.753-0.998,6.82-4.947,6.81c-3.951-0.007-5.561,2.781-3.578,6.198
				C28.86,47.567,28.342,50.174,26.332,51.644z"/>
			<path d="M160.668,106.433h-12.264c-10.243,21.417-32.122,36.25-57.404,36.25c-25.281,0-47.16-14.833-57.404-36.25h-7.264
				c2.011,1.47,2.528,4.077,1.03,6.659c-1.982,3.417-0.373,6.205,3.578,6.198c3.949-0.009,6.176,3.057,4.947,6.81
				c-1.229,3.754,0.926,6.146,4.787,5.317c3.863-0.831,6.677,1.704,6.256,5.632c-0.421,3.927,2.184,5.82,5.789,4.206
				c3.605-1.615,6.885,0.279,7.291,4.21c0.404,3.928,3.345,5.237,6.536,2.909c3.191-2.328,6.794-1.158,8.006,2.602
				c1.213,3.759,4.362,4.428,7,1.487c2.637-2.94,6.404-2.545,8.372,0.879c1.967,3.426,5.187,3.426,7.155,0
				c1.967-3.425,5.734-3.82,8.372-0.879c2.637,2.94,5.785,2.272,6.998-1.487s4.816-4.93,8.006-2.602
				c3.19,2.328,6.132,1.019,6.538-2.909c0.403-3.931,3.684-5.825,7.289-4.21c3.605,1.615,6.21-0.278,5.79-4.206
				c-0.422-3.929,2.394-6.463,6.255-5.632c3.862,0.829,6.017-1.563,4.788-5.317c-1.228-3.753,0.998-6.819,4.948-6.81
				c3.95,0.007,5.559-2.781,3.578-6.198C158.14,110.51,158.657,107.903,160.668,106.433z"/>
		</g>
	</g>
	<g>
		<g>
			<path fill="#FFFFFF" d="M59.438,41.653v3.093H58.54v-8.077h2.988c0.856,0,1.5,0.199,1.932,0.596
				c0.432,0.396,0.648,1.015,0.648,1.855c0,1.245-0.495,2.027-1.482,2.346l1.552,3.279h-0.992l-1.459-3.093H59.438z M61.54,40.859
				c1.097,0,1.646-0.566,1.646-1.698s-0.552-1.698-1.657-1.698h-2.089v3.396H61.54z"/>
			<path fill="#FFFFFF" d="M65.729,44.746v-8.077h4.914v0.794h-4.015v2.79h3.314v0.782h-3.314v2.917h4.015v0.793H65.729z"/>
			<path fill="#FFFFFF" d="M74.378,37.334c-1.167,0-1.75,0.44-1.75,1.319c0,0.491,0.134,0.827,0.402,1.01
				c0.269,0.183,0.813,0.366,1.634,0.548c0.821,0.183,1.402,0.42,1.745,0.712c0.342,0.292,0.514,0.772,0.514,1.441
				c0,1.657-0.86,2.486-2.58,2.486c-0.568,0-1.28-0.066-2.136-0.198l-0.42-0.058l0.094-0.747c1.058,0.14,1.863,0.21,2.416,0.21
				c1.152,0,1.728-0.541,1.728-1.622c0-0.436-0.126-0.749-0.379-0.939c-0.253-0.191-0.726-0.353-1.418-0.484
				c-0.91-0.195-1.556-0.445-1.937-0.753c-0.381-0.308-0.572-0.823-0.572-1.547c0-1.447,0.867-2.17,2.603-2.17
				c0.568,0,1.249,0.058,2.042,0.175l0.396,0.058l-0.082,0.758C75.596,37.401,74.83,37.334,74.378,37.334z"/>
			<path fill="#FFFFFF" d="M77.634,37.475v-0.806h5.835v0.806h-2.462v7.271h-0.887v-7.271H77.634z"/>
			<path fill="#FFFFFF" d="M83.353,44.746l2.217-8.077h1.961l2.217,8.077h-0.887l-0.583-2.078h-3.455l-0.583,2.078H83.353z
				 M86.248,37.439l-1.226,4.424h3.058l-1.226-4.424H86.248z"/>
			<path fill="#FFFFFF" d="M91.78,42.318c0,1.167,0.631,1.751,1.891,1.751c0.653,0,1.146-0.139,1.476-0.415
				c0.331-0.276,0.496-0.721,0.496-1.336v-5.649h0.887v5.626c0,0.903-0.239,1.556-0.718,1.961c-0.478,0.404-1.184,0.607-2.118,0.607
				c-0.933,0-1.636-0.203-2.106-0.607c-0.471-0.405-0.706-1.058-0.706-1.961v-5.626h0.898V42.318z"/>
			<path fill="#FFFFFF" d="M99.354,41.653v3.093h-0.898v-8.077h2.988c0.856,0,1.499,0.199,1.932,0.596
				c0.432,0.396,0.648,1.015,0.648,1.855c0,1.245-0.495,2.027-1.482,2.346l1.552,3.279h-0.993l-1.459-3.093H99.354z M101.456,40.859
				c1.097,0,1.645-0.566,1.645-1.698s-0.552-1.698-1.656-1.698h-2.09v3.396H101.456z"/>
			<path fill="#FFFFFF" d="M104.852,44.746l2.217-8.077h1.96l2.218,8.077h-0.886l-0.584-2.078h-3.454l-0.583,2.078H104.852z
				 M107.746,37.439l-1.226,4.424h3.059l-1.226-4.424H107.746z"/>
			<path fill="#FFFFFF" d="M112.52,44.746v-8.077h1.68l3.094,7.283h0.245v-7.283h0.886v8.077h-1.645l-3.14-7.283h-0.222v7.283
				H112.52z"/>
			<path fill="#FFFFFF" d="M119.569,37.475v-0.806h5.835v0.806h-2.462v7.271h-0.887v-7.271H119.569z"/>
		</g>
	</g>
	<g>
		<g>
			<path fill="#FFFFFF" d="M86.159,121.349h-4.925v-0.759l2.252-2.37c0.389-0.405,0.673-0.712,0.852-0.921
				c0.179-0.211,0.341-0.46,0.484-0.748c0.144-0.288,0.216-0.576,0.216-0.863c0-0.498-0.136-0.849-0.409-1.051
				c-0.272-0.202-0.696-0.304-1.271-0.304c-0.506,0-1.07,0.066-1.693,0.199l-0.303,0.057l-0.07-0.747
				c0.739-0.21,1.501-0.315,2.288-0.315c0.786,0,1.379,0.166,1.779,0.497c0.401,0.33,0.602,0.854,0.602,1.57
				c0,0.544-0.121,1.019-0.362,1.423c-0.241,0.405-0.658,0.892-1.249,1.459l-2.055,2.089h3.863V121.349z"/>
			<path fill="#FFFFFF" d="M90.221,113.517c0.638,0,1.155,0.122,1.552,0.362c0.84,0.499,1.261,1.743,1.261,3.736
				c0,1.407-0.234,2.401-0.701,2.981c-0.467,0.58-1.167,0.869-2.101,0.869c-0.934,0-1.636-0.285-2.106-0.857
				c-0.471-0.572-0.706-1.591-0.706-3.058c0-1.466,0.231-2.505,0.695-3.116C88.577,113.823,89.279,113.517,90.221,113.517z
				 M90.232,114.322c-0.443,0-0.793,0.093-1.05,0.28c-0.552,0.381-0.828,1.39-0.828,3.023c0,1.151,0.151,1.947,0.455,2.386
				c0.303,0.441,0.778,0.66,1.423,0.66c0.646,0,1.121-0.221,1.424-0.666c0.304-0.443,0.455-1.266,0.455-2.468
				c0-1.203-0.146-2.039-0.438-2.509C91.382,114.558,90.901,114.322,90.232,114.322z"/>
			<path fill="#FFFFFF" d="M98.04,113.646v7.703h-0.898v-6.7l-1.984,1.307l-0.408-0.676l2.452-1.634H98.04z"/>
			<path fill="#FFFFFF" d="M104.237,121.349v-1.506h-3.735v-0.7l2.194-5.497h0.981l-2.229,5.404h2.789v-2.404h0.899v2.404h0.98
				v0.793h-0.98v1.506H104.237z"/>
		</g>
	</g>
	<polygon opacity="0.8" points="184.439,52.934 93.5,52.934 2.561,52.934 23.561,79.039 2.561,105.144 93.5,105.144 
		184.439,105.144 163.438,79.039 	"/>
	<g>
		<path fill="#FFFFFF" d="M57.334,75.201c0,2.691-0.522,4.52-1.565,5.486c-1.043,0.969-3.173,1.452-6.391,1.452h-4.751v10.897
			h-2.772V65.04h7.523c3.217,0,5.348,0.488,6.391,1.462s1.565,2.805,1.565,5.496V75.201z M48.964,67.66h-4.336v11.897h4.336
			c2.275,0,3.736-0.25,4.382-0.754c0.648-0.503,0.972-1.444,0.972-2.829v-4.787c0-1.37-0.309-2.301-0.924-2.792
			C52.777,67.907,51.301,67.66,48.964,67.66z"/>
		<path fill="#FFFFFF" d="M100.761,93.037V65.04h2.771v12.048h1.433l8.955-12.048h3.093l-9.879,13.292l11.16,14.705h-3.488
			l-10.067-13.292h-1.207v13.292H100.761z"/>
		<path fill="#FFFFFF" d="M130.682,90.341v2.696h-12.518V65.04h12.518v2.715h-9.747v9.369h9.067v2.716h-9.067v10.502H130.682z"/>
		<path fill="#FFFFFF" d="M136.377,93.037V67.793h-5.996v-2.715h14.762v2.715h-5.995v25.244H136.377z"/>
		<path fill="#FFFFFF" d="M80.069,66.926c-1.144-1.483-2.991-2.225-5.543-2.225h-9.055c-2.563,0-4.414,0.742-5.553,2.225
			c-1.137,1.482-1.706,3.908-1.706,7.276v9.728c0,3.356,0.569,5.769,1.706,7.239c1.139,1.471,2.989,2.207,5.553,2.207h9.055
			c2.552,0,4.399-0.736,5.543-2.207c1.143-1.47,1.716-3.883,1.716-7.239v-9.728C81.785,70.834,81.212,68.408,80.069,66.926z
			 M65.812,67.472h8.356c1.772,0,2.988,0.45,3.648,1.349c0.324,0.443,0.569,1.104,0.734,1.979L70,75.995l-8.559-5.255
			c0.165-0.847,0.405-1.488,0.723-1.92C62.823,67.922,64.039,67.472,65.812,67.472z M77.816,89.294
			c-0.66,0.899-1.875,1.348-3.648,1.348h-8.356c-1.773,0-2.989-0.448-3.648-1.348c-0.661-0.899-0.99-2.687-0.99-5.364V73.36
			L70,78.883l8.807-5.449V83.93C78.806,86.607,78.476,88.395,77.816,89.294z"/>
		<g>
			<path fill="#FFFFFF" d="M98.676,83.59c0.012,0.184,0.021,0.389,0.028,0.619c0.006,0.228,0.009,0.557,0.009,0.987
				c0,2.71-0.523,4.712-1.571,6.005c-1.047,1.292-2.666,1.939-4.858,1.939h-2.643c-1.17,0-2.211-0.205-3.121-0.618
				c-0.913-0.413-1.614-1-2.106-1.766c-0.42-0.652-0.718-1.409-0.896-2.273c-0.179-0.861-0.268-2.186-0.268-3.971v-0.942V74.35
				c0-3.299,0.558-5.676,1.672-7.129c1.115-1.455,2.928-2.181,5.441-2.181h1.423c2.487,0,4.27,0.614,5.348,1.839
				c1.077,1.226,1.617,3.249,1.617,6.068c0,0.347-0.003,0.607-0.009,0.786c-0.006,0.179-0.016,0.342-0.028,0.49h-2.919v-0.333
				c0-2.376-0.295-3.993-0.886-4.851c-0.591-0.855-1.657-1.285-3.197-1.285h-1.478c-1.563,0-2.641,0.444-3.232,1.332
				c-0.592,0.887-0.887,2.643-0.887,5.264v9.221c0,3.079,0.268,4.997,0.804,5.754c0.537,0.758,1.642,1.138,3.315,1.138h1.478
				c1.651,0,2.745-0.367,3.28-1.1c0.537-0.732,0.804-2.436,0.804-5.108v-0.684L98.676,83.59z"/>
		</g>
	</g>
</g>
</svg>
