<?xml version="1.0" encoding="utf-8"?>
<!-- Generator: Adobe Illustrator 16.0.0, SVG Export Plug-In . SVG Version: 6.00 Build 0)  -->
<!DOCTYPE svg PUBLIC "-//W3C//DTD SVG 1.1//EN" "http://www.w3.org/Graphics/SVG/1.1/DTD/svg11.dtd">
<svg version="1.1" id="Layer_1" xmlns="http://www.w3.org/2000/svg" xmlns:xlink="http://www.w3.org/1999/xlink" x="0px" y="0px"
	 width="320px" height="480px" viewBox="0 0 320 480" enable-background="new 0 0 320 480" xml:space="preserve">
<rect y="-0.012" fill="#AF1B1B" width="320.022" height="397.021"/>
<g>
	<rect x="3.591" y="392.284" fill="#720F0F" width="195.863" height="1.135"/>
	<rect x="3.591" y="0.012" fill="#720F0F" width="1.134" height="393.407"/>
	<rect x="189.343" y="392.284" fill="#720F0F" width="127.157" height="1.135"/>
	<rect x="315.366" y="0.012" fill="#720F0F" width="1.134" height="393.407"/>
</g>
<g>
	<polygon fill="#720F0F" points="194.067,397.01 126.024,397.01 126.024,478.783 160.046,457.175 194.067,478.783 	"/>
	<polygon fill="#EA2424" points="194.067,476.268 160.046,454.658 126.024,476.268 126.024,393.419 194.067,393.419 	"/>
	<g display="none">
		<path display="inline" fill="#FFFFFF" d="M168.74,463.091c0,0.157-0.127,0.284-0.286,0.284h-17.385
			c-0.157,0-0.286-0.127-0.286-0.284v-1.734c0-0.157,0.128-0.284,0.286-0.284h17.385c0.159,0,0.286,0.127,0.286,0.284V463.091z"/>
		<path display="inline" fill="#FFFFFF" d="M168.74,469.884c0,0.16-0.127,0.288-0.286,0.288h-17.385
			c-0.157,0-0.286-0.128-0.286-0.288v-1.729c0-0.158,0.128-0.286,0.286-0.286h17.385c0.159,0,0.286,0.128,0.286,0.286V469.884z"/>
		<path display="inline" fill="#FFFFFF" d="M168.74,476.682c0,0.157-0.127,0.286-0.286,0.286h-17.385
			c-0.157,0-0.286-0.129-0.286-0.286v-1.734c0-0.157,0.128-0.285,0.286-0.285h17.385c0.159,0,0.286,0.128,0.286,0.285V476.682z"/>
	</g>
	<polygon fill="#720F0F" points="130.75,474.061 130.75,393.419 129.616,393.419 129.616,474.59 	"/>
	<polygon fill="#720F0F" points="189.343,474.061 189.343,393.419 190.478,393.419 190.478,474.59 	"/>
</g>
<linearGradient id="SVGID_1_" gradientUnits="userSpaceOnUse" x1="160.0459" y1="408.7646" x2="160.0459" y2="393.7375">
	<stop  offset="0" style="stop-color:#EA2424;stop-opacity:0"/>
	<stop  offset="0.152" style="stop-color:#E42323;stop-opacity:0.152"/>
	<stop  offset="0.3503" style="stop-color:#D42020;stop-opacity:0.3503"/>
	<stop  offset="0.5741" style="stop-color:#B91B1B;stop-opacity:0.5741"/>
	<stop  offset="0.8148" style="stop-color:#941515;stop-opacity:0.8148"/>
	<stop  offset="1" style="stop-color:#720F0F"/>
</linearGradient>
<rect x="126.024" y="393.419" fill="url(#SVGID_1_)" width="68.043" height="15.173"/>
</svg>
