<?xml version="1.0" encoding="utf-8"?>
<!-- Generator: Adobe Illustrator 16.0.0, SVG Export Plug-In . SVG Version: 6.00 Build 0)  -->
<!DOCTYPE svg PUBLIC "-//W3C//DTD SVG 1.1//EN" "http://www.w3.org/Graphics/SVG/1.1/DTD/svg11.dtd">
<svg version="1.1" id="Layer_1" xmlns="http://www.w3.org/2000/svg" xmlns:xlink="http://www.w3.org/1999/xlink" x="0px" y="0px"
	 width="123.5px" height="72px" viewBox="0 0 123.5 72" enable-background="new 0 0 123.5 72" xml:space="preserve">
<g>
	<path fill="#FFFFFF" d="M44.994,47.434c-5.288,0-7.932-2.902-7.932-8.706c0-2.887,0.719-5.092,2.157-6.617
		c1.438-1.525,3.499-2.287,6.185-2.287c1.965,0,3.727,0.385,5.287,1.155l-1.367,3.586c-0.729-0.294-1.408-0.534-2.036-0.722
		c-0.63-0.188-1.257-0.281-1.884-0.281c-2.412,0-3.617,1.711-3.617,5.136c0,3.322,1.205,4.983,3.617,4.983
		c0.89,0,1.717-0.119,2.477-0.356c0.76-0.238,1.519-0.611,2.279-1.117v3.965c-0.752,0.477-1.508,0.807-2.273,0.988
		C47.122,47.343,46.157,47.434,44.994,47.434z"/>
	<path fill="#FFFFFF" d="M61.782,47.434c-2.733,0-4.872-0.754-6.411-2.264c-1.541-1.51-2.309-3.646-2.309-6.412
		c0-2.847,0.711-5.047,2.133-6.602c1.424-1.555,3.391-2.333,5.903-2.333c2.401,0,4.271,0.684,5.606,2.051
		c1.337,1.368,2.006,3.257,2.006,5.668v2.248H57.756c0.051,1.316,0.441,2.346,1.171,3.084c0.729,0.74,1.753,1.109,3.068,1.109
		c1.024,0,1.99-0.106,2.902-0.318c0.911-0.213,1.862-0.553,2.856-1.019v3.586c-0.812,0.405-1.678,0.706-2.599,0.904
		C64.234,47.335,63.11,47.434,61.782,47.434z M61.129,33.121c-0.982,0-1.753,0.312-2.309,0.935
		c-0.558,0.623-0.877,1.507-0.957,2.651h6.502c-0.021-1.145-0.319-2.028-0.896-2.651S62.111,33.121,61.129,33.121z"/>
	<path fill="#FFFFFF" d="M83.268,47.13l-0.896-2.31h-0.122c-0.78,0.982-1.583,1.664-2.41,2.043c-0.823,0.381-1.899,0.57-3.227,0.57
		c-1.632,0-2.914-0.466-3.854-1.397c-0.936-0.933-1.403-2.259-1.403-3.981c0-1.803,0.629-3.132,1.89-3.988
		c1.261-0.855,3.163-1.33,5.707-1.42l2.947-0.091V35.81c0-1.722-0.881-2.583-2.644-2.583c-1.358,0-2.953,0.41-4.786,1.23
		l-1.534-3.13c1.954-1.023,4.123-1.534,6.502-1.534c2.279,0,4.026,0.496,5.242,1.489s1.823,2.501,1.823,4.528v11.32H83.268z
		 M81.899,39.26l-1.793,0.061c-1.346,0.039-2.349,0.283-3.008,0.729c-0.66,0.446-0.987,1.125-0.987,2.037
		c0,1.306,0.75,1.959,2.248,1.959c1.072,0,1.933-0.309,2.574-0.926c0.645-0.618,0.966-1.439,0.966-2.462V39.26z"/>
	<path fill="#FFFFFF" d="M106.955,47.13h-4.635v-9.922c0-1.226-0.218-2.145-0.653-2.758c-0.435-0.613-1.131-0.919-2.081-0.919
		c-1.298,0-2.233,0.433-2.811,1.299c-0.578,0.866-0.867,2.303-0.867,4.308v7.992h-4.634V30.143h3.541l0.622,2.173h0.259
		c0.517-0.821,1.228-1.441,2.133-1.861c0.908-0.42,1.938-0.631,3.094-0.631c1.975,0,3.474,0.535,4.497,1.603
		c1.024,1.069,1.535,2.611,1.535,4.627V47.13z"/>
	<path fill="#FFFFFF" d="M31.143,27.514c-1.809-1.966-4.418-2.948-7.831-2.948c-3.415,0-6.036,0.975-7.865,2.925
		c-1.827,1.95-2.741,4.773-2.741,8.471c0,3.698,0.912,6.534,2.736,8.509c1.822,1.976,4.436,2.963,7.84,2.963
		c3.402,0,6.017-0.987,7.84-2.963c1.823-1.975,2.734-4.801,2.734-8.478C33.855,32.305,32.95,29.479,31.143,27.514z M22.626,35.002
		c-2.56-1.06-4.942,1.105-4.975,1.134c-0.001-0.051-0.007-0.093-0.007-0.144c0-2.482,0.475-4.353,1.428-5.614
		c0.951-1.261,2.364-1.892,4.239-1.892c3.042,0,4.824,1.686,5.391,5.001c0.246,2.334-1.019,3.439-1.179,3.569
		C25.48,38.136,24.775,35.892,22.626,35.002z"/>
</g>
</svg>
