<?xml version="1.0" standalone="no"?>
<!DOCTYPE svg PUBLIC "-//W3C//DTD SVG 1.1//EN" "http://www.w3.org/Graphics/SVG/1.1/DTD/svg11.dtd" >
<svg xmlns="http://www.w3.org/2000/svg">
<metadata></metadata>
<defs>
<font id="FBiconsRegular" horiz-adv-x="1139" >
<font-face units-per-em="2048" ascent="1638" descent="-410" />
<missing-glyph horiz-adv-x="500" />
<glyph horiz-adv-x="0" />
<glyph horiz-adv-x="2048" />
<glyph unicode="&#x22;" horiz-adv-x="569" d="M18 -379v1976q0 48 176 71q56 0 231 1.5t818 -84.5q77 -142 77 -180l15 -3q25 0 29 3q40 -3 70 -3h47q169 0 538 109l3 -6v-884q0 -8 -168 -45q-216 -42 -366 -42q-208 5 -248 80v135l-37 3q-280 0 -870 -205q-39 -18 -55 -39v-887q0 -6 -8 -6h-245q-7 0 -7 6zM278 563 q7 0 7 -3q34 0 84 201q37 135 37 289v51q0 312 -117 496q-11 -2 -11 -25v-1009z" />
<glyph unicode="#" d="M18 1005q0 206 210 334q105 48 187 48v2q-21 0 -21 8v4q6 0 13 41q51 132 168 188q80 34 156 34q127 0 236 -93q4 -3 10 -3q47 56 101 79.5t143 23.5h5q212 0 288 -172q9 -43 36 -43q22 3 36 3h5q148 0 241 -139q29 -60 29 -110t-39 -174q197 -105 197 -285t-161 -295 q-96 -62 -210 -62h-5q-162 0 -293 139q-80 -70 -181 -96v-759q-17 -64 -70 -64h-161q-78 10 -78 71v721h-13q-75 0 -132 36q-100 -115 -251 -115t-252 144q-41 69 -41 136v14q0 28 8 62q0 33 -37 50q-124 126 -124 272z" />
<glyph unicode="$" d="M18 618q98 437 325 662q244 248 585 248h26v81q0 55 67 62q65 -6 65 -59v-84h3q191 0 471 -124q459 -249 459 -767v-19h-6q-51 120 -199 183q-61 22 -126 22h-5q-240 0 -328 -208v-3h-6q-85 208 -333 208h-18q-222 0 -307 -180q-7 -22 -12 -22h-3q-22 86 -90 137 q-99 68 -258 68t-269 -140q-28 -40 -35 -65h-6zM550 -106q15 75 68 75h11q62 0 62 -109q18 -65 58 -90q38 -15 68 -15q95 0 131 93q6 23 6 43v851q1 6 6 6h120q6 0 6 -6v-829q0 -208 -164 -283q-63 -15 -100 -15q-137 0 -222 108q-50 75 -50 171z" />
<glyph unicode="%" horiz-adv-x="1821" d="M22 18v768q0 603 593 822q191 63 398 63h3q541 0 844 -370q156 -220 156 -497v-807q0 -261 -172 -352q-71 -29 -154 -29h-12q-241 0 -314 220q-19 82 -19 140h-3q-10 -116 -91 -238q-95 -122 -235 -122h-12q-219 0 -295 196q-25 82 -25 143h-3q0 -127 -85 -241 q-87 -98 -257 -98h-7q-310 0 -310 402zM267 1087q0 -188 160 -310q80 -47 116 -47h3v3q-113 46 -113 149v2q0 106 119 146q12 6 34 6h32q105 0 150 -119q3 -15 3 -30v-8q0 -100 -112 -146v-3h3q131 36 200 134t69 229q0 226 -222 325q-69 18 -110 18q-194 0 -298 -191 q-34 -84 -34 -158zM549 727h9v3h-9v-3zM646 727h6v3h-6v-3zM1101 1069q0 -178 169 -301q83 -41 119 -41h3v3q-50 0 -109 89q-13 35 -13 54v20q0 96 119 137q12 6 35 6h31q101 0 151 -116l3 -41q0 -96 -107 -143v-3h3q129 39 193 137.5t64 213.5v9q-10 243 -225 325 q-57 18 -107 18q-194 0 -295 -188q-34 -70 -34 -140v-39zM1493 730h6v3h-6v-3z" />
<glyph unicode="&#x26;" horiz-adv-x="1366" d="M21 -124q0 44 66 127q788 1369 806 1396q62 69 130 69q99 0 178 -168q22 -32 757 -1312q61 -60 61 -103.5t-54 -61.5q-19 -5 -35 -5h-1807q-102 0 -102 48v10zM877 457q0 -97 118 -133q5 0 28 -2q90 0 137 94q8 18 8 69v471q0 102 -61 130q-36 25 -84 25 q-146 -23 -146 -130v-524zM885 105q0 -108 122 -142q14 0 23 -3q101 0 143 115q0 1 2 33q0 100 -112 140q-13 3 -23 3h-20q-49 0 -92 -43.5t-43 -102.5z" />
<glyph unicode="'" horiz-adv-x="391" d="M19 -283l197 205q-54 46 -54 96v19q0 52 109 136q178 -180 293 -301v-3q-89 -107 -137 -107h-24q-35 0 -88 56q-87 -93 -197 -203q-4 0 -99 102zM245 333q0 61 75 72q35 0 96 -74q362 -367 366 -379q5 -22 5 -27q0 -59 -62 -77h-5q-45 0 -112 82q-355 360 -355 371 q-6 11 -8 32zM367 488q0 254 67 462q0 22 190 214l189 192h3q475 -486 895 -921v-3q-361 -379 -376 -379q-46 -27 -143 -48q-194 -32 -329 -32q-496 511 -496 515zM808 1511q18 109 101 109h11q54 0 122 -85l174 -176q289 304 308 308t26 4h21q69 0 99 -88v-19 q0 -64 -91 -139l-213 -221q87 -93 197 -203q291 299 308 305.5t40 6.5h3q74 0 104 -85q0 -10 2 -24q0 -60 -98 -144l-208 -217q244 -244 249 -263t5 -36v-13q0 -83 -101 -104h-5q-58 0 -135 96q-882 903 -903 932q-13 25 -16 56z" />
<glyph unicode="(" horiz-adv-x="682" d="M18 643q0 446 341 772q295 256 662 256q483 0 788 -381q210 -284 210 -652q0 -454 -359 -788q-290 -236 -641 -236q-426 0 -746 342q-255 308 -255 687zM180 910q10 -57 10 -71t-8 -56q0 -47 79 -135q4 -52 35 -96q0 -10 -23 -41q-12 -60 -12 -96q18 -145 37 -145 q34 -27 102 -57q48 -32 48 -78q14 -43 90 -127q16 -22 16 -75q17 -21 35 -62q40 -34 78 -34q26 79 31 130q0 7 -41 88q0 20 -5 77q5 22 66 81q22 45 81 145q0 7 40 80q5 23 5 31q0 48 -162 80q-121 43 -121 81q-17 15 -50.5 15t-133.5 -49q-14 -2 -23 -2h-13q-3 0 -32 49 q-28 27 -28 46q43 9 43 39v3q0 26 -28 26h-5q-6 0 -46 -13q-15 0 -15 18q0 23 101 78q10 5 18 5q11 -18 37 -18t82 15q20 0 33 -57q31 -54 53 -54q10 60 10 83t-31 75q0 3 56 13q48 22 48 39q30 65 30 124q0 31 -33 31l-2 5v3q3 36 30 36h8q24 0 33 -21l-8 -23 q15 -52 35 -52q74 93 74 109v5q-43 35 -43 62q-22 55 -71 55q-24 2 -48 2h-25q-84 -5 -84 -18q18 -47 18 -59q-12 -11 -35 -11h-26q-7 0 -12 34v5q0 44 58 109q48 -13 63.5 -13t47.5 8q-18 86 -23 93q-282 -125 -444 -515zM738 1415q0 -64 131 -213q10 -8 23 -8q25 14 25 68 v2q0 21 -2 50q68 100 68 106q0 39 38 59q18 0 38 37h-3q-25 13 -80 13h-31q-125 0 -204 -68q0 -15 -3 -46zM1089 1174q0 -23 56 -52h10q8 28 8 34v7q0 33 -43 39q-31 -12 -31 -28zM1120 391q0 -150 81 -150t146 37q105 38 126 38q54 0 76 -83q-8 -158 -23 -158 q-20 -56 -20 -64q0 -39 30 -68q142 136 170 187q151 223 166 399q3 0 6 41q-55 0 -119 96q-21 19 -33 39l5 2h106q40 -15 43 -15q8 39 10 80q0 163 -129 386q-35 55 -68 78v-3q28 -46 78 -184q-2 0 -2 -2q-101 10 -101 23q-25 44 -54 42.5t-62 -42.5q-22 -8 -53 -13 q-32 0 -107 68q-8 0 -12 2q-51 -26 -73 -26h-18q-20 -10 -20 -48.5t10 -75.5q-5 -3 -13.5 -3t-77.5 -2q-38 -17 -38 -73v-5q0 -60 18 -60q40 -13 73 -13h25q67 0 149 114q112 -138 119 -139h5q27 0 40 69q-20 36 -20 63v5q0 29 25 41q114 -50 114 -59l61 -73q0 -72 -36 -72 q-91 -34 -106 -42q-23 -72 -70 -72h-23q-37 0 -111 46q-77 13 -134 13h-38q-99 0 -99 -54q0 -5 -15 -122q3 -32 -1 -61.5t-6 -86.5zM1190 1182q0 -33 79 -45h10q5 0 5 6q-33 39 -33 57l18 90q0 5 -5 5q-61 -22 -61 -51q-13 -29 -13 -62zM1380 1241q0 -36 65 -44h8 q87 0 126 142q-106 107 -141 107q-5 -8 -20 -91q-38 -92 -38 -106v-8z" />
<glyph unicode=")" horiz-adv-x="682" d="M245 837q0 282 250 486q178 132 386 132h5q136 0 305 -81v2q33 89 43 130q-50 25 -127 53q-23 25 -23 59q7 53 48 53q159 -32 356 -193q124 -120 173 -206q122 -211 122 -417v-23q0 -374 -335 -676q-115 -86 -215 -135.5t-268 -72.5v-13q0 -39 -3 -119q170 -137 203 -173 l3 -13q0 -4 -15 -12q-111 -3 -171 -3h-332q-44 2 -49 15v3q0 20 59 51q139 132 139 134v132q-69 2 -243 69q-126 56 -234 150q-13 23 -13 36v10q0 27 51 35h10q35 0 99 -56l28 -15q4 9 71 107v2q-202 119 -292 361q-31 90 -31 188zM578 136q151 -64 303 -64h2q313 0 554 242 q216 237 216 508v33q0 289 -254 534q-32 29 -66 53q-44 -78 -51 -132q239 -194 239 -484t-259 -494q-98 -68 -180 -92q-84 -33 -224.5 -33t-215.5 31v-3l-64 -96v-3z" />
<glyph unicode="*" horiz-adv-x="797" d="M22 865v3h754q4 0 112 325q9 18 132 380h5l242 -705h756v-3q-8 -9 -604 -444l217 -708h-2l-611 418l-611 -418h-3v2q196 634 218 706q-6 0 -605 444z" />
<glyph unicode="+" horiz-adv-x="1196" d="M21 1438q0 185 124 226q28 8 54 8q132 -6 159 -51q45 -46 45 -130q6 -17 33 -142q180 2 261 2h1177q118 0 145 -153v-572q-3 -120 -153 -144q-478 2 -803 2h-533l32 -159h1250q48 0 48 -102v-32q0 -100 -75 -100h-1347q-88 0 -88 124q-178 1108 -200 1220q-36 -3 -54 -3 h-70q-5 0 -5 6zM487 1044q29 -290 40 -290q28 -35 78 -35h1091q89 0 89 88v221q0 89 -97 89h-1112q-65 0 -86 -54q-3 -10 -3 -19zM532 -184q0 127 135 177q23 7 40 7h26q120 0 178 -132q10 -40 10 -59q0 -127 -142 -187q-31 -7 -49 -7h-13q-131 0 -178 148q-7 15 -7 43v10z M1305 -185q0 120 137 180q31 6 49 6h26q104 0 167 -121q13 -42 13 -68q0 -115 -111 -177q-36 -20 -78 -20h-4q-133 0 -189 134q-10 47 -10 66z" />
<glyph unicode="," horiz-adv-x="569" d="M137 500q0 390 317 676q160 120 250 142v-309q-283 -200 -283 -515q0 -265 217 -459q175 -136 367 -136h31q263 0 464 236q120 171 120 362q0 263 -212 459v331q246 -117 387 -367q109 -199 109 -426q0 -411 -348 -701q-246 -178 -532 -178h-8q-401 0 -684 328 q-195 251 -195 557zM913 753v768q0 110 109 147q19 3 30 3h6q96 0 133 -103q6 -11 6 -31v-795q0 -100 -111 -137q-19 -2 -36 -2q-89 0 -131 102q-6 23 -6 48z" />
<glyph unicode="-" horiz-adv-x="682" d="M18 229v13q0 31 49 73q19 28 47.5 28t239.5 -52q598 581 600 586q-577 253 -860 402l-9 12v6q7 21 113 21h19q41 0 58 -3q26 3 235 7q166 196 205 196h28q33 -22 33 -46v-6q0 -31 -88 -141l-19 -25v-3l276 -34q163 188 183 190q3 0 19 3q61 -13 61 -52q0 -19 -107 -175 q188 -39 251 -55q450 357 483 378q37 18 83 18q97 0 97 -55q4 -12 4 -28v-15q0 -93 -95 -157l-383 -352v-3q0 -12 40 -261q173 86 193 86h9q67 -11 67 -62v-12q0 -38 -153 -126q-84 -57 -85 -61q6 -207 6 -242h3q155 52 202 70h12q38 0 52 -67q0 -41 -80 -86q0 -3 -168 -123 q15 -148 14.5 -241.5t-35.5 -117.5h-19q-13 0 -58 120q-307 700 -355 822q-34 -29 -624 -555q-39 -33 -39 -40q27 -61 61 -144q0 -57 -101 -129q-16 -10 -37 -10q-41 0 -61 89q-41 107 -141 203q-170 89 -196 107q-30 32 -30 49z" />
<glyph unicode="." horiz-adv-x="569" d="M59 635q0 172 121.5 293.5t294 121.5t293.5 -121.5t121 -293.5t-121 -294t-293.5 -122t-294 122t-121.5 294zM1134 632q0 172 121.5 293t294 121t293.5 -121t121 -293t-121 -294t-293.5 -122t-294 122t-121.5 294z" />
<glyph unicode="/" horiz-adv-x="569" d="M21 471v2q626 626 841 807q57 45 71 45q-5 -403 -5 -433t-3 -61q264 -86 449 -86h15q342 0 451 294q37 120 37 236v22q0 3 3 3l-3 5v28q0 132 -47 337q136 -154 171 -330q19 -90 19 -147q0 -750 -789 -1004q-226 -63 -306 -63v-507q0 -5 -5 -5q-142 112 -519 472 q-302 300 -380 385z" />
<glyph unicode="0" horiz-adv-x="1020" d="M340 -197v1679q0 132 113 179q29 9 49 9h1044q85 0 141 -90q21 -38 21 -98v-1679q0 -134 -115 -179q-22 -9 -53 -9h-1031q-115 0 -162 125q-7 28 -7 63zM513 44h1022v1369h-1022v-1369zM768 1503q0 -4 4 -4h428q-5 56 -5 85h-427v-81zM939 -153v-23q0 -57 67 -79h20 q69 0 81 86q0 60 -71 83h-14q-59 0 -83 -67z" />
<glyph unicode="1" d="M20 8v1179l600 -536zM119 -98l601 642l300 -321l300 321l600 -642h-1801zM120 1400h1800l-900 -856zM1419 651l601 584v-1227z" />
<glyph unicode="2" d="M17 672q0 203 186 332q93 51 182 51h19q134 0 248 -106h2l617 295l-2 11v44q0 174 155 300q101 72 207 72h25q165 0 287 -153q77 -109 77 -231q0 -202 -182 -332q-96 -53 -180 -53h-29q-132 0 -250 111l-613 -294q2 -28 2 -42v-7q0 -58 -12 -97l623 -298q111 113 276 113 t286 -151q79 -111 79 -234q0 -180 -147 -306q-103 -81 -232 -81q-195 0 -320 187q-52 98 -52 185v51l2 4q-656 315 -660 315q-98 -74 -228.5 -74t-245.5 104q-120 121 -120 284z" />
<glyph unicode="3" d="M18 1034v17q0 102 150 170q89 58 229 100q287 79 553 79h126q520 0 770 -167q173 -76 173 -177v-17q0 -62 -79 -193q-13 -32 -31 -60q-461 242 -464 246q28 43 60 117q-150 115 -455 115h-72q-201 0 -448 -101v-2q0 -10 63 -131q-336 -176 -472 -242h-2 q-96 202 -98.5 217.5t-2.5 28.5zM294 26v242q39 88 168 461q74 127 259 198v60q0 98 77 129q29 7 51 7h325q116 0 140 -103q2 -9 2 -21v-5q0 -21 -2 -65q179 -82 264 -231q161 -423 166 -445v-220q0 -91 -106 -126q-29 -5 -49 -5h-1157q-93 0 -127 67q-11 35 -11 57z" />
<glyph unicode="4" d="M20 659.5q0 426.5 330 745.5q305 266 685 266q431 0 739 -336q247 -299 247 -690.5t-270 -708.5q-304 -322 -705 -322t-712 291q-314 328 -314 754.5zM170 640q0 -314 223 -572q42 87 204 261q179 169 281 218q84 54 249 109q-14 35 -67 148q-424 -125 -872 -125h-18v-39 zM188 833q3 0 3 -2q381 0 794 109q-102 185 -201 330.5t-126 179.5h-3q-80 -30 -224 -158q-130 -146 -171 -246q-38 -75 -72 -208v-5zM505 -39q271 -208 521 -208h16q119 0 330 93q-67 359 -184 662h-3q-129 -46 -242 -109q-310 -188 -438 -438zM833 1503q189 -266 323 -511 q301 117 460 325q-265 217 -563 217h-25q-72 0 -195 -31zM1224 858q36 -78 74 -168h2q111 11 251.5 11t336.5 -40v4q0 322 -175 547q-92 -108 -180 -175q-142 -101 -258 -154q-45 -17 -51 -25zM1351 549q81 -219 153 -540q14 -75 14 -82q51 27 169.5 159t175.5 395 q5 25 5 32q-173 52 -300 52t-217 -16z" />
<glyph unicode="5" d="M19 405q5 14 20 23q191 -65 259 -65h5q234 0 530 247l3 11q-197 115 -285 182q-33 31 -33 51q3 9 7 9h46q14 0 51 -5v9q0 42 -17 42q-91 31 -91 74q0 5 21.5 5.5t115.5 -5.5q-1 13 -91 64q-40 32 -40 49v4q0 3 14 14h4q74 0 200 -94q50 -23 328 -168q103 142 262 317 q132 131 207 131l13 2q131 0 287 -248q22 0 182 -5l2 -4q-2 -31 -120 -98q-65 -46 -67 -60q-31 -159 -52.5 -214t-35.5 -92h-7q0 69 -64 91q-17 4 -31 4h-7q-107 0 -264 -102q-106 -95 -134 -155q-68 -134 -68 -212t60 -144v-4q-178 -71 -274 -71q-425 0 -919 386 q-17 17 -17 31zM767 1096v4q5 11 22 11h15q26 0 67 -8h2v2q-104 85 -104 122q8 13 20 13h9q50 0 386 -144q-22 -33 -126 -167q-31 11 -280 136q-11 16 -11 31zM1224 221q0 97 136 262q142 142 268 142q55 0 91 -89q-33 -114 -140 -239q-109 -111 -215 -165q-83 -37 -89 -37 q-51 62 -51 126zM1577 1018q11 -93 76 -93q55 13 55 94t-55 95h-7q-50 0 -69 -82v-14z" />
<glyph unicode="6" d="M20 -221v1737q0 104 65 136q34 20 77 20h1729q112 0 128 -149v-1751q0 -126 -106 -154q-16 -2 -26 -2h-1720q-100 0 -137 92q-10 25 -10 71zM87 644h933v-954h864q56 0 65 70v886q-665 -2 -929 -2v954h-851q-82 -10 -82 -75v-879z" />
<glyph unicode="7" d="M18 726q0 42 64 59h476q5 -1 5 -5v-1061q0 -5 -5 -5q-223 2 -271.5 2t-97 -1t-69.5 53q-14 55 -78 718q-15 114 -24 240zM653 -222v946l2 4q21 -2 27 -2q170 0 400 421q8 372 17 372q26 57 75 57h12q82 0 166 -92q67 -77 102 -254q17 -69 17 -102v-9q0 -92 -52 -247h526 q73 -87 73 -191t-107 -153l-30 -4v-3q49 -27 80 -120q7 -33 7 -56q0 -92 -113 -130q-15 -2 -15 -7q97 -61 97 -117q0 -79 -163 -144v-5q62 -42 62 -87q0 -74 -166 -136h-820q-6 0 -71 42q-18 7 -26 7t-41 -12q-59 14 -59 22z" />
<glyph unicode="8" d="M20 984v686h494q406 0 466 -40q1009 -939 1022 -955q17 -31 17 -65v-7q0 -138 -141 -279q-577 -662 -591 -674q-47 -37 -94 -37h-22q-74 0 -162 105q-8 3 -718 688q-246 234 -252 244q-15 26 -19 334zM185 1323q0 -125 133 -174l39 -5q115 0 167 125q7 29 7 47v15 q0 108 -118 162q-26 7 -44 7h-19q-99 0 -153 -112q-12 -38 -12 -65z" />
<glyph unicode="9" d="M20 1232q0 161 158 300q168 138 338 138h18q122 0 231 -64q79 -83 1155 -1178q99 -115 99 -235v-35q0 -174 -163 -392q-179 -151 -392 -151q-111 0 -214 44l-970 870q-30 39 -30 77v20q0 34 30 43q22 13 45 13h6q62 0 163 -112q7 -1 718 -662q123 -109 186.5 -127 t103.5 -18q168 0 308 196q40 72 40 162.5t-56 191.5q-32 28 -1072 1102q-91 84 -185 84h-13q-110 0 -225 -114q-102 -74 -102 -167t137 -202q668 -622 669 -629q69 -92 151.5 -92t146.5 59q24 27 24 66q0 85 -196 252q-396 372 -404 386.5t-8 30.5v11q0 53 80 68h8 q52 0 137 -96q339 -325 458 -431q88 -117 88 -208v-18q0 -167 -254 -255q-47 -10 -81 -10h-13q-139 0 -279 150q-680 624 -731 677q-110 136 -110 255z" />
<glyph unicode=":" horiz-adv-x="569" d="M18 1539q5 0 1920 -956q81 -42 81 -44q-675 -212 -693 -215q-17 20 -837 735v-3q488 -590 646 -788q0 -5 -365.5 -121t-370.5 -116q-10 28 -381 1508zM918 73q9 9 215 66q0 2 27 10l2 -5v-410h-5q-2 8 -239 339z" />
<glyph unicode=";" horiz-adv-x="569" d="M368 -210.5q0 34.5 34 91.5q364 706 379 741q2 32 2 62v399h-30q-63 0 -86 73v18q0 64 73 84q8 3 20 3h461q93 -10 93 -94q0 -59 -71 -82q-8 -2 -20 -2h-30v-456q7 -20 236 -403.5t235 -401.5t6 -39q0 -123 -130 -171h-1035q-56 0 -119 91q-18 52 -18 86.5zM430 -212v-2 q0 -79 82 -112q386 -2 579 -2h419q33 0 66 31q32 37 32 73v23q0 17 -230.5 410t-238.5 413q-3 377 -3 518l5 2h82q32 0 32 32q0 24 -41 27h-447q-41 0 -41 -32q0 -24 32 -27h82l4 -2q-2 -117 -2 -171v-347q-27 -58 -410 -811q-2 -12 -2 -23zM489 -208q0 7 147 297t156 298 q47 41 98.5 41t127.5 -75q48 -34 95 -34t99 52v3h6l329 -579v-16q-12 -53 -50 -53h-958q-39 0 -50 53v13zM813 1407v6q0 41 54 53h3q61 -8 61 -59q-11 -60 -57 -60q-61 7 -61 60zM1018 1568v16q0 63 70 87h23q59 0 82 -68q3 -12 3 -23q-17 -85 -85 -85h-16q-51 0 -77 73z M1047 1350v2q13 55 53 55h11q46 0 55 -62q0 -47 -59 -57q-52 0 -60 62z" />
<glyph unicode="&#x3c;" horiz-adv-x="1196" d="M18 1297v5l632 367h2l352 -231v-2q-56 -39 -723 -439zM20 649v3q260 339 263 340q670 -406 721 -435v-4q-292 -344 -302 -353q-678 445 -682 449zM292 81v271h5l414 -286q277 330 300 353q320 -345 327 -350l407 285l2 -5v-273q-14 -15 -549 -347q-173 -114 -184 -114 q-709 455 -722 466zM1016 555v2l722 435h2l279 -350v-5l-691 -434h-2q-37 43 -173.5 193.5t-136.5 158.5zM1016 1433v3q6 6 350 233h3q4 0 650 -367v-5q-279 -300 -281 -300q-19 9 -722 436z" />
<glyph unicode="=" horiz-adv-x="1196" d="M18 68v600h3q533 -216 1012.5 -216t979.5 211l3 -5v-633q0 -78 -71 -112q-27 -11 -55 -11h-1744q-125 15 -125 115q-3 14 -3 51zM18 741v240q0 128 85 152q21 8 89 8h491v126q18 133 120 133h422q110 0 123 -123v-136h496q140 0 163 -80q9 -21 9 -45v-273q0 -8 -169 -67 q-489 -157 -818 -157h-35q-353 0 -965 214q-11 5 -11 8zM814 1141h400v64q0 67 -73 67h-248q-67 0 -76 -54q-3 -13 -3 -34v-43zM882 319q0 -52 65 -59h142q57 12 57 56v8q0 23 3 67q-176 -3 -259 -3h-8v-69zM882 586h3q145 -3 229 -3h35v61q-9 70 -60 70h-144q-53 0 -60 -67 q-3 -48 -3 -61z" />
<glyph unicode="&#x3e;" horiz-adv-x="1196" d="M245 808v108q0 171 3 415q-3 27 -3 94q9 74 62 151q73 73 129.5 83.5t67.5 10.5h21q136 0 218 -137q30 -49 30 -326v-52h3q211 0 515.5 1.5t338.5 -19.5q95 -46 132 -127q24 -65 24 -113v-8q0 -132 -129 -219q-22 -30 -232 -37q-110 0 -162 -3q-158 3 -309 3h-38h-151 q0 -311 24 -345q66 -148 251 -148q66 -3 132 -3h134q324 0 324 -22q61 -19 108 -86q48 -74 48 -153q0 -122 -121 -221q-76 -41 -197 -41q-204 0 -353 -5q-409 0 -622 216q-154 133 -226 390q-22 58 -22 593z" />
<glyph unicode="?" horiz-adv-x="391" d="M19 -283l197 205q-54 46 -54 96v19q0 52 109 136q178 -180 293 -301v-3q-89 -107 -137 -107h-24q-35 0 -88 56q-87 -93 -197 -203q-4 0 -99 102zM245 333q0 61 75 72q35 0 96 -74q362 -367 366 -379q5 -22 5 -27q0 -59 -62 -77h-5q-45 0 -112 82q-355 360 -355 371 q-6 11 -8 32zM367 488q0 254 67 462q0 22 190 214l189 192h3q475 -486 895 -921v-3q-361 -379 -376 -379q-46 -27 -143 -48q-194 -32 -329 -32q-496 511 -496 515zM808 1511q18 109 101 109h11q54 0 122 -85l174 -176q289 304 308 308t26 4h21q69 0 99 -88v-19 q0 -64 -91 -139l-213 -221q87 -93 197 -203q291 299 308 305.5t40 6.5h3q74 0 104 -85q0 -10 2 -24q0 -60 -98 -144l-208 -217q244 -244 249 -263t5 -36v-13q0 -83 -101 -104h-5q-58 0 -135 96q-882 903 -903 932q-13 25 -16 56z" />
<glyph unicode="@" horiz-adv-x="2079" d="M178 1393q23 137 135 137q100 -5 140 -5v17q0 40 -3 126l6 3h1132q6 -1 6 -6q-3 -74 -3 -123v-17q40 0 140 5q112 0 135 -137l-6 -90q3 -37 3 -78v-48q0 -361 -224 -679q-146 -172 -236 -224q-94 -67 -221 -123v-264q58 -134 70 -134q62 -23 62 -65v-14q0 -59 -93 -59 h-398q-93 0 -93 59v14q0 45 70 67q62 127 62 132v261q0 3 -116.5 59.5t-281.5 220.5q-283 334 -283 749v48q0 41 3 78zM304 1230q0 -278 255 -482l59 -39h3q-48 76 -104 258q-59 253 -59 418q-2 5 -2 8l-20 -3h-73q-18 0 -56 -3v-70q0 -45 -3 -87zM587 1452q14 -59 59 -59 h752q59 14 59 59v14q0 52 -70 62h-727q-49 0 -67 -40q-6 -10 -6 -22v-14zM1423 709h3q96 49 204 188q110 164 110 330q-3 46 -3 90v70q-38 3 -56 3h-73l-20 3l-2 -17q0 -219 -93 -516q-32 -83 -70 -151z" />
<glyph unicode="A" horiz-adv-x="1366" d="M219 -245v1776q0 95 110 135q19 5 45 5h1289q112 0 151 -106q5 -18 5 -34v-1480l-440 -436h-1005q-112 0 -150 106q-5 18 -5 34zM1310 56v-325q2 -36 17 -36q23 3 155 144q258 255 258 265v7q0 17 -74 17h-268q-88 0 -88 -72z" />
<glyph unicode="B" horiz-adv-x="1366" d="M18 -307h25q236 25 289 189q10 32 10 82q0 39 -6 89q10 122 63.5 188.5t135.5 105.5q83 33 120 37l371 -280q-146 -441 -555 -484q-40 -4 -81 -4q-170 0 -372 72v5zM680 459v2q90 85 90 96l-1 24q0 79 65 134q38 66 119 74q38 4 39 0q2 0 642 624q271 228 367 257l12 1 q6 0 6 -4q-18 -109 -232 -483l-471 -671q12 -14 12 -41q0 -45 -32 -124q-78 -80 -156 -88q-63 -104 -65 -104q-256 194 -395 303z" />
<glyph unicode="C" horiz-adv-x="1479" d="M20 626v34q0 400 300 719q306 292 688 292h22q380 0 686 -289q302 -320 302 -722v-29q0 -421 -330 -753q-302 -263 -658 -263h-22q-392 0 -701 307q-133 152 -180 258q-107 228 -107 446zM221 654q0 -401 322 -672q222 -161 472 -161h8q310 0 553 234q241 253 241 594 q0 385 -317 652q-222 164 -477 164h-8q-241 0 -452 -146q-342 -264 -342 -665zM898 597v579q0 74 82 86q78 -13 78 -81v-492q1 -6 5 -6h407q71 -16 71 -70v-18q0 -53 -71 -76h-404q-33 0 -86 -2q-82 38 -82 80z" />
<glyph unicode="D" horiz-adv-x="1479" d="M18 38v1081q0 102 100 139q18 4 34 4h143v133q0 5 4 5h546v-138h1040q52 0 92.5 -40.5t40.5 -106.5v-1074q0 -90 -78 -131q-27 -15 -58 -15h-1728q-81 0 -124 84q-12 24 -12 59zM295 517q0 -251 228 -410q125 -72 256 -72q237 0 395 210q84 129 84 255v31q0 220 -201 379 q-133 88 -262 88h-14q-2 0 -2 3l-5 -3h-17q-182 0 -341 -159q-121 -147 -121 -322zM433 1157h274v105h-274v-105zM466 510q0 157 143 257q76 50 172 50q154 0 257 -143q50 -82 50 -167q0 -167 -157 -272q-80 -40 -155 -40q-167 0 -267 155q-43 70 -43 160zM1550 960 q0 -99 110 -133q17 -3 28 -3q96 0 131 103q5 10 5 31v7q0 92 -102 129q-18 4 -34 4h-2q-99 0 -134 -109q-2 -17 -2 -29z" />
<glyph unicode="E" horiz-adv-x="1366" d="M19 -82q0 170 55 263q148 135 341 182q86 0 136 65q33 52 33 210q0 16 -36 57q-91 120 -91 226v175q0 138 88 251q52 53 115 53q8 0 160 -63q146 0 196 -222v-216q0 -94 -82 -201q-45 -37 -45 -47q0 -213 82 -254q23 -20 163 -47q129 -48 215.5 -113t86.5 -150 q24 -129 24 -182l-6 -3h-1429q-6 0 -6 6v10zM1149 958q51 248 193 248q127 -56 179 -60q73 -35 114 -150q9 -28 9 -38v-232q0 -48 -69 -150q-51 -45 -51 -50q0 -190 84 -223l151 -41q215 -101 215 -169q20 -51 45 -185l-6 -3h-480q-6 0 -6 6v16q0 254 -46 285 q-51 54 -211 157q6 47 6 50q0 119 -18 119q-108 117 -108 198l2 134v7q0 29 -3 81z" />
<glyph unicode="F" horiz-adv-x="1251" d="M18 1275v36q0 89 51 89h568q51 0 65 -39q4 -13 7 -33l-2 -14q0 -58 77 -78q229 3 956 5q50 -9 50 -77v-3q0 -61 -53 -75q-3 -3 -17 -3h-1218q-101 0 -135 -72q-7 -25 -12 -67q3 -15 3 -17l-142 -1029h-3q-57 18 -57 89q-121 1174 -130 1293h-3v-5h-5zM314 -32 q116 857 133 970q43 67 87 67h1369q116 0 116 -117q0 -37 -99 -398q-127 -491 -139 -525q-37 -67 -99 -67h-1331q-37 8 -37 70z" />
<glyph unicode="G" horiz-adv-x="1593" d="M314 8q0 215 178 345q75 42 139 42h12q65 0 127 -37h2q8 10 88 148q-374 488 -375 496q-166 229 -166 588q9 74 67 74l627 -915l16 2h5q592 873 628 917h2q58 -10 58 -67v-39q0 -318 -100 -459q-38 -72 -340 -451l-114 -151l105 -143h2q62 37 127 37h12q151 0 261 -174 q56 -102 56 -210v-5q0 -203 -155 -331q-84 -60 -167 -60q-182 0 -282 222q-30 91 -30 189.5t60 210.5v3q-137 138 -137 143q-61 -58 -136 -136q64 -118 64 -243q0 -199 -143 -327q-81 -62 -167 -62q-167 0 -278 192q-46 95 -46 201zM518 -3q0 -113 85 -162q12 -7 31 -7h4 q80 0 109 132q5 30 5 44q0 119 -88 169q-24 4 -30 4q-70 0 -112 -120q-4 -29 -4 -49v-11zM1293 4q0 -127 91 -174l23 -2h4q82 0 114 136q2 12 2 28v16q0 119 -97 167q-3 0 -23 2q-74 0 -109 -127z" />
<glyph unicode="H" horiz-adv-x="1479" d="M174 -157v1760q0 58 81 68h1294q70 0 89 -51q2 -13 2 -22l23 -3q25 0 126 -2q48 0 69 -66q2 -4 2 -18v-1828q-16 -66 -83 -66h-1368q-94 0 -136 56q-81 93 -99 172zM318 -162q0 -46 79 -74h1248q46 0 66 41q5 23 5 33v1666q-3 0 -76 25v-1618q0 -73 -96 -73h-1226z" />
<glyph unicode="I" horiz-adv-x="569" d="M18 1329v43q29 201 248 201h6q200 -21 224 -212v-21q-27 -205 -244 -222q-210 24 -234 211zM19 -263v1285q3 22 21 22h428q21 -3 21 -22v-1285q0 -22 -21 -22h-428q-21 0 -21 22zM638 -263v1296l21 11h448q21 -3 21 -22v-152q152 196 356 196h53q373 0 471 -436 q10 -72 10 -142v-751q0 -22 -21 -22h-398q-21 0 -21 22v686q0 294 -230 294q-220 -43 -220 -218v-762q0 -22 -21 -22h-448q-21 0 -21 22z" />
<glyph unicode="J" horiz-adv-x="1024" d="M19 595v257q4 58 39 58h83q14 0 36 3q3 -3 25 -3h10q0 103 212 344q-141 223 -141 259v16q0 32 80 39q92 0 302 -152q30 -23 32 -23h6q143 87 432 87t590 -194q295 -227 295 -558v-35q0 -303 -263 -538l-13 -10q100 -188 100 -211v-10q0 -52 -126 -100 q-213 -107 -258 -107t-63 55l-67 156h-469q-21 -33 -87 -179q-17 -13 -35 -13h-16q-129 36 -357 137q-16 18 -16 32v13l84 243q-101 61 -209 217q-15 23 -19 23h-145q-39 0 -39 71q-3 29 -3 123zM385 903q16 -71 71 -71h16q71 16 71 71v7q-7 81 -80 81h-7q-71 -16 -71 -71 v-17zM999 1260q0 -28 38 -36q16 0 100 4q226 0 405 -149q15 -10 35 -10q26 11 26 35q-33 83 -254 169q-108 32 -227.5 32t-119.5 -35q-3 0 -3 -10z" />
<glyph unicode="K" horiz-adv-x="1366" d="M18 -218q0 78 130 194v5q-20 44 -20 87v11l1061 1092q-241 242 -243.5 255.5t-2.5 20.5v18q0 43 68 100q27 36 67.5 36t123.5 -97l168 -171q90 221 107 250q102 88 209 88h25q159 0 265 -165q43 -82 43 -162q0 -137 -100 -237q-212 -101 -223 -111q244 -245 245 -258 q8 -12 8 -33q0 -45 -83 -116q-22 -26 -60 -26t-108 85l-170 173q-540 -558 -1064 -1093q-8 0 -90 29q-106 -142 -178 -142h-18q-83 0 -147 103q-13 26 -13 49v15zM101 -205v-5q0 -60 72 -85q6 0 10 -2q43 0 103 79q4 0 10 11v2q-47 22 -110 109v2h-3q-82 -73 -82 -111z M226 14q0 -60 138 -172q23 -13 38 -13h5q53 0 158 118q477 487 905 930v3q-98 104 -223 229q-1000 -1021 -1010.5 -1045t-10.5 -50z" />
<glyph unicode="L" d="M17 559v136q0 291 255 471q162 102 304 102q329 0 491 -238q73 -102 115 -206q218 -479 249 -537q45 -59 89 -88q91 -51 150 -55q128 0 200 172q16 47 16 87v11q0 136 -318 206q-173 77 -230 191q-29 66 -29 113q0 242 206 320q80 27 131 27h16q144 0 268 -152v-7 l-122 -70q-55 97 -166.5 97t-181.5 -95q-23 -41 -23 -77v-16q0 -129 167 -177q256 -95 302 -122q113 -84 113 -240q0 -292 -224 -372q-77 -25 -138 -25q-271 0 -379 252q-5 17 -276 607q-168 268 -379 268q-125 -7 -171 -23q-152 -52 -244 -222q-65 -137 -65 -236v-57 q0 -328 293 -428q92 -30 184 -30q186 0 385 259h2q77 -159 77 -163q-149 -142 -244 -175q-113 -52 -211 -52q-358 0 -504 222q-65 89 -88 193q-20 66 -20 129z" />
<glyph unicode="M" horiz-adv-x="1706" d="M18 224q17 31 63 31h139q60 0 60 29v5q0 24 -31 55q-106 145 -106 364q0 275 91 412q113 193 376 295q86 33 252 64q25 13 39 63q13 108 33 108q23 21 56 21h24q33 0 36 -38q0 -17 -36 -149q0 -10 -3 -19q0 -51 121 -103q31 -9 93 -19q15 -11 15 -24v-2q0 -50 -29 -60 q-67 -43 -132 -43h-15q-69 0 -211 136h-24q-146 0 -234 -148q-5 -59 -5 -65q0 -124 87 -165q8 -5 38 -10q115 5 176 5q252 0 421 -55q385 -103 572 -338q135 -179 135 -410v-36q0 -285 -197 -402q-87 -45 -176 -45h-12q-175 0 -673 349q-22 27 -24 27q0 -59 89 -147 q180 -158 399 -232q77 -13 77 -26v-5q-29 -31 -77 -31h-31q-139 0 -402 57l2 -4v-24q0 -28 -36 -34h-7q-88 0 -135 139q0 14 -33 29q-87 64 -238 200.5t-166 136.5h-3q-36 -1 -108 -50h-12q-79 0 -216 113q-22 23 -22 45zM920 172q0 -15 5 -56l7 5h7q1 0 31 -12t54 -13h2 q25 0 89 32q29 34 29 110.5t-34 76.5q-5 2 -27 5q-12 -2 -24 -2h-2v-10q0 -93 -84 -117q-18 -5 -34 -5h-19v-14zM922 102q0 -9 8 -29h2v3l-7 36h-3v-10z" />
<glyph unicode="N" horiz-adv-x="1479" d="M176 -233v1023q0 105 100 139q20 5 42 8q21 -66 44 -66q8 -8 34 -8h145q53 0 68 50q2 21 8 21h797q3 0 13 -39q24 -32 66 -32h149q63 7 63 42q7 29 11 29h2q101 0 139 -136q3 -4 3 -19v-1017q0 -98 -89 -134q-37 -13 -79 -13h-1353q-118 0 -155 100q-8 38 -8 52zM391 939 v8q0 354 260 593q170 131 372 131q302 0 488 -267q131 -206 131 -465l-5 -2h-139q-5 0 -5 5v16q0 292 -200 474q-120 90 -262 90h-16q-266 0 -406 -276q-68 -145 -68 -309l-6 -3h-139q-5 0 -5 5zM748 370q0 -112 123 -191q37 -15 37 -19v-249h2q29 0 142 3v244q3 6 52 26 q113 80 113 207t-123 202q-51 29 -115 29q-142 0 -216 -147q-15 -40 -15 -79v-26z" />
<glyph unicode="O" horiz-adv-x="1593" d="M159 838v9q0 45 110 98q1172 717 1181.5 720t17.5 3h15q49 0 75 -95q50 -114 50 -127v-12q0 -42 -95 -90q-580 -366 -1047 -641q-35 -25 -35 -28h1369q51 0 70 -40q5 -9 5 -19v-941q0 -47 -65 -60h-1449q-72 9 -72 63v863q0 48 -3 142q-125 126 -125 142q-2 4 -2 13z M261 843q5 0 200 -65q216 124 229 134l-204 60q-221 -127 -225 -127v-2zM359 608q150 -158 192 -197h264q-92 95 -197 197h-259zM653 1109q4 -7 204 -64q218 125 225 132l-202 60h-3q-220 -128 -224 -128zM815 608q87 -90 202 -197h259q-92 95 -197 197h-264zM1112 1374 q19 -12 91 -34t111 -31q220 127 224 127v5q-144 42 -199 62q-224 -129 -227 -129zM1349 608q92 -95 197 -197h259q-92 95 -197 197h-259z" />
<glyph unicode="P" horiz-adv-x="1366" d="M21 -384q48 176 55 184q8 -3 159 -153v-2l-212 -31q0 2 -2 2zM113 -81q74 258 87 294h2l428 -374q-217 -121 -269 -142q-232 199 -248 222zM257 286q363 381 1031 1070h2l425 -419v-3l-1028 -1041q-423 383 -430 393zM1372 1426v2q212 238 231 238q20 5 25 5h8 q47 0 114 -80q258 -246 258 -264q8 -18 10 -38q0 -50 -97 -130q-2 -4 -146 -142q-165 164 -403 409z" />
<glyph unicode="Q" horiz-adv-x="1593" d="M301 944v10q0 332 272 562q204 154 431 154h31q291 0 519 -237q184 -212 184 -479v-10q0 -327 -282 -565q-165 -117 -336 -138v-215h139q66 -9 66 -55q2 0 2 -15v-76q0 -38 -45 -55q-19 -5 -36 -5h-126v-139q0 -66 -83 -66h-35q-71 0 -71 26q-12 5 -15 60v119h-131 q-61 0 -71 45v106q11 55 56 55h151v215q-116 10 -275 95q-220 137 -312 399q-33 111 -33 209zM503 951q0 -266 234 -433q132 -83 270 -83h30q207 0 376 179q123 151 123 335v10q0 247 -224 416q-139 88 -295 88q-243 0 -413 -206q-101 -142 -101 -306z" />
<glyph unicode="R" horiz-adv-x="1479" d="M18 -156q0 63 72 171q94 111 249 111t206 -51q6 -6 6 -10h2v1218q0 129 277 164l1082 224h21q70 0 83 -121v-1432q0 -140 -189 -242q-101 -42 -208 -42q-209 0 -282 166q-14 42 -14 60q5 80 99 199q89 86 235.5 86t193.5 -51q5 -6 5 -10h3q2 186 2 290v644 q0 106 -133 106q-50 0 -436 -88.5t-475 -110.5q-106 -54 -106 -141v-1075q0 -158 -206 -259q-89 -35 -191 -35h-3q-204 0 -277 158q-16 43 -16 71z" />
<glyph unicode="S" horiz-adv-x="1366" d="M18 1011q0 277 262 467q162 95 306.5 95t289.5 -78q60 13 131 13h29q337 0 609 -257q247 -270 247 -591v-34q0 -8 55 -88q72 -133 72 -265v-7q0 -265 -241 -449q-160 -102 -311 -102h-44q-140 0 -260 76q-103 -11 -145 -11q-328 0 -593 238q-269 271 -269 618v7q0 7 4 30 q-142 178 -142 338zM508 288q0 -53 83 -109q143 -137 467 -137q263 0 438 180q61 80 61 162v13q0 208 -210 292q-70 34 -173 54q-127 15 -209 41t-102 62q-13 33 -13 56v9q0 124 199 135q131 0 285 -120q16 -13 46 -13h11q82 0 100 103v8q0 76 -129 155q-164 68 -293 68h-18 q-2 0 -2 2l-4 -2h-16q-160 0 -359 -140q-118 -104 -118 -229q0 -245 387 -320q183 -20 243 -57q82 -49 82 -122q0 -40 -42 -85q-64 -50 -184 -50h-18q-126 0 -262 81l-84 67q-26 11 -48 11q-53 0 -107 -74q-10 -23 -11 -41z" />
<glyph unicode="T" horiz-adv-x="1251" d="M18 821v305q0 5 90 37q80 37 174 121q83 104 184 301l22 86h233q6 -1 6 -5v-510h566q5 -1 5 -5v-330q0 -5 -5 -5h-566v-540q0 -206 52 -242q84 -76 253.5 -76t361.5 101h3v-326q-21 -18 -191 -68t-361 -50h-25q-174 0 -382 121q-124 101 -137 148q-41 73 -41 249v683 h-237q-5 0 -5 5zM1505 -126q0 166 175 244q50 12 84 12q158 0 240 -165q15 -50 15 -86v-15q0 -126 -126 -212q-64 -34 -121 -34h-15q-147 0 -228 147q-24 52 -24 109z" />
<glyph unicode="U" horiz-adv-x="1479" d="M256 922q13 64 91 64h9q76 0 101 -52q11 -172 39 -258q146 -377 511 -377q314 0 474 292q73 149 73 319v6q0 44 61 67q30 3 46 3h3q75 0 100 -58v-15q0 -423 -301 -675q-116 -85 -201 -106q-25 -15 -112 -31v-279h307q89 0 103 -107q0 -65 -73 -94q-12 -6 -33 -6h-885 q-106 14 -106 103q15 104 103 104h307v282q-67 0 -228 76q-235 123 -346 441q-43 139 -43 301zM600 855v399q0 269 267 392q71 24 128 24h33q191 0 332 -188q63 -107 63 -228v-390q0 -287 -273 -404q-52 -18 -137 -24q-206 0 -340 179q-73 105 -73 240z" />
<glyph unicode="V" horiz-adv-x="1366" d="M183 -261v1427q0 79 81 111q63 11 98 20q79 50 79 132v124q11 118 116 118h126q88 0 116 -78q10 -31 10 -53v-126h402v144q0 80 86 108q25 5 45 5h106q97 0 127 -88q5 -24 5 -38v-106q0 -117 71 -142q27 -10 111 -17q75 -43 75 -122v-1414q0 -97 -85 -124q-21 -5 -48 -5 h-1397q-98 0 -121 96q-3 17 -3 28zM297 -127q0 -88 78 -126q0 -5 50 -11h1152q96 0 134 89l5 30q-7 787 -7 922q0 93 -89 124q-22 7 -65 7h-1114q-121 0 -142 -108q-2 -12 -2 -33v-894zM554 1022h134v134h-126q-8 -110 -8 -134zM554 1345q9 -68 68 -68q66 13 66 63v139 q0 51 -68 63q-66 -13 -66 -63v-134zM559 512q6 4 61 10q71 16 71 83q18 38 60 38h8q50 -10 50 -40v-528q-8 -73 -48 -73h-10q-60 18 -60 73q-3 0 -3 23v166q0 74 -73 114q-48 10 -48 13q-5 107 -5 118q-3 0 -3 3zM1070 593q16 50 48 50h267q56 0 63 -45v-144q0 -71 -80 -71 q-48 -14 -48 -53v-270q0 -40 -46 -51h-15q-61 0 -61 58v266q0 58 76 58q53 21 53 75q0 48 -53 48h-149q-47 0 -55 79zM1325 1030h141v126h-141v-126zM1332 1348q9 -71 68 -71q66 14 66 61v151q0 49 -66 61q-68 -12 -68 -63v-139z" />
<glyph unicode="W" horiz-adv-x="1933" d="M129 444q0 279 203 499q228 219 518 219q207 0 390 -107l346 315h-351q-72 21 -72 77v47q0 56 53 77q12 2 24 2h516q108 0 155 -88q10 -28 10 -62v-526q0 -52 -43 -69q-12 -5 -108 -7q-57 16 -57 48h-3q3 28 3 40v327q-96 -75 -282 -262q-10 -10 -38 -48v-2 q184 -224 184 -481q0 -303 -232 -530q-216 -193 -504 -193t-514 227q-198 218 -198 497zM337 443q0 -230 186 -396q153 -122 332 -122q266 0 433 236q81 132 81 273v21q0 228 -191 392q-149 112 -320 112q-258 0 -428 -219q-93 -139 -93 -297z" />
<glyph unicode="X" horiz-adv-x="1366" d="M22 -205v1697q0 135 142 172q35 3 39 3v-512q0 -65 77 -86q726 -2 1118 -2h345q86 0 94 91v504q1 5 5 5q135 0 175 -136q3 -26 3 -39v-1713q0 -126 -150 -159q-13 0 -28 -2l-2 5v1102q0 75 -97 86h-1452q-56 0 -77 -50q-9 -17 -9 -36v-1105q0 -5 -5 -5q-130 0 -172 133 q-6 26 -6 47zM294 646q16 76 78 76q0 3 19 3h1260q77 0 94 -66q3 -10 3 -21v-934q0 -89 -103 -89h-1254q-61 0 -86 50q-8 17 -8 121.5t-3 859.5zM294 1221v365q0 81 100 81h613q78 0 100 -52q6 -18 6 -32v-347q0 -69 -81 -86h-652q-66 0 -86 71zM566 249q9 -34 36 -34h744 q29 0 39 40q0 34 -48 41h-726q-45 -7 -45 -36v-11zM569 82q0 -39 53 -39h715q48 7 48 42q-10 39 -39 39h-741q-36 -8 -36 -34v-8zM569 424q6 -39 42 -39h726q48 5 48 45q-13 36 -39 36h-735q-42 -5 -42 -34v-8zM1473 1252v318q0 97 103 97h72q100 0 100 -81v-350 q-9 -86 -91 -86h-95q-68 0 -86 68q-3 17 -3 34z" />
<glyph unicode="Y" horiz-adv-x="1366" d="M18 102v211q0 141 104 187q24 8 30 8q0 15 -2 18q4 116 72 295q68 157 198 300q280 279 581 279h18q296 0 571 -258q134 -143 178 -237q62 -108 100 -255q15 -106 22 -140q0 -4 32 -13q97 -49 97 -184v-211q0 -156 -124 -194q-6 0 -37 -6q-120 0 -162 142q-2 27 -2 43 v142q0 102 2 258q0 207 -169 437q-240 279 -506 279h-22q-226 0 -450 -227q-143 -168 -183 -324q-24 -101 -25 -147q2 -205 2 -345v-73q0 -136 -124 -179l-37 -6q-102 0 -152 111q-12 27 -12 89zM445 -21v466q0 53 50 73h22q53 0 60 -79v-455q0 -53 -37 -74q-10 -5 -30 -8 q-65 11 -65 77zM1460 -16v455q7 79 60 79h17q38 0 55 -63v-474q0 -55 -42 -73q-22 -6 -25 -6q-39 0 -60 48q-5 12 -5 34z" />
<glyph unicode="Z" horiz-adv-x="1251" d="M498 539v5q645 1103 662 1127v-3l-268 -863h665v-2l-798 -1190h-5v3q331 905 333 923h-589z" />
<glyph unicode="[" horiz-adv-x="569" />
<glyph unicode="\" horiz-adv-x="569" />
<glyph unicode="]" horiz-adv-x="569" d="M18 644q7 28 166 230q391 443 826 443q408 0 822 -438q120 -132 187 -235v-3q-52 -80 -182 -230q-420 -443 -829 -443q-488 0 -911 551q-70 102 -79 125zM713 634q0 -144 132 -242q80 -53 172 -53q160 0 262 154q38 73 38 151q0 173 -170 270q-67 29 -122 29h-24 q-128 0 -228 -120q-60 -82 -60 -179v-10zM866 634v17q0 79 84 127q37 17 65 17q105 0 146 -111q7 -20 7 -43q0 -92 -95 -139q-14 -7 -56 -12q-106 0 -148 118q-3 16 -3 26z" />
<glyph unicode="^" horiz-adv-x="961" d="M75 648q0 388 279 696q323 326 773 326q496 0 805 -387v-6q-134 -130 -439 -387q-334 -272 -343 -284q11 -11 740 -535q58 -43 59 -47q-120 -140 -214 -203q-305 -206 -616 -206h-6q-470 0 -810 387q-228 300 -228 646zM1153 1210q0 -84 104 -117q11 0 22 -2q90 0 124 97 q3 11 3 22v17q0 88 -113 117h-19q-83 0 -119 -95q-2 -14 -2 -27v-12z" />
<glyph unicode="_" d="M508 1153q0 268 242 437q131 81 279 81q228 0 404 -178q134 -151 134 -319v-27q0 -214 -231 -416q-83 -55 -143 -67v-776q0 -10 -139 -273h-6q-88 0 -188 188q-3 4 -3 10t68 153q-6 2 -70 70v3l67 69v65q-50 50 -65 70q16 18 68 59q-70 120 -70 142v8q0 124 -6 223 q-187 73 -287 260q-54 110 -54 218zM833 1448q8 -44 186 -54h16q193 9 193 56q0 53 -166 81h-46q-109 0 -177 -64q-6 -11 -6 -19zM1059 -79q0 -27 35 -33q32 8 32 33v689q0 27 -35 33q-32 -8 -32 -33v-689z" />
<glyph unicode="`" horiz-adv-x="682" d="M18 268q0 42 56 110q101 142 145 209q43 46 74 46h13q42 0 95 -69q234 -225 304 -306q37 -23 61 -23q56 0 122 143q30 46 711 1244q42 49 87 49h6q52 0 121 -60q196 -109 196 -146q7 0 10 -40v-11q0 -24 -87 -184l-793 -1498q-89 -118 -206 -118h-114q-85 0 -190 106 l-574 467q-37 39 -37 81z" />
<glyph unicode="a" d="M18 -357q0 230 80 358q206 173 431 233q151 24 195 58q81 63 81 186v17q0 36 -8 83l5 10q0 62 -29 88q-115 183 -115 316v288q11 317 186 381q27 10 58 10h10q6 0 209 -75q196 0 249 -291q2 -22 2 -38v-293q0 -187 -122 -301q-23 -15 -27 -15q-4 -54 -4 -60q4 -1 4 -5 v-35q0 -207 129 -278q30 -20 176 -46q206 -58 394 -220q55 -30 95 -396l-5 -3h-1989q-5 0 -5 5v23z" />
<glyph unicode="b" d="M226 908v44q0 224 185 447q107 109 189 154q221 117 456 117h26q203 0 402 -110q214 -128 300 -369q32 -94 32 -202v-2q0 -382 -222 -627q-177 -177 -416 -177q-160 0 -274 124q0 6 -14 21q-85 -370 -138 -466q-43 -91 -161 -248h-14q-21 0 -28 232v35q0 140 68 393 l105 444q-38 85 -38 183v11q0 188 143 279q45 21 87 21q116 0 152 -122q7 -37 7 -56q0 -79 -89 -360q-21 -69 -21 -96v-19q0 -99 112 -157q41 -14 75 -14q230 0 339 344q37 134 37 274v14q0 261 -224 388q-118 59 -267 59q-298 0 -475 -234q-105 -154 -105 -316.5t94 -263.5 q7 -19 7 -21q-30 -152 -49 -152q-15 -5 -19 -5q-55 7 -140 87q-122 145 -122 346z" />
<glyph unicode="c" horiz-adv-x="1024" d="M19 761.5q0 312.5 355 533.5q304 173 695 173q494 0 770 -271q179 -185 179 -442q0 -328 -316 -530q-262 -152 -630 -152q-84 0 -214 14q-236 -273 -650 -273q-16 0 -65 2v3q90 46 139 88q139 119 139 246v2q0 69 -55 84q-347 210 -347 522.5z" />
<glyph unicode="d" horiz-adv-x="1019" d="M359 -309v1287q0 105 107 135q10 5 31 5h686v411q0 98 52 128q29 12 47 12h7q97 0 247 2q85 0 119 -97q5 -17 5 -29v-1797q0 -90 -121 -128q-18 -5 -33 -5h-1012q-115 0 -135 76zM838 69q0 -32 48 -43h244q50 8 50 50v584q0 45 -54 50h-240q-48 -11 -48 -43v-598z" />
<glyph unicode="e" d="M18 881.5q0 292.5 210 479.5q144 107 321 107h13q280 0 462 -332q95 232 293 306q80 26 166 26h11q315 0 471 -310q55 -131 55 -270q0 -367 -756 -916q-115 -80 -243 -156q-187 110 -472 332q-531 441 -531 733.5z" />
<glyph unicode="f" horiz-adv-x="569" d="M446 682v301q1 4 5 4h223v172q0 277 110 355q165 157 452 157q111 0 345 -75q3 0 7 -7q-75 -299 -82 -299q-112 73 -183 73q-152 0 -184 -108q-9 -50 -9 -96v-172h371q5 0 5 -4q-45 -185 -75 -304l-5 -2h-296v-1057q0 -5 -5 -5h-446q-5 0 -5 5v1057h-223q-5 0 -5 5z" />
<glyph unicode="g" d="M19 63q0 302 441 397q113 22 211 22q-57 46 -57 125q0 40 21 108q-134 0 -286 79q-113 66 -161 213q-10 49 -12 91q0 150 99 294q84 99 152 128q68 41 154 56h592q4 -1 4 -5q-94 -110 -99 -110q-113 -8 -173 -8q156 -120 156 -314v-14q0 -151 -146 -297q-89 -99 -95 -152 q0 -83 182 -199q166 -124 166 -301q0 -211 -154 -346q-152 -113 -407 -113q-156 0 -341 71q-179 83 -235 228zM242 104q0 -123 175 -218q107 -51 223 -51q188 0 305 125q60 69 60 147v10q0 147 -185 245q-95 39 -180 39q-187 0 -332 -137q-66 -76 -66 -145v-15zM391 1196 q0 -204 157 -346q69 -54 135 -54q133 0 180 186q4 37 4 62v10q0 175 -132 316q-84 76 -173 76t-145 -113q-26 -58 -26 -137zM1148 1017v218q1 5 5 5h319v331q1 5 5 5h209q4 -1 4 -5v-331h322q5 -1 5 -5v-218q0 -5 -5 -5h-322v-331q0 -5 -4 -5h-209q-5 0 -5 5v331h-319 q-5 0 -5 5z" />
<glyph unicode="h" d="M18 392v2q94 124 997 1277h3q49 -69 262 -335v128q1 6 6 6h296q6 -1 6 -6v-520l430 -550v-2h-173v-771q0 -6 -6 -6h-547q-6 0 -6 6v596h-525v-596q0 -6 -6 -6h-555q-6 0 -6 6v771h-176z" />
<glyph unicode="i" horiz-adv-x="455" d="M542 -200q1 5 5 5h15q81 0 231 43v826q-18 17 -145 34q-43 14 -99 14h-2q-5 0 -5 4v185q1 5 5 5h807q4 -1 4 -5v-1079q89 -27 215 -27h20q5 -1 5 -5v-185h-1056v185zM801 1391q0 159 155 250q61 29 117 29h19q136 0 231 -132q42 -73 42 -151q0 -167 -170 -258 q-65 -23 -111 -23q-154 0 -246 143q-37 65 -37 142z" />
<glyph unicode="j" horiz-adv-x="455" d="M18 345q0 253 275 361q42 14 52 14q-3 15 -3 25q0 189 193 250q29 6 59 9q82 0 158 -56q33 104 160 219q131 101 296 101h12q267 0 409 -217q77 -143 77 -291v-42q122 -29 198 -102q115 -102 115 -257v-20q0 -108 -101 -219q-124 -102 -280 -102h-1253q-176 0 -296 122 q-71 89 -71 205z" />
<glyph unicode="k" horiz-adv-x="1024" d="M18 -100v1495q1 5 5 5h1991q5 -1 5 -5v-1495q0 -5 -5 -5h-1991q-5 0 -5 5zM193 67h1650v1159h-1650v-1159zM394 239q0 8 158 318h2q7 -7 147 -141l199 313h2l199 -195q260 398 271 405q5 0 283 -698v-2h-1261zM451 880q0 93 106 129q18 2 28 2q92 0 127 -105q2 -13 2 -26 q0 -78 -77 -118q-29 -12 -54 -12q-92 0 -127 100z" />
<glyph unicode="l" horiz-adv-x="455" d="M22 -174q0 96 101 179q277 294 287 294l318 131q-171 229 -171 473v39q0 283 230 525q150 127 259 159q127 45 240 45q320 0 559 -275q172 -220 172 -477q0 -351 -270 -588q-212 -166 -436 -166h-44q-236 0 -454 176l-135 -336q-341 -355 -350 -357q-50 -33 -100 -33h-21 q-96 0 -167 117q-18 48 -18 85v9zM840 907q0 -219 190 -369q125 -82 249 -82h18q208 0 356 200q80 129 80 263q0 233 -212 390q-115 68 -224 68h-23q-189 0 -338 -176q-96 -131 -96 -273v-21z" />
<glyph unicode="m" horiz-adv-x="1706" d="M238 923q0 323 278 568q235 180 492 180q380 0 646 -320q146 -206 146 -411v-31q0 -317 -696 -1181l-98 -113q-340 417 -557 772q-211 359 -211 536zM785 1197q0 -146 151 -219q42 -14 77 -14h10q144 0 215 149q15 41 15 75v17q0 129 -130 204q-53 24 -100 24h-3 q-146 0 -216 -144q-18 -42 -19 -92z" />
<glyph unicode="n" d="M18 1229v3q235 245 428 439h3q109 -105 523 -534v-3q-182 -191 -431 -442q-7 5 -143 147v3l188 197l-42 40l-191 -193q-8 4 -146 150v3l185 193q0 4 -45 46q-84 -90 -188 -193q-4 0 -141 144zM71 -321l76 208h3l127 -133q-9 -6 -203 -78q0 3 -3 3zM170 -41 q116 345 129 364l403 -416q-304 -116 -358 -130zM330 380q498 515 1002 1028q239 -241 428 -439q-498 -514 -1002 -1028q-238 241 -428 439zM525 380l47 -46q92 95 805 829l-48 46zM620 285q0 -4 45 -46q458 466 805 826q0 3 -45 46q-458 -466 -805 -826zM713 187l48 -46 q92 95 805 828l-48 47q-92 -95 -805 -829zM1065 155q182 191 431 442h2q405 -411 521 -537v-3q-235 -245 -428 -439h-3q-4 0 -140 144l188 197l-45 43h-3q-2 0 -185 -191h-3q-8 5 -147 151q187 193 188 196.5t-41 42.5q-85 -90 -189 -193q-8 0 -146 147zM1380 1452v2 q168 182 192 182q25 9 42 9h8q73 0 152 -101q208 -204 208 -228q9 -27 9 -49v-3q0 -75 -101 -159q0 -4 -85 -87h-3q-249 253 -422 434z" />
<glyph unicode="o" d="M20 1016v30q0 276 267 342q38 8 76 8h22q240 0 316 -192q19 -64 23 -98h4q0 144 143 241q93 53 207 53q245 0 327 -192q30 -91 30 -162q-3 -15 -3 -27l15 -64h4q101 0 101 -132v-126h106q351 279 361 279v-1074h-4l-354 305h-109v-30q0 -69 4 -166q0 -93 -113 -105h-1178 q-86 0 -121 109v759q-124 95 -124 242zM250 437q0 -196 207 -283q52 -11 90 -15q197 0 282 208q8 26 8 41h7q0 -82 110 -185q90 -64 184 -64q194 0 282 208q12 54 12 86v4q0 203 -211 282q-30 12 -64 12h-38q-152 0 -248 -166q-24 -53 -27 -83h-7q0 68 -83 170 q-98 79 -184 79h-42q-148 0 -248 -166q-23 -51 -30 -128zM491 433v8q6 56 56 56h11q38 0 53 -56q-13 -61 -53 -61h-11q-56 9 -56 53zM1078 441q15 56 53 56h11q56 -7 56 -56v-8q0 -44 -56 -53h-11q-41 0 -53 61z" />
<glyph unicode="p" d="M262 1166q0 247 136 379h7l321 -545v-5q-44 -24 -44 -82q0 -98 149 -333q125 -217 184 -292q100 -126 158 -126q17 0 39 12h3q26 -36 316 -532v-3q-37 -24 -100 -24h-24q-276 0 -603 352q-184 226 -272 387q-270 470 -270 812zM444 1571q160 100 183 100h2q55 0 90 -83 q229 -379 236 -403v-19q0 -45 -81 -81l-104 -63q-13 18 -326 549zM1258 198v3q158 97 175 97h20q41 0 85 -92q223 -369 223 -387v-10q0 -48 -94 -92q-66 -41 -93 -53q-297 496 -316 534z" />
<glyph unicode="q" d="M18 179q0 143 150 269l185 192q90 96 114 101q60 39 129 39h26q101 0 187 -84v-3q-81 -86 -154 -163q-20 5 -38 7q-77 0 -175 -120q-171 -166 -171 -192q-7 -31 -7 -46v-7q0 -74 93 -154q123 -137 157 -137q0 -5 35 -7h17q69 0 159 110q171 167 171 193q14 34 14 62v3 q0 12 -3 36q47 43 169 163q84 -89 84 -221t-138 -250q-298 -312 -314 -312q-74 -43 -152 -43q-140 0 -259 148q-246 251 -246 274q-33 67 -33 142zM629 383q0 59 75 118q497 500 515.5 506t45.5 6q73 0 103 -89q3 -4 3 -12v-22q0 -50 -87 -125q-458 -474 -466 -475 q-31 -17 -60 -17h-17q-81 0 -110 86q0 16 -2 24zM879 1041v29q0 138 166 281q255 276 279 279q74 41 145 41q144 0 279 -166q241 -230 241 -262q30 -63 30 -117v-29q0 -135 -145 -255q-296 -300 -314 -300q-72 -39 -142 -39q-114 0 -202 87q111 118 152 161l38 -3 q82 0 182 123q167 161 167 190q6 22 9 48q0 77 -98 161q-124 139 -169 139q-15 2 -30 2h-3q-72 0 -154 -103q-183 -178 -183 -204q-9 -27 -9 -51t5 -43l-159 -158h-3q-82 89 -82 189z" />
<glyph unicode="r" horiz-adv-x="682" d="M18 -119q15 240 245 265h40q217 -50 245 -265q-20 -241 -258 -266h-14q-225 36 -258 266zM18 468v420l14 28q740 0 1141 -770q109 -268 109 -517l-27 -14h-394q-19 130 -68 308q-147 316 -422 461q-184 72 -353 84zM18 1237v406l14 28q957 0 1617 -867 q367 -550 367 -1175l-27 -14h-394q-28 0 -28 28v56q0 709 -679 1245q-409 265 -829 265h-14q-27 0 -27 28z" />
<glyph unicode="s" horiz-adv-x="1024" d="M20 618v56q0 119 254 175q-143 155 -143 245q0 39 56 114q47 34 114.5 34t172.5 -38v4q-26 102 -26 181q0 120 83 150q28 22 65 22q93 0 226 -151q72 261 174 261h52q119 0 172 -261q151 147 237 147q39 0 111 -56q35 -47 35 -114t-35 -181h2q103 36 163 36h22 q106 0 143 -98q9 0 18 -52q0 -87 -142 -241q246 -57 246 -179v-54q0 -103 -252 -178v-3q75 -63 110 -120.5t35 -102.5v-9q0 -51 -60 -123q-44 -27 -113 -27t-170 27v-2q35 -107 35 -179q0 -111 -87 -150q-33 -22 -61 -22q-84 0 -235 145q-52 -259 -174 -259h-52 q-99 0 -174 257h-2q-127 -147 -217 -147h-9q-49 0 -120 62q-26 44 -26 114.5t26 178.5h-2q-95 -25 -167 -25h-7q-110 0 -137 72q-28 40 -28 80q0 94 146 230q-259 77 -259 181zM581 666q0 -237 222 -381q106 -57 219 -57q225 0 370 205q67 111 67 237q0 237 -222 381 q-105 57 -219 57q-226 0 -370 -205q-67 -111 -67 -237zM820 661v9q0 122 128 183q39 13 70 13h4q122 0 183 -124q15 -35 15 -72v-9q0 -107 -104 -171q-45 -24 -89 -24h-14q-114 0 -178 121q-15 40 -15 74z" />
<glyph unicode="t" horiz-adv-x="569" d="M18 288l6 4h7q294 -129 402 -129q16 -6 60 -6h8q172 0 278 146q6 14 6 23v11q0 32 -76 47q-291 95 -365 167q-12 17 -12 24q4 47 34 47h25q42 44 42 68v3q0 5 -23 38q-10 19 -10 30v9q6 10 14 10q123 -34 145 -38q9 4 10 8v3q0 11 -51 49l-19 23v7q12 21 34 21h13 q13 0 38 -8q3 0 6 6v9q-36 35 -36 53t32 22q94 0 257 -202l14 -4q7 0 24 77q85 291 174 427q68 112 159 143q3 2 30 1t39 -2t39 16q26 9 44 9h11q9 0 24 -13t20 -13h4q37 15 56 15h10q15 0 15 -15q0 -30 -114 -99q-32 -7 -32 -15v-2q0 -23 76 -28q171 -39 245.5 -120.5 t74.5 -185.5q14 -24 34 -24h2q20 0 66 39q109 66 131 66h5q8 -3 8 -15v-15q-34 -64 -110 -139l-47 -34q-7 -12 -13 -28q0 -13 17 -15h7q32 0 135 43l15 2q7 0 13 -13q0 -34 -70 -66q-117 -75 -150 -75q-20 0 -26 -82q-23 -167 -140 -334q-251 -334 -833 -334 q-287 0 -559 165q-76 50 -166 141q-57 62 -57 82z" />
<glyph unicode="u" d="M393 1028v3q0 345 284 547q151 93 324 93h46q289 0 491 -250q125 -177 125 -380.5t-112 -384.5q-69 -135 -125 -263q-85 -108 -85 -263v-45q0 -130 -2 -372q-127 -98 -311 -98h-16q-190 0 -295 114q-4 537 -18 537q0 28 -72 156q-36 91 -176 311q-58 100 -58 295z M659 1105q173 -335 244 -531q15 -117 56 -263q38 -69 58.5 -69t23.5 82v82h-2q0 -19 -30 -53h-5q-53 73 -53 104t50 37q41 0 46 -53h2q55 202 140.5 411t85.5 227q0 13 -16 13h-3q-24 0 -116 -56l-38 -5q-106 0 -350 87h-11q-26 0 -82 -13zM770 996q6 0 6 6q41 0 87 -35 q18 -8 37 -8h11q17 0 98 8q62 -5 79.5 -5t82.5 26h3q4 0 8 -8v-5q0 -42 -154 -364q19 -59 19 -85q-4 -11 -8 -11h-6q-46 37 -77 96zM791 -32q0 -40 51 -40h380q50 0 50 43q-6 37 -47 37h-383q-51 0 -51 -40zM791 128q0 -34 43 -40h401q32 0 37 42q-8 35 -34 35h-412 q-25 0 -35 -37zM791 -189q8 -39 35 -39h412q30 0 34 42q0 28 -39 35h-399q-34 0 -43 -38z" />
<glyph unicode="v" horiz-adv-x="1024" d="M18 1025v7q0 63 151 211q278 286 319 294q83 36 140 36q120 0 157 -185q88 -333 191 -913q42 -136 96 -136h5q28 0 67 59q255 310 310 525q10 39 10 77q0 80 -60 106q-23 7 -36 7q-43 -11 -82 -11h-21q-115 6 -115 41q0 4 -2 8q11 56 266 269q72 56 187 117q62 28 111 28 h6q85 0 157 -86q145 -129 145 -307.5t-143 -382.5q-174 -258 -415 -561.5t-354 -436.5q-117 -71 -199 -71h-15q-106 0 -159 139q-180 386 -373 966q-21 63 -34 160q-17 49 -40 49h-10q-39 0 -124 -105q-47 -53 -63 -53h-2q-5 2 -14 32q-57 72 -57 117z" />
<glyph unicode="w" horiz-adv-x="1479" d="M18 416v20q0 140 158 278q470 496 482 496q78 47 160 47q146 0 264 -147q201 -199 201 -226q38 -66 38 -145q0 -121 -88 -213q-138 107 -167 134q11 17 18 79q0 86 -75 163q-75 102 -140 116q-28 6 -53 6q-98 0 -193 -120q-357 -363 -357 -373q-29 -59 -29 -106 q0 -99 99 -181q102 -116 167 -116h11q65 0 151 86q108 130 112 131h2l138 -135v-5q-214 -238 -239 -251q-79 -52 -162 -52q-145 0 -246 129q-217 227 -217 251q-35 65 -35 134zM744 619q0 113 94 213q46 -44 154 -154q-13 -50 -13 -70q0 -41 87 -109q61 -112 79 -115 q55 -39 114 -39q102 0 191 118q320 335 320 351q22 51 22 95q0 101 -107 192q-67 79 -152 79h-11q-92 0 -164 -95l-31 -31q-103 99 -136 135q61 63 125 136q89 75 187 75h9q130 0 236 -118q180 -157 207 -190q65 -112 65 -224q0 -142 -131 -251q-410 -407 -470 -459 q-81 -50 -151 -50h-31q-120 0 -239 136q-219 214 -219 242q-35 60 -35 133z" />
<glyph unicode="x" horiz-adv-x="1024" d="M18 647l329 169l2 -5v-330l-2 -6q-326 167 -329 172zM313 -82q2 4 115 354h2q106 -105 232 -239q-10 -5 -347 -120zM313 1371q2 0 2 2q337 -115 347 -120v-3l-232 -236h-2zM430 644q0 269 212 464q172 142 380 142q269 0 460 -228q130 -173 130 -380q0 -310 -274 -512 q-156 -94 -316 -94q-264 0 -454 217q-138 175 -138 391zM855 -47l6 2h321l5 -2q-162 -335 -167 -338zM855 1333q162 335 167 338l165 -338l-5 -2h-321zM1380 30v6q125 132 229 236h6q0 -7 114 -357q-2 0 -2 -2q-340 117 -347 117zM1380 1250v6q7 0 347 117q0 -2 2 -2 q-114 -350 -114 -357h-6q-128 129 -229 236zM1688 475v330l2 6q326 -167 329 -172l-329 -169z" />
<glyph unicode="y" horiz-adv-x="1024" d="M18 -14v221q0 204 183 325q73 49 219 49h1199q157 0 227 -53q173 -117 173 -327v-213q0 -241 -221 -349q-65 -24 -133 -24h-1293q-195 0 -312 191q-42 84 -42 180zM146 1669l5 2h196q7 0 30.5 -164.5t23.5 -202.5h5v2q21 159 58 365h3q72 0 198 -4l2 -5 q-156 -566 -156 -573v-309q0 -5 -4 -5h-200q-5 0 -5 5v307q-6 31 -156 582zM229 286h69q4 0 4 -4v-520h148v520q0 4 4 4h61v145h-286v-145zM585 -45q0 -159 25 -167q23 -35 84 -35h11q50 0 86 48h2v-6q0 -11 -2 -33h158v520q0 4 -4 4h-141v-325q0 -109 -12 -112.5t-22 -3.5 q-36 0 -36 29q-2 11 -2 41v369h-147v-329zM658 1122v37q0 233 40 270q55 90 217 90h32q91 0 168 -81q47 -50 47 -193v-152q0 -196 -36 -232q-23 -47 -80 -69.5t-91 -22.5h-31q-199 0 -236 92q-30 28 -30 261zM869 1008q0 -88 23 -88q2 0 6 -2q49 0 49 35q2 41 2 72v238 q0 114 -15 114q-14 4 -25 4h-4q-34 0 -34 -42q-2 -15 -2 -46v-285zM1014 -238h141q6 37 11 37q67 -46 107 -46h7q66 0 92 75q4 28 4 83v259q0 91 -54 108q-22 6 -56.5 6t-99.5 -44h-2v191h-150v-669zM1164 -91v265q0 4 14 16h13q29 0 40 -20v-219q0 -99 -17.5 -102.5 t-26.5 -3.5q-23 0 -23 64zM1235 1001v516q1 5 4 5h198q5 -1 5 -5v-434q0 -187 12 -187l15 -5h11q35 0 35 31q2 16 2 44v551q1 5 5 5h208q4 -1 4 -5v-731q0 -4 -4 -4h-208l-5 2q3 26 3 37v9h-3q-39 -53 -84 -53h-97q-41 0 -75 44q-26 26 -26 180zM1442 -1q0 -159 31 -178 q22 -40 101 -64q21 -4 42 -4h11q144 0 173 132q2 16 2 37v61h-143v-90q0 -48 -36 -48h-2q-32 0 -32 42v165q1 4 4 4h209v53q0 129 -116 166q-39 9 -76 9q-86 0 -145 -74q-23 -31 -23 -106v-105zM1589 137v35q0 27 26 27h3q30 -2 30 -25v-37q0 -4 -4 -4h-51q-4 0 -4 4z" />
<glyph unicode="z" horiz-adv-x="1024" d="M20 93v556q1 5 5 5h176v175q1 5 5 5h176v186q1 5 5 5h181v185h-181q-5 0 -5 4v180q1 5 5 5h176q5 -1 5 -5v-182h176q4 -1 4 -5v-184h543v184q1 5 5 5h176v182q1 5 5 5h176q4 -1 4 -5v-180q0 -4 -4 -4h-181v-185q1 -5 5 -5h176q4 0 4 -4v-180h174q5 -1 5 -5v-182h179 q4 -1 4 -5v-551q0 -4 -4 -4h-179q-5 0 -5 4v367h-174v-369q0 -5 -4 -5h-179v-180q0 -4 -4 -4h-419q-5 0 -5 4v178q1 5 5 5h421v184h-904v-184h359q5 -1 5 -5v-178q0 -4 -5 -4h-357q-5 0 -5 4v180h-178q-5 0 -5 5v369h-174v-367q0 -4 -4 -4h-179q-5 0 -5 4zM568 649h176 q4 0 4 5v182h-180v-187zM1291 654q1 -5 5 -5h176v187h-181v-182z" />
<glyph unicode="{" horiz-adv-x="684" d="M21 533l3 32v168q0 126 140 164q15 3 28 3h140q137 0 184 68q32 35 179 140q178 136 187 137h89q88 -13 88 -90v-1047q0 -44 -50 -63q-12 -6 -34 -6t-98 3l-396 299q-94 41 -135 41h-149q-123 0 -162 90q-8 23 -14 61zM1276 949v3q44 87 85 175h6q217 -197 217 -477v-2 q0 -280 -214 -474q-86 146 -86 153q130 91 130 315v6q0 176 -138 301zM1573 -5q278 287 278 650t-269 649q91 136 110 157h2q325 -349 325 -801.5t-322 -799.5l-11 -8q-2 0 -113 148v5z" />
<glyph unicode="|" horiz-adv-x="532" />
<glyph unicode="}" horiz-adv-x="684" d="M506 1169.5q0 234.5 205 399.5q139 102 315 102q277 0 438 -246q71 -122 71 -261q0 -246 -164 -512q-102 -154 -261 -210q-19 -5 -20 -5v-16q0 -50 69 -115v-2l-31 -3h-240v3q71 69 71 117q0 19 -46 26q-175 63 -289 256q-118 232 -118 466.5zM985 222v10l5 3h59l8 -6 l-3 -12q0 -140 159 -262q51 -67 51 -151.5t-74 -188.5h-64q0 6 36 72q28 82 28 130q0 100 -100 169q-84 100 -105 236z" />
<glyph unicode="~" horiz-adv-x="1196" />
<glyph unicode="&#xa7;" d="M81 654q0 86 60 164t165 109q-71 68 -100 125.5t-29 122.5q0 128 100 222t276 94t281 -89t126 -258l-187 -19q-21 122 -73.5 170t-143 48t-147 -49.5t-56.5 -105.5t46 -112t249.5 -180t266.5 -176q130 -109 130 -256q0 -113 -73 -193q-42 -46 -154 -93q159 -121 159 -281 q0 -88 -50 -166.5t-144 -120t-203 -41.5q-191 0 -303 95.5t-134 265.5l181 26q28 -130 89 -182.5t164.5 -52.5t161 52t57.5 112.5t-36 103.5q-62 75 -340 245q-148 91 -206.5 142.5t-95.5 121.5t-37 156zM244 660.5q0 -59.5 46 -116.5t193.5 -144t244.5 -156 q74 38 110.5 88.5t36.5 103t-52 115.5q-53 63 -207.5 158t-221.5 149q-81 -46 -115.5 -92t-34.5 -105.5z" />
<glyph unicode="&#xad;" horiz-adv-x="682" d="M18 229v13q0 31 49 73q19 28 47.5 28t239.5 -52q598 581 600 586q-577 253 -860 402l-9 12v6q7 21 113 21h19q41 0 58 -3q26 3 235 7q166 196 205 196h28q33 -22 33 -46v-6q0 -31 -88 -141l-19 -25v-3l276 -34q163 188 183 190q3 0 19 3q61 -13 61 -52q0 -19 -107 -175 q188 -39 251 -55q450 357 483 378q37 18 83 18q97 0 97 -55q4 -12 4 -28v-15q0 -93 -95 -157l-383 -352v-3q0 -12 40 -261q173 86 193 86h9q67 -11 67 -62v-12q0 -38 -153 -126q-84 -57 -85 -61q6 -207 6 -242h3q155 52 202 70h12q38 0 52 -67q0 -41 -80 -86q0 -3 -168 -123 q15 -148 14.5 -241.5t-35.5 -117.5h-19q-13 0 -58 120q-307 700 -355 822q-34 -29 -624 -555q-39 -33 -39 -40q27 -61 61 -144q0 -57 -101 -129q-16 -10 -37 -10q-41 0 -61 89q-41 107 -141 203q-170 89 -196 107q-30 32 -30 49z" />
<glyph unicode="&#xb4;" horiz-adv-x="682" />
<glyph unicode="&#x2000;" horiz-adv-x="836" />
<glyph unicode="&#x2001;" horiz-adv-x="1672" />
<glyph unicode="&#x2002;" horiz-adv-x="836" />
<glyph unicode="&#x2003;" horiz-adv-x="1672" />
<glyph unicode="&#x2004;" horiz-adv-x="557" />
<glyph unicode="&#x2005;" horiz-adv-x="418" />
<glyph unicode="&#x2006;" horiz-adv-x="278" />
<glyph unicode="&#x2007;" horiz-adv-x="278" />
<glyph unicode="&#x2008;" horiz-adv-x="209" />
<glyph unicode="&#x2009;" horiz-adv-x="334" />
<glyph unicode="&#x200a;" horiz-adv-x="92" />
<glyph unicode="&#x2010;" horiz-adv-x="682" d="M18 229v13q0 31 49 73q19 28 47.5 28t239.5 -52q598 581 600 586q-577 253 -860 402l-9 12v6q7 21 113 21h19q41 0 58 -3q26 3 235 7q166 196 205 196h28q33 -22 33 -46v-6q0 -31 -88 -141l-19 -25v-3l276 -34q163 188 183 190q3 0 19 3q61 -13 61 -52q0 -19 -107 -175 q188 -39 251 -55q450 357 483 378q37 18 83 18q97 0 97 -55q4 -12 4 -28v-15q0 -93 -95 -157l-383 -352v-3q0 -12 40 -261q173 86 193 86h9q67 -11 67 -62v-12q0 -38 -153 -126q-84 -57 -85 -61q6 -207 6 -242h3q155 52 202 70h12q38 0 52 -67q0 -41 -80 -86q0 -3 -168 -123 q15 -148 14.5 -241.5t-35.5 -117.5h-19q-13 0 -58 120q-307 700 -355 822q-34 -29 -624 -555q-39 -33 -39 -40q27 -61 61 -144q0 -57 -101 -129q-16 -10 -37 -10q-41 0 -61 89q-41 107 -141 203q-170 89 -196 107q-30 32 -30 49z" />
<glyph unicode="&#x2011;" horiz-adv-x="682" d="M18 229v13q0 31 49 73q19 28 47.5 28t239.5 -52q598 581 600 586q-577 253 -860 402l-9 12v6q7 21 113 21h19q41 0 58 -3q26 3 235 7q166 196 205 196h28q33 -22 33 -46v-6q0 -31 -88 -141l-19 -25v-3l276 -34q163 188 183 190q3 0 19 3q61 -13 61 -52q0 -19 -107 -175 q188 -39 251 -55q450 357 483 378q37 18 83 18q97 0 97 -55q4 -12 4 -28v-15q0 -93 -95 -157l-383 -352v-3q0 -12 40 -261q173 86 193 86h9q67 -11 67 -62v-12q0 -38 -153 -126q-84 -57 -85 -61q6 -207 6 -242h3q155 52 202 70h12q38 0 52 -67q0 -41 -80 -86q0 -3 -168 -123 q15 -148 14.5 -241.5t-35.5 -117.5h-19q-13 0 -58 120q-307 700 -355 822q-34 -29 -624 -555q-39 -33 -39 -40q27 -61 61 -144q0 -57 -101 -129q-16 -10 -37 -10q-41 0 -61 89q-41 107 -141 203q-170 89 -196 107q-30 32 -30 49z" />
<glyph unicode="&#x2012;" horiz-adv-x="682" d="M18 229v13q0 31 49 73q19 28 47.5 28t239.5 -52q598 581 600 586q-577 253 -860 402l-9 12v6q7 21 113 21h19q41 0 58 -3q26 3 235 7q166 196 205 196h28q33 -22 33 -46v-6q0 -31 -88 -141l-19 -25v-3l276 -34q163 188 183 190q3 0 19 3q61 -13 61 -52q0 -19 -107 -175 q188 -39 251 -55q450 357 483 378q37 18 83 18q97 0 97 -55q4 -12 4 -28v-15q0 -93 -95 -157l-383 -352v-3q0 -12 40 -261q173 86 193 86h9q67 -11 67 -62v-12q0 -38 -153 -126q-84 -57 -85 -61q6 -207 6 -242h3q155 52 202 70h12q38 0 52 -67q0 -41 -80 -86q0 -3 -168 -123 q15 -148 14.5 -241.5t-35.5 -117.5h-19q-13 0 -58 120q-307 700 -355 822q-34 -29 -624 -555q-39 -33 -39 -40q27 -61 61 -144q0 -57 -101 -129q-16 -10 -37 -10q-41 0 -61 89q-41 107 -141 203q-170 89 -196 107q-30 32 -30 49z" />
<glyph unicode="&#x2013;" horiz-adv-x="0" d="M18 229v13q0 31 25 73q10 28 24.5 28t122.5 -52q306 581 307 586q-295 253 -440 402l-5 12v6q4 21 58 21h10q21 0 30 -3q13 3 120 7q85 196 105 196h14q17 -22 17 -46v-6q0 -31 -45 -141l-10 -25v-3l141 -34q84 188 94 190q2 0 10 3q31 -13 31 -52q0 -19 -55 -175 q96 -39 129 -55q230 357 247 378q19 18 42 18q50 0 50 -55q2 -12 2 -28v-15q0 -93 -49 -157l-196 -352v-3q0 -12 21 -261q88 86 99 86h4q35 -11 35 -62v-12q0 -38 -79 -126q-43 -57 -43 -61q3 -207 3 -242h1q80 52 104 70h6q19 0 26 -67q0 -41 -40 -86q0 -3 -86 -123 q7 -148 7 -241.5t-18 -117.5h-10q-7 0 -30 120q-157 700 -181 822q-18 -29 -320 -555q-20 -33 -20 -40q14 -61 32 -144q0 -57 -52 -129q-8 -10 -19 -10q-21 0 -31 89q-21 107 -72 203q-87 89 -101 107q-15 32 -15 49z" />
<glyph unicode="&#x2014;" horiz-adv-x="729" d="M18 229v13q0 31 50 73q20 28 49 28t245 -52q612 581 614 586q-591 253 -880 402l-9 12v6q7 21 115 21h20q42 0 59 -3q27 3 241 7q169 196 209 196h29q34 -22 34 -46v-6q0 -31 -90 -141l-20 -25v-3l283 -34q167 188 187 190q3 0 20 3q62 -13 62 -52q0 -19 -110 -175 q193 -39 257 -55q461 357 495 378q38 18 85 18q99 0 99 -55q4 -12 4 -28v-15q0 -93 -97 -157l-392 -352v-3q0 -12 41 -261q177 86 197 86h9q69 -11 69 -62v-12q0 -38 -157 -126q-86 -57 -87 -61q7 -207 7 -242h3q158 52 206 70h13q39 0 53 -67q0 -41 -82 -86q0 -3 -172 -123 q15 -148 14.5 -241.5t-35.5 -117.5h-20q-13 0 -59 120q-314 700 -364 822q-34 -29 -638 -555q-40 -33 -40 -40q27 -61 62 -144q0 -57 -103 -129q-16 -10 -38 -10q-42 0 -62 89q-42 107 -145 203q-174 89 -200 107q-31 32 -31 49z" />
<glyph unicode="&#x202f;" horiz-adv-x="334" />
<glyph unicode="&#x205f;" horiz-adv-x="418" />
<glyph unicode="&#xe000;" horiz-adv-x="1670" d="M0 0v1670h1670v-1670h-1670z" />
</font>
</defs>
</svg>
