<?xml version="1.0" encoding="utf-8"?>
<!-- Generator: Adobe Illustrator 16.0.0, SVG Export Plug-In . SVG Version: 6.00 Build 0)  -->
<!DOCTYPE svg PUBLIC "-//W3C//DTD SVG 1.1//EN" "http://www.w3.org/Graphics/SVG/1.1/DTD/svg11.dtd">
<svg version="1.1" id="Layer_1" xmlns="http://www.w3.org/2000/svg" xmlns:xlink="http://www.w3.org/1999/xlink" x="0px" y="0px"
	 width="216px" height="491.167px" viewBox="0 0 216 491.167" enable-background="new 0 0 216 491.167" xml:space="preserve">
<g id="Layer_1_1_">
	<rect display="none" fill="#0071BC" width="216" height="720"/>
	<path fill="#FFFFFF" d="M47,20.328C47,19.042,45.957,18,44.67,18H27.33C26.043,18,25,19.042,25,20.328v31.344
		C25,52.958,26.043,54,27.33,54h17.34c1.287,0,2.33-1.042,2.33-2.328V20.328z M32.115,20h7.812c0.482,0,0.875,0.517,0.875,1
		s-0.393,1-0.875,1h-7.812c-0.482,0-0.874-0.518-0.874-1S31.632,20,32.115,20z M36.021,52.355c-1.138,0-2.06-0.923-2.06-2.06
		c0-1.138,0.922-2.059,2.06-2.059s2.06,0.921,2.06,2.059C38.081,51.433,37.159,52.355,36.021,52.355z M45,47H27V24h18V47z"/>
	<path fill="#FFFFFF" d="M107,34c0,0.552-0.448,1-1,1H92c-0.552,0-1-0.448-1-1V20c0-0.552,0.448-1,1-1h14c0.552,0,1,0.448,1,1V34z"
		/>
	<path fill="#FFFFFF" d="M125,52c0,0.552-0.447,1-1,1H92c-0.552,0-1-0.448-1-1V38c0-0.552,0.448-1,1-1h32c0.553,0,1,0.448,1,1V52z"
		/>
	<path fill="#FFFFFF" d="M125,22c0,0.552-0.447,1-1,1h-14c-0.553,0-1-0.448-1-1v-2c0-0.552,0.447-1,1-1h14c0.553,0,1,0.448,1,1V22z"
		/>
	<g>
		<path fill="#FFFFFF" d="M195,22c0,0.552-0.447,1-1,1h-29c-0.553,0-1-0.448-1-1v-1c0-0.552,0.447-1,1-1h29c0.553,0,1,0.448,1,1V22z
			"/>
		<path fill="#FFFFFF" d="M195,53c0,0.552-0.447,1-1,1h-29c-0.553,0-1-0.448-1-1v-1c0-0.552,0.447-1,1-1h29c0.553,0,1,0.448,1,1V53z
			"/>
		<path fill="#FFFFFF" d="M188,30c0,0.552-0.447,1-1,1h-15c-0.553,0-1-0.448-1-1v-1c0-0.552,0.447-1,1-1h15c0.553,0,1,0.448,1,1V30z
			"/>
		<path fill="#FFFFFF" d="M188,45c0,0.552-0.447,1-1,1h-15c-0.553,0-1-0.448-1-1v-1c0-0.552,0.447-1,1-1h15c0.553,0,1,0.448,1,1V45z
			"/>
		<path fill="#FFFFFF" d="M183,38c0,0.552-0.447,1-1,1h-6c-0.553,0-1-0.448-1-1v-1c0-0.552,0.447-1,1-1h6c0.553,0,1,0.448,1,1V38z"
			/>
	</g>
	<path fill="#FFFFFF" d="M125,28c0,0.552-0.447,1-1,1h-14c-0.553,0-1-0.448-1-1v-2c0-0.552,0.447-1,1-1h14c0.553,0,1,0.448,1,1V28z"
		/>
	<path fill="#FFFFFF" d="M125,34c0,0.552-0.447,1-1,1h-14c-0.553,0-1-0.448-1-1v-2c0-0.552,0.447-1,1-1h14c0.553,0,1,0.448,1,1V34z"
		/>
	<g>
		<g>
			<path fill="#FFFFFF" d="M112,123c0,0.552-0.447,1-1,1h-6c-0.552,0-1-0.448-1-1v-17c0-0.552,0.448-1,1-1h6c0.553,0,1,0.448,1,1
				V123z M110,108c0-0.552-0.447-1-1-1h-2c-0.552,0-1,0.448-1,1v12c0,0.552,0.448,1,1,1h2c0.553,0,1-0.448,1-1V108z"/>
		</g>
		<g>
			<path fill="#FFFFFF" d="M107.999,103.039c-2.914,0-5.283-2.371-5.283-5.283c0-2.914,2.369-5.283,5.283-5.283
				s5.285,2.369,5.285,5.283C113.284,100.668,110.913,103.039,107.999,103.039z M107.999,94.734c-1.665,0-3.021,1.355-3.021,3.021
				c0,1.664,1.355,3.02,3.021,3.02s3.021-1.355,3.021-3.02S109.665,94.734,107.999,94.734z"/>
		</g>
	</g>
	<g>
		<g>
			<g>
				<g>
					<path fill="#FFFFFF" d="M191.426,123.725L178.84,115h-8.365c-3.594,0-6.475-2.758-6.475-6.352V98.623
						c0-3.594,2.881-6.623,6.475-6.623h19.049c3.595,0,6.478,3.029,6.478,6.623v10.025c0,3.594-2.883,6.352-6.478,6.352h-0.785
						L191.426,123.725z M170.475,95c-1.936,0-3.475,1.688-3.475,3.623v10.025c0,1.936,1.539,3.352,3.475,3.352h9.308l6.211,4.309
						L184.668,112h4.855c1.936,0,3.477-1.416,3.477-3.352V98.623c0-1.936-1.541-3.623-3.477-3.623H170.475z"/>
				</g>
			</g>
		</g>
	</g>
	<g>
		<path fill="#FFFFFF" d="M197,168c0-0.552-0.447-1-1-1h-32c-0.553,0-1,0.448-1,1v24c0,0.552,0.447,1,1,1h32c0.553,0,1-0.448,1-1
			V168z M180.8,177.797c-0.448,0.318-1.187,0.325-1.641,0.015l-9.914-7.012c-0.454-0.311-0.375-0.799,0.175-0.799h20.686
			c0.549,0,0.633,0.496,0.185,0.814L180.8,177.797z M174.477,177.835c0.455,0.311,0.508,0.883,0.119,1.271l-7.861,7.832
			c-0.389,0.389-0.733,0.257-0.733-0.293v-13.566c0-0.55,0.397-0.746,0.854-0.436L174.477,177.835z M176.83,180.636
			c0.389-0.389,1.078-0.453,1.531-0.143l0.828,0.566c0.455,0.311,1.191,0.304,1.641-0.016l0.79-0.563
			c0.448-0.319,1.133-0.262,1.521,0.127l8.213,8.449c0.389,0.389,0.256,0.943-0.293,0.943h-22.121c-0.551,0-0.683-0.554-0.293-0.943
			L176.83,180.636z M185.343,179.044c-0.389-0.389-0.34-0.968,0.108-1.286l7.707-5.459c0.447-0.318,0.842-0.129,0.842,0.421v13.926
			c0,0.55-0.346,0.682-0.734,0.293L185.343,179.044z"/>
	</g>
	<path fill="#FFFFFF" d="M51,172h-4v-4c0-0.552-0.448-1-1-1H21c-0.552,0-1,0.448-1,1v20c0,0.552,0.448,1,1,1h4v4
		c0,0.552,0.448,1,1,1h25c0.552,0,1-0.448,1-1v-20C52,172.448,51.552,172,51,172z M23,185v-14c0-0.55,0.45-1,1-1h19
		c0.55,0,1,0.45,1,1v14c0,0.55-0.45,1-1,1H24C23.45,186,23,185.55,23,185z M49,190c0,0.55-0.45,1-1,1H29c-0.55,0-1-0.45-1-1v-1h18
		c0.552,0,1-0.448,1-1v-13h1c0.55,0,1,0.45,1,1V190z"/>
	<path fill="#FFFFFF" d="M51.981,108.055L36.707,92.541c-0.389-0.389-1.025-0.389-1.414,0l-15.274,15.514
		C19.63,108.443,19.762,109,20.312,109h3.281c0.07,0,0.145,0,0.222,0H24c0.53,0,1,0.281,1,0.833v13c0,0.552,0.448,1.167,1,1.167h4h3
		h13c0.552,0,1-0.614,1-1.167V117v-3v-4.167c0-0.552,0.438-0.833,1-0.833h0.187c0.077,0,0.152,0,0.221,0h3.28
		C52.238,109,52.37,108.443,51.981,108.055z M26.191,105.274l9.102-9.116c0.389-0.389,1.025-0.389,1.414,0l9.103,9.116
		c0.389,0.389,0.333,0.726-0.126,0.726c-0.457,0-1.281,0-1.832,0H28.149c-0.55,0-1.375,0-1.832,0
		C25.859,106,25.803,105.663,26.191,105.274z M44,120c0,0.552-0.448,1-1,1H29c-0.552,0-1-0.448-1-1v-10c0-0.552,0.448-1,1-1h14
		c0.552,0,1,0.448,1,1V120z"/>
	<g>
		<path fill="#FFFFFF" d="M123,170h-19v-2.5c0-0.552-0.447-0.5-1-0.5h-7c-0.553,0-1-0.052-1,0.5v2.5h-2c-0.553,0-1-0.052-1,0.5v22
			c0,0.552,0.447,1.5,1,1.5h30c0.553,0,1-0.948,1-1.5v-22C124,169.948,123.553,170,123,170z M121,189.5c0,0.55-0.45,1.5-1,1.5H96
			c-0.55,0-1-0.95-1-1.5v-16c0-0.55,0.45-0.5,1-0.5h1c0.55,0,1-0.95,1-1.5v-1c0-0.55,0.45-0.5,1-0.5h1c0.55,0,1-0.05,1,0.5v1
			c0,0.55,0.45,1.5,1,1.5h18c0.55,0,1-0.05,1,0.5V189.5z"/>
		<path fill="#FFFFFF" d="M108.459,174c-4.166,0-7.542,3.376-7.542,7.542s3.376,7.542,7.542,7.542c4.165,0,7.541-3.376,7.541-7.542
			S112.624,174,108.459,174z M108.459,186.083c-2.505,0-4.542-2.037-4.542-4.542s2.037-4.542,4.542-4.542
			c2.504,0,4.541,2.037,4.541,4.542S110.963,186.083,108.459,186.083z"/>
	</g>
	<g>
		<path fill="#FFFFFF" d="M46.627,316.982c0,0.187-0.152,0.339-0.339,0.339H25.711c-0.187,0-0.338-0.152-0.338-0.339v-2.052
			c0-0.186,0.151-0.337,0.338-0.337h20.578c0.187,0,0.339,0.151,0.339,0.337L46.627,316.982L46.627,316.982z"/>
		<path fill="#FFFFFF" d="M46.627,325.024c0,0.188-0.152,0.339-0.339,0.339H25.711c-0.187,0-0.338-0.151-0.338-0.339v-2.048
			c0-0.188,0.151-0.339,0.338-0.339h20.578c0.187,0,0.339,0.15,0.339,0.339L46.627,325.024L46.627,325.024z"/>
		<path fill="#FFFFFF" d="M46.627,333.069c0,0.188-0.152,0.338-0.339,0.338H25.711c-0.187,0-0.338-0.15-0.338-0.338v-2.051
			c0-0.188,0.151-0.339,0.338-0.339h20.578c0.187,0,0.339,0.151,0.339,0.339L46.627,333.069L46.627,333.069z"/>
	</g>
	<g>
		<path fill="#FFFFFF" d="M106.605,316.869c0.133,0.133,0.133,0.348,0,0.48l-7.201,7.201c-0.133,0.131-0.346,0.131-0.479-0.002
			l-1.451-1.449c-0.131-0.133-0.131-0.346,0.002-0.479l7.201-7.201c0.131-0.132,0.346-0.133,0.477-0.001L106.605,316.869z"/>
		<path fill="#FFFFFF" d="M106.598,331.131c0.133-0.133,0.133-0.348,0-0.48l-7.201-7.201c-0.133-0.131-0.346-0.131-0.479,0.002
			l-1.451,1.449c-0.131,0.133-0.131,0.346,0.002,0.479l7.201,7.201c0.131,0.132,0.346,0.133,0.477,0.001L106.598,331.131z"/>
		<path fill="#FFFFFF" d="M118.631,325.018c0,0.188-0.152,0.339-0.338,0.339H97.715c-0.188,0-0.338-0.151-0.338-0.339v-2.048
			c0-0.188,0.15-0.339,0.338-0.339h20.578c0.186,0,0.338,0.15,0.338,0.339V325.018z"/>
	</g>
	<g>
		<path fill="#FFFFFF" d="M187.999,327.888l-3.358-3.361c0.866-2.417,0.356-5.218-1.578-7.154c-2.676-2.676-7.015-2.676-9.689,0
			s-2.676,7.014,0,9.688c1.938,1.937,4.74,2.448,7.156,1.581l3.359,3.358c0.899,0.9,2.346,0.915,3.688-0.427
			C188.915,330.233,188.898,328.788,187.999,327.888z M186.521,330.509c-0.729,0.729-1.221,0.67-1.576,0.344l-0.016,0.014
			l-2.682-2.683l-0.643-0.644v0.001l-0.74-0.739c-2.025,1.175-4.664,0.899-6.398-0.836c-2.07-2.07-2.07-5.428,0-7.498
			c2.07-2.071,5.428-2.071,7.498,0c1.748,1.746,2.014,4.408,0.813,6.44l1.125,1.126c0.009-0.014,0.015-0.029,0.023-0.043l2.939,2.94
			v0.001C187.191,329.288,187.251,329.78,186.521,330.509z"/>
		<circle fill="#FFFFFF" cx="178.171" cy="322.17" r="2.908"/>
	</g>
	<g>
		<g>
			<path fill="#A6A6A6" d="M41.712,404.361L35.421,400h-4.182c-1.795,0-3.239-1.879-3.239-3.674v-5.012
				c0-1.797,1.444-3.314,3.239-3.314h9.521c1.795,0,3.239,1.52,3.239,3.314v5.012c0,1.795-1.444,3.674-3.239,3.674h-0.394
				L41.712,404.361z"/>
		</g>
	</g>
	<path fill="#A6A6A6" d="M109.973,399.551c0,0,1.664-3.45,1.961-5.486c0.299-2.037,0.278-5.812-3.934-6.035
		c-4.212,0.225-4.231,3.998-3.933,6.035c0.297,2.036,1.962,5.486,1.962,5.486c-5.562,1.393-6.001,2.609-6.001,2.609v1.811H108h7.973
		v-1.811C115.973,402.16,115.535,400.942,109.973,399.551z"/>
	<g>
		<g>
			<rect x="172" y="392" fill="#DBDBDB" width="16" height="12"/>
			<path fill="#B7B9B9" d="M187.273,388h-14.549c-0.412,0-0.726,0.313-0.726,0.725V393h16v-4.275
				C188,388.313,187.688,388,187.273,388z"/>
		</g>
	</g>
	<g display="none">
		<g display="inline">
			<g>
				<g>
					<path fill="#0D1216" d="M96.474,278.605L89.831,274h-4.415C83.52,274,82,272.744,82,270.847v-5.291
						c0-1.896,1.52-3.556,3.416-3.556H95.47c1.897,0,3.53,1.659,3.53,3.556v5.291c0,1.897-1.633,3.153-3.53,3.153h-0.414
						L96.474,278.605z M85.416,264c-1.021,0-1.416,0.534-1.416,1.556v4.291c0,1.022,0.394,2.153,1.416,2.153h4.913l3.278,3.274
						l-0.7-3.274h2.563c1.021,0,1.53-1.131,1.53-2.153v-4.291c0-1.021-0.509-1.556-1.53-1.556H85.416z"/>
				</g>
			</g>
		</g>
	</g>
	<g>
		<path fill="none" stroke="#0D1216" stroke-miterlimit="10" d="M23.5,276.564c0,0.517-0.419,0.936-0.936,0.936h-9.129
			c-0.517,0-0.936-0.419-0.936-0.936v-5.129c0-0.517,0.419-0.936,0.936-0.936h9.129c0.517,0,0.936,0.419,0.936,0.936V276.564z"/>
		<path fill="none" stroke="#0D1216" stroke-miterlimit="10" d="M25.244,270.5c0-1-0.061-0.933-0.183-1.055l-6.62-6.926
			c-0.244-0.244-0.639-0.398-0.883-0.154l-6.62,7.157c-0.122,0.122-0.183-0.021-0.183,0.979L25.244,270.5L25.244,270.5z"/>
	</g>
	<g>
		<path fill="none" stroke="#0D1216" stroke-miterlimit="10" d="M55.5,271.334c0-0.46-0.373-0.834-0.833-0.834h-2.334
			c-0.46,0-0.833,0.374-0.833,0.834v6.332c0,0.46,0.373,0.834,0.833,0.834h2.334c0.46,0,0.833-0.374,0.833-0.834V271.334z"/>
		<circle fill="none" stroke="#0D1216" stroke-miterlimit="10" cx="53.5" cy="264.667" r="2.5"/>
	</g>
	<g>
		<path fill="none" stroke="#0D1216" stroke-miterlimit="10" d="M131.5,273.5c0,0.552-0.447,1-1,1h-13c-0.553,0-1-0.448-1-1v-10
			c0-0.552,0.447-1,1-1h13c0.553,0,1,0.448,1,1V273.5z"/>
		<path fill="none" stroke="#0D1216" stroke-miterlimit="10" d="M131,265.5h2.5c0.553,0,1,0.948,1,1.5v9c0,0.552-0.447,1.5-1,1.5
			h-12c-0.553,0-2-0.948-2-1.5v-2"/>
	</g>
	<g>
		<circle fill="none" stroke="#0D1216" stroke-miterlimit="10" cx="162" cy="271" r="4"/>
		<path fill="none" stroke="#0D1216" stroke-miterlimit="10" d="M170,264.5h-10.5V263c0-0.552-0.947-0.5-1.5-0.5h-2
			c-0.553,0-1.5-0.052-1.5,0.5v1.5H154c-0.553,0-1.5,0.948-1.5,1.5v11c0,0.552,0.947,1.5,1.5,1.5h16c0.553,0,1.5-0.948,1.5-1.5v-11
			C171.5,265.448,170.553,264.5,170,264.5z"/>
	</g>
	<g>
		<path fill="none" stroke="#0D1216" stroke-miterlimit="10" d="M191,263.5h-1c-0.553,0-1.5,0.948-1.5,1.5v11
			c0,0.552,0.947,1.5,1.5,1.5h16c0.553,0,1.5-0.948,1.5-1.5v-11c0-0.552-0.947-1.5-1.5-1.5H191z"/>
		<path fill="none" stroke="#0D1216" stroke-miterlimit="10" d="M190,264l5,5c0,0,1,1,3,1"/>
		<path fill="none" stroke="#0D1216" stroke-miterlimit="10" d="M206,264l-5,5c0,0-1,1-3,1"/>
		<line fill="none" stroke="#0D1216" stroke-miterlimit="10" x1="189" y1="277" x2="195.5" y2="270.5"/>
		<line fill="none" stroke="#0D1216" stroke-miterlimit="10" x1="206" y1="277" x2="200" y2="270.5"/>
	</g>
	<path fill="none" stroke="#0D1216" stroke-miterlimit="10" d="M95.5,262.5h-11c-1.5,0-2,0.5-2,2v7c0,1.5,0.5,2,2,2H89l5.5,3.5
		l-1.5-3.5h2.5c1.5,0,2-0.5,2-2v-7C97.5,263,97,262.5,95.5,262.5z"/>
	<g>
		<path fill="none" stroke="#FFFFFF" stroke-miterlimit="10" d="M23.5,240.564c0,0.517-0.419,0.936-0.936,0.936h-9.129
			c-0.517,0-0.936-0.419-0.936-0.936v-5.129c0-0.517,0.419-0.936,0.936-0.936h9.129c0.517,0,0.936,0.419,0.936,0.936V240.564z"/>
		<path fill="none" stroke="#FFFFFF" stroke-miterlimit="10" d="M25.244,234.5c0-1-0.061-0.933-0.183-1.055l-6.62-6.926
			c-0.244-0.244-0.639-0.398-0.883-0.154l-6.62,7.157c-0.122,0.122-0.183-0.021-0.183,0.979L25.244,234.5L25.244,234.5z"/>
	</g>
	<g>
		<path fill="none" stroke="#FFFFFF" stroke-miterlimit="10" d="M55.5,235.334c0-0.46-0.373-0.834-0.833-0.834h-2.334
			c-0.46,0-0.833,0.374-0.833,0.834v6.332c0,0.46,0.373,0.834,0.833,0.834h2.334c0.46,0,0.833-0.374,0.833-0.834V235.334z"/>
		<circle fill="none" stroke="#FFFFFF" stroke-miterlimit="10" cx="53.5" cy="228.667" r="2.5"/>
	</g>
	<g>
		<path fill="none" stroke="#FFFFFF" stroke-miterlimit="10" d="M131.5,237.5c0,0.552-0.447,1-1,1h-13c-0.553,0-1-0.448-1-1v-10
			c0-0.552,0.447-1,1-1h13c0.553,0,1,0.448,1,1V237.5z"/>
		<path fill="none" stroke="#FFFFFF" stroke-miterlimit="10" d="M131,229.5h2.5c0.553,0,1,0.948,1,1.5v9c0,0.552-0.447,1.5-1,1.5
			h-12c-0.553,0-2-0.948-2-1.5v-2"/>
	</g>
	<g>
		<circle fill="none" stroke="#FFFFFF" stroke-miterlimit="10" cx="162" cy="235" r="4"/>
		<path fill="none" stroke="#FFFFFF" stroke-miterlimit="10" d="M170,228.5h-10.5V227c0-0.552-0.947-0.5-1.5-0.5h-2
			c-0.553,0-1.5-0.052-1.5,0.5v1.5H154c-0.553,0-1.5,0.948-1.5,1.5v11c0,0.552,0.947,1.5,1.5,1.5h16c0.553,0,1.5-0.948,1.5-1.5v-11
			C171.5,229.448,170.553,228.5,170,228.5z"/>
	</g>
	<g>
		<path fill="none" stroke="#FFFFFF" stroke-miterlimit="10" d="M191,227.5h-1c-0.553,0-1.5,0.948-1.5,1.5v11
			c0,0.552,0.947,1.5,1.5,1.5h16c0.553,0,1.5-0.948,1.5-1.5v-11c0-0.552-0.947-1.5-1.5-1.5H191z"/>
		<path fill="none" stroke="#FFFFFF" stroke-miterlimit="10" d="M190,228l5,5c0,0,1,1,3,1"/>
		<path fill="none" stroke="#FFFFFF" stroke-miterlimit="10" d="M206,228l-5,5c0,0-1,1-3,1"/>
		<line fill="none" stroke="#FFFFFF" stroke-miterlimit="10" x1="189" y1="241" x2="195.5" y2="234.5"/>
		<line fill="none" stroke="#FFFFFF" stroke-miterlimit="10" x1="206" y1="241" x2="200" y2="234.5"/>
	</g>
	<path fill="none" stroke="#FFFFFF" stroke-miterlimit="10" d="M95.5,226.5h-11c-1.5,0-2,0.5-2,2v7c0,1.5,0.5,2,2,2H89l5.5,3.5
		l-1.5-3.5h2.5c1.5,0,2-0.5,2-2v-7C97.5,227,97,226.5,95.5,226.5z"/>
</g>
<g>
	<g>
		<path fill="#CB342C" d="M131.296,437.61h-1.152l-0.777,2.989l-0.809-2.989h-1.2c0.24,0.705,0.491,1.415,0.73,2.121
			c0.366,1.062,0.595,1.862,0.696,2.408v3.084h1.141v-3.084L131.296,437.61z M134.345,443.387v-1.987c0-0.606-0.105-1.05-0.32-1.337
			c-0.285-0.387-0.685-0.582-1.199-0.582c-0.512,0-0.914,0.195-1.197,0.582c-0.219,0.287-0.322,0.73-0.322,1.337v1.987
			c0,0.604,0.104,1.05,0.322,1.335c0.283,0.387,0.686,0.581,1.197,0.581c0.515,0,0.914-0.194,1.199-0.581
			C134.239,444.437,134.345,443.99,134.345,443.387z M133.315,443.58c0,0.525-0.159,0.787-0.49,0.787
			c-0.332,0-0.49-0.262-0.49-0.787v-2.387c0-0.525,0.158-0.786,0.49-0.786c0.331,0,0.49,0.261,0.49,0.786V443.58z M138.146,445.224
			v-5.674h-1.027v4.337c-0.229,0.322-0.445,0.48-0.65,0.48c-0.139,0-0.219-0.082-0.24-0.24c-0.014-0.034-0.014-0.159-0.014-0.4
			v-4.177h-1.023v4.487c0,0.399,0.033,0.672,0.091,0.843c0.102,0.287,0.331,0.423,0.662,0.423c0.374,0,0.765-0.229,1.175-0.699v0.62
			H138.146z"/>
		<g>
			<path fill="#CB342C" d="M138.698,450.984c-0.341,0-0.511,0.26-0.511,0.778v0.52h1.017v-0.52
				C139.204,451.244,139.034,450.984,138.698,450.984z"/>
			<path fill="#CB342C" d="M134.923,450.984c-0.168,0-0.338,0.08-0.508,0.247v3.423c0.17,0.169,0.34,0.25,0.508,0.25
				c0.293,0,0.441-0.25,0.441-0.757v-2.397C135.364,451.244,135.216,450.984,134.923,450.984z"/>
			<path fill="#CB342C" d="M141.185,448.13c-0.205-0.895-0.938-1.556-1.819-1.653c-2.089-0.234-4.2-0.234-6.304-0.234
				s-4.216,0-6.304,0.234c-0.882,0.098-1.614,0.759-1.819,1.653c-0.293,1.276-0.296,2.665-0.296,3.979c0,1.313,0,2.705,0.293,3.979
				c0.205,0.896,0.938,1.555,1.819,1.653c2.087,0.233,4.2,0.234,6.303,0.233c2.104,0.001,4.217,0,6.303-0.233
				c0.883-0.099,1.615-0.758,1.82-1.653c0.294-1.274,0.295-2.667,0.295-3.979C141.476,450.795,141.478,449.406,141.185,448.13z
				 M129.444,449.277h-1.219v6.473h-1.133v-6.473h-1.196v-1.061h3.548V449.277z M132.519,455.75h-1.02v-0.611
				c-0.404,0.465-0.787,0.689-1.162,0.689c-0.328,0-0.555-0.133-0.655-0.418c-0.056-0.17-0.091-0.438-0.091-0.834v-4.439h1.018
				v4.133c0,0.238,0,0.364,0.01,0.396c0.024,0.157,0.102,0.238,0.237,0.238c0.204,0,0.419-0.158,0.644-0.477v-4.291h1.02V455.75z
				 M136.382,454.067c0,0.519-0.035,0.893-0.103,1.131c-0.136,0.418-0.408,0.63-0.813,0.63c-0.361,0-0.711-0.201-1.051-0.621v0.543
				h-1.017v-7.533h1.017v2.46c0.329-0.403,0.678-0.608,1.051-0.608c0.405,0,0.678,0.213,0.813,0.634
				c0.067,0.226,0.103,0.598,0.103,1.128V454.067z M140.222,453.129h-2.034v0.995c0,0.521,0.17,0.78,0.52,0.78
				c0.249,0,0.396-0.137,0.455-0.409c0.009-0.056,0.021-0.28,0.021-0.688h1.039v0.148c0,0.326-0.013,0.553-0.021,0.655
				c-0.035,0.224-0.114,0.43-0.238,0.61c-0.281,0.406-0.698,0.607-1.23,0.607c-0.533,0-0.938-0.191-1.23-0.574
				c-0.217-0.281-0.326-0.725-0.326-1.32v-1.967c0-0.602,0.098-1.039,0.313-1.323c0.293-0.384,0.699-0.575,1.219-0.575
				c0.51,0,0.915,0.191,1.199,0.575c0.213,0.284,0.315,0.722,0.315,1.323V453.129z"/>
		</g>
	</g>
	<g>
		<path fill="#CA3730" d="M106.413,439.104c0.159,0.1,0.336,0.242,0.534,0.431c0.189,0.197,0.376,0.439,0.558,0.726
			c0.174,0.271,0.328,0.59,0.465,0.959c0.109,0.369,0.164,0.8,0.164,1.291c-0.014,0.902-0.213,1.623-0.597,2.165
			c-0.187,0.263-0.386,0.505-0.597,0.726c-0.233,0.221-0.48,0.448-0.742,0.676c-0.151,0.156-0.291,0.332-0.417,0.529
			c-0.15,0.205-0.225,0.442-0.225,0.713c0,0.264,0.077,0.48,0.231,0.652c0.131,0.164,0.258,0.308,0.381,0.432l0.856,0.7
			c0.532,0.437,0.997,0.913,1.397,1.438c0.377,0.533,0.574,1.23,0.591,2.09c0,1.223-0.54,2.304-1.619,3.248
			c-1.117,0.977-2.732,1.479-4.842,1.512c-1.766-0.016-3.084-0.393-3.955-1.127c-0.878-0.689-1.318-1.512-1.318-2.469
			c0-0.466,0.142-0.986,0.429-1.56c0.276-0.572,0.779-1.075,1.506-1.509c0.816-0.467,1.674-0.777,2.573-0.934
			c0.89-0.13,1.629-0.204,2.217-0.22c-0.182-0.24-0.344-0.495-0.486-0.768c-0.166-0.263-0.248-0.581-0.248-0.952
			c0-0.223,0.032-0.408,0.094-0.557c0.056-0.156,0.107-0.299,0.154-0.432c-0.286,0.031-0.557,0.049-0.81,0.049
			c-1.343-0.018-2.365-0.439-3.069-1.267c-0.737-0.772-1.106-1.669-1.106-2.693c0-1.239,0.521-2.361,1.567-3.37
			c0.716-0.59,1.461-0.974,2.232-1.156c0.766-0.154,1.482-0.233,2.15-0.233h5.042l-1.557,0.909H106.413z M107.386,453.617
			c0-0.641-0.208-1.198-0.625-1.673c-0.442-0.451-1.132-1.005-2.072-1.661c-0.161-0.018-0.35-0.025-0.566-0.025
			c-0.128-0.015-0.458,0-0.987,0.049c-0.522,0.074-1.056,0.193-1.603,0.358c-0.128,0.049-0.308,0.123-0.541,0.221
			c-0.232,0.106-0.469,0.259-0.71,0.456c-0.233,0.205-0.43,0.459-0.589,0.762c-0.186,0.32-0.277,0.706-0.277,1.156
			c0,0.887,0.4,1.616,1.203,2.19c0.763,0.573,1.806,0.868,3.131,0.886c1.188-0.018,2.095-0.279,2.72-0.788
			C107.081,455.047,107.386,454.404,107.386,453.617z M103.872,446.227c0.664-0.024,1.217-0.264,1.659-0.716
			c0.214-0.321,0.351-0.649,0.412-0.985c0.036-0.337,0.055-0.621,0.055-0.852c0-0.992-0.254-1.996-0.763-3.006
			c-0.238-0.484-0.552-0.88-0.941-1.182c-0.398-0.287-0.855-0.439-1.371-0.457c-0.684,0.018-1.251,0.293-1.704,0.826
			c-0.382,0.559-0.565,1.184-0.547,1.873c0,0.911,0.266,1.859,0.799,2.847c0.259,0.46,0.592,0.85,1.001,1.171
			C102.88,446.066,103.346,446.227,103.872,446.227z"/>
		<polygon fill="#CA3730" points="116.354,440.949 113.71,440.949 113.71,438.303 112.428,438.303 112.428,440.949 109.782,440.949 
			109.782,442.23 112.428,442.23 112.428,444.875 113.71,444.875 113.71,442.23 116.354,442.23 		"/>
	</g>
	<path fill="#44546B" d="M159.924,439.281v4.179h3.922v2.595h-3.922v4.241c0,0.958,0.051,1.573,0.152,1.847
		c0.102,0.27,0.289,0.487,0.566,0.65c0.365,0.221,0.783,0.33,1.254,0.33c0.838,0,1.67-0.273,2.498-0.816v2.607
		c-0.707,0.332-1.348,0.566-1.92,0.7s-1.191,0.2-1.857,0.2c-0.754,0-1.422-0.095-2.002-0.285c-0.582-0.193-1.078-0.465-1.488-0.816
		c-0.41-0.354-0.693-0.729-0.854-1.129c-0.156-0.396-0.236-0.973-0.236-1.729v-5.801h-1.828v-2.34
		c0.65-0.209,1.207-0.513,1.668-0.905c0.465-0.395,0.836-0.867,1.115-1.421c0.281-0.553,0.475-1.254,0.58-2.107H159.924z"/>
	<path fill="#CA202A" d="M185.545,438.638c-5.055,0-9.154,4.099-9.154,9.154c0,3.749,2.254,6.97,5.48,8.386
		c-0.025-0.641-0.005-1.408,0.158-2.102c0.176-0.744,1.178-4.989,1.178-4.989s-0.292-0.585-0.292-1.448
		c0-1.355,0.788-2.369,1.767-2.369c0.832,0,1.234,0.624,1.234,1.373c0,0.838-0.534,2.089-0.809,3.248
		c-0.229,0.971,0.487,1.764,1.443,1.764c1.735,0,2.904-2.227,2.904-4.867c0-2.006-1.352-3.508-3.81-3.508
		c-2.776,0-4.507,2.071-4.507,4.384c0,0.798,0.236,1.36,0.604,1.796c0.17,0.201,0.193,0.28,0.131,0.51
		c-0.043,0.17-0.145,0.574-0.186,0.734c-0.061,0.232-0.249,0.315-0.458,0.23c-1.28-0.522-1.874-1.923-1.874-3.498
		c0-2.6,2.191-5.719,6.542-5.719c3.495,0,5.796,2.529,5.796,5.245c0,3.591-1.998,6.274-4.939,6.274c-0.99,0-1.919-0.536-2.236-1.143
		c0,0-0.533,2.109-0.645,2.518c-0.195,0.705-0.574,1.411-0.922,1.961c0.822,0.242,1.693,0.375,2.594,0.375
		c5.057,0,9.154-4.098,9.154-9.155C194.699,442.736,190.602,438.638,185.545,438.638z"/>
	<path fill="#3A5A97" d="M33.088,450.277l0.498-3.855h-3.819v-2.463c0-1.115,0.312-1.877,1.912-1.877l2.041-0.001v-3.448
		c-0.353-0.047-1.563-0.15-2.975-0.15c-2.944,0-4.958,1.796-4.958,5.096v2.844h-3.33v3.855h3.33v9.893h3.98v-9.893H33.088z"/>
	<g>
		<path fill="#027BB5" d="M72.249,444.908h3.571v11.473h-3.571V444.908z M74.036,439.205c1.141,0,2.067,0.927,2.067,2.067
			s-0.926,2.067-2.067,2.067c-1.146,0-2.07-0.927-2.07-2.067S72.89,439.205,74.036,439.205"/>
		<path fill="#027BB5" d="M78.059,444.908h3.421v1.568h0.048c0.476-0.902,1.64-1.854,3.376-1.854c3.61,0,4.278,2.376,4.278,5.465
			v6.293h-3.564v-5.577c0-1.332-0.027-3.043-1.855-3.043c-1.856,0-2.14,1.448-2.14,2.944v5.676h-3.563V444.908z"/>
	</g>
	<path fill="#2AA3DC" d="M62.768,442.561c-0.622,0.275-1.289,0.46-1.988,0.544c0.714-0.429,1.263-1.106,1.521-1.915
		c-0.667,0.396-1.408,0.686-2.197,0.84c-0.631-0.673-1.532-1.094-2.527-1.094c-1.912,0-3.462,1.552-3.462,3.463
		c0,0.272,0.03,0.535,0.089,0.788c-2.877-0.144-5.428-1.521-7.136-3.617c-0.297,0.513-0.468,1.106-0.468,1.741
		c0,1.201,0.611,2.262,1.539,2.881c-0.567-0.018-1.101-0.174-1.567-0.433v0.044c0,1.678,1.193,3.076,2.776,3.395
		c-0.29,0.078-0.596,0.122-0.912,0.122c-0.222,0-0.44-0.022-0.651-0.063c0.44,1.377,1.718,2.376,3.233,2.404
		c-1.184,0.929-2.676,1.482-4.299,1.482c-0.279,0-0.554-0.017-0.826-0.049c1.532,0.982,3.352,1.555,5.308,1.555
		c6.367,0,9.849-5.273,9.849-9.848c0-0.15-0.004-0.301-0.009-0.449C61.716,443.863,62.303,443.254,62.768,442.561z"/>
	<g>
		<path fill="#FFFFFF" d="M131.296,466.135h-1.152l-0.777,2.989l-0.809-2.989h-1.2c0.24,0.705,0.491,1.415,0.73,2.12
			c0.366,1.062,0.595,1.862,0.696,2.409v3.084h1.141v-3.084L131.296,466.135z M134.345,471.91v-1.986c0-0.607-0.105-1.05-0.32-1.338
			c-0.285-0.387-0.685-0.582-1.199-0.582c-0.512,0-0.914,0.195-1.197,0.582c-0.219,0.288-0.322,0.73-0.322,1.338v1.986
			c0,0.604,0.104,1.051,0.322,1.336c0.283,0.387,0.686,0.58,1.197,0.58c0.515,0,0.914-0.193,1.199-0.58
			C134.239,472.961,134.345,472.514,134.345,471.91z M133.315,472.104c0,0.525-0.159,0.787-0.49,0.787
			c-0.332,0-0.49-0.262-0.49-0.787v-2.387c0-0.524,0.158-0.785,0.49-0.785c0.331,0,0.49,0.261,0.49,0.785V472.104z M138.146,473.748
			v-5.674h-1.027v4.336c-0.229,0.322-0.445,0.48-0.65,0.48c-0.139,0-0.219-0.081-0.24-0.24c-0.014-0.033-0.014-0.158-0.014-0.399
			v-4.177h-1.023v4.486c0,0.4,0.033,0.672,0.091,0.844c0.102,0.287,0.331,0.422,0.662,0.422c0.374,0,0.765-0.229,1.175-0.698v0.62
			H138.146z"/>
		<g>
			<path fill="#FFFFFF" d="M138.698,479.508c-0.341,0-0.511,0.261-0.511,0.779v0.52h1.017v-0.52
				C139.204,479.769,139.034,479.508,138.698,479.508z"/>
			<path fill="#FFFFFF" d="M134.923,479.508c-0.168,0-0.338,0.08-0.508,0.247v3.423c0.17,0.17,0.34,0.25,0.508,0.25
				c0.293,0,0.441-0.25,0.441-0.757v-2.396C135.364,479.769,135.216,479.508,134.923,479.508z"/>
			<path fill="#FFFFFF" d="M141.185,476.654c-0.205-0.895-0.938-1.555-1.819-1.654c-2.089-0.234-4.2-0.234-6.304-0.234
				s-4.216,0-6.304,0.234c-0.882,0.1-1.614,0.76-1.819,1.654c-0.293,1.275-0.296,2.665-0.296,3.979c0,1.313,0,2.705,0.293,3.98
				c0.205,0.895,0.938,1.555,1.819,1.652c2.087,0.234,4.2,0.234,6.303,0.234c2.104,0,4.217,0,6.303-0.234
				c0.883-0.098,1.615-0.758,1.82-1.652c0.294-1.275,0.295-2.668,0.295-3.98C141.476,479.319,141.478,477.93,141.185,476.654z
				 M129.444,477.801h-1.219v6.474h-1.133v-6.474h-1.196v-1.061h3.548V477.801z M132.519,484.274h-1.02v-0.612
				c-0.404,0.465-0.787,0.69-1.162,0.69c-0.328,0-0.555-0.133-0.655-0.418c-0.056-0.171-0.091-0.438-0.091-0.834v-4.44h1.018v4.134
				c0,0.238,0,0.363,0.01,0.396c0.024,0.158,0.102,0.238,0.237,0.238c0.204,0,0.419-0.157,0.644-0.477v-4.291h1.02V484.274z
				 M136.382,482.592c0,0.518-0.035,0.893-0.103,1.131c-0.136,0.417-0.408,0.63-0.813,0.63c-0.361,0-0.711-0.201-1.051-0.622v0.544
				h-1.017v-7.534h1.017v2.46c0.329-0.403,0.678-0.608,1.051-0.608c0.405,0,0.678,0.213,0.813,0.635
				c0.067,0.225,0.103,0.598,0.103,1.128V482.592z M140.222,481.653h-2.034v0.995c0,0.52,0.17,0.779,0.52,0.779
				c0.249,0,0.396-0.137,0.455-0.408c0.009-0.056,0.021-0.279,0.021-0.689h1.039v0.148c0,0.327-0.013,0.554-0.021,0.656
				c-0.035,0.224-0.114,0.43-0.238,0.609c-0.281,0.407-0.698,0.608-1.23,0.608c-0.533,0-0.938-0.192-1.23-0.575
				c-0.217-0.281-0.326-0.725-0.326-1.32v-1.966c0-0.601,0.098-1.04,0.313-1.323c0.293-0.385,0.699-0.576,1.219-0.576
				c0.51,0,0.915,0.191,1.199,0.576c0.213,0.283,0.315,0.723,0.315,1.323V481.653z"/>
		</g>
	</g>
	<g>
		<path fill="#FFFFFF" d="M106.413,467.628c0.159,0.099,0.336,0.241,0.534,0.431c0.189,0.196,0.376,0.439,0.558,0.725
			c0.174,0.271,0.328,0.59,0.465,0.959c0.109,0.369,0.164,0.8,0.164,1.292c-0.014,0.901-0.213,1.623-0.597,2.165
			c-0.187,0.262-0.386,0.504-0.597,0.726c-0.233,0.22-0.48,0.447-0.742,0.676c-0.151,0.155-0.291,0.331-0.417,0.529
			c-0.15,0.205-0.225,0.441-0.225,0.712c0,0.265,0.077,0.481,0.231,0.652c0.131,0.164,0.258,0.309,0.381,0.432l0.856,0.7
			c0.532,0.437,0.997,0.913,1.397,1.439c0.377,0.533,0.574,1.229,0.591,2.089c0,1.223-0.54,2.304-1.619,3.248
			c-1.117,0.977-2.732,1.48-4.842,1.513c-1.766-0.017-3.084-0.394-3.955-1.128c-0.878-0.688-1.318-1.512-1.318-2.469
			c0-0.466,0.142-0.986,0.429-1.56c0.276-0.571,0.779-1.075,1.506-1.509c0.816-0.466,1.674-0.777,2.573-0.932
			c0.89-0.132,1.629-0.206,2.217-0.222c-0.182-0.239-0.344-0.494-0.486-0.767c-0.166-0.264-0.248-0.582-0.248-0.953
			c0-0.222,0.032-0.408,0.094-0.556c0.056-0.157,0.107-0.3,0.154-0.433c-0.286,0.032-0.557,0.049-0.81,0.049
			c-1.343-0.017-2.365-0.439-3.069-1.266c-0.737-0.773-1.106-1.67-1.106-2.694c0-1.239,0.521-2.361,1.567-3.37
			c0.716-0.59,1.461-0.973,2.232-1.155c0.766-0.155,1.482-0.234,2.15-0.234h5.042l-1.557,0.91H106.413z M107.386,482.141
			c0-0.641-0.208-1.197-0.625-1.672c-0.442-0.451-1.132-1.006-2.072-1.662c-0.161-0.017-0.35-0.025-0.566-0.025
			c-0.128-0.014-0.458,0-0.987,0.05c-0.522,0.074-1.056,0.192-1.603,0.358c-0.128,0.048-0.308,0.122-0.541,0.221
			c-0.232,0.107-0.469,0.258-0.71,0.455c-0.233,0.205-0.43,0.459-0.589,0.763c-0.186,0.319-0.277,0.706-0.277,1.156
			c0,0.886,0.4,1.616,1.203,2.19c0.763,0.572,1.806,0.867,3.131,0.885c1.188-0.018,2.095-0.279,2.72-0.788
			C107.081,483.571,107.386,482.928,107.386,482.141z M103.872,474.75c0.664-0.023,1.217-0.264,1.659-0.716
			c0.214-0.32,0.351-0.648,0.412-0.985c0.036-0.336,0.055-0.62,0.055-0.851c0-0.993-0.254-1.997-0.763-3.006
			c-0.238-0.485-0.552-0.88-0.941-1.183c-0.398-0.287-0.855-0.439-1.371-0.456c-0.684,0.017-1.251,0.292-1.704,0.825
			c-0.382,0.559-0.565,1.184-0.547,1.874c0,0.911,0.266,1.859,0.799,2.847c0.259,0.459,0.592,0.85,1.001,1.17
			C102.88,474.59,103.346,474.75,103.872,474.75z"/>
		<polygon fill="#FFFFFF" points="116.354,469.473 113.71,469.473 113.71,466.826 112.428,466.826 112.428,469.473 109.782,469.473 
			109.782,470.754 112.428,470.754 112.428,473.398 113.71,473.398 113.71,470.754 116.354,470.754 		"/>
	</g>
	<path fill="#FFFFFF" d="M159.924,467.805v4.18h3.922v2.595h-3.922v4.241c0,0.958,0.051,1.572,0.152,1.846
		c0.102,0.27,0.289,0.488,0.566,0.65c0.365,0.221,0.783,0.331,1.254,0.331c0.838,0,1.67-0.274,2.498-0.817v2.607
		c-0.707,0.333-1.348,0.566-1.92,0.701c-0.572,0.133-1.191,0.199-1.857,0.199c-0.754,0-1.422-0.094-2.002-0.285
		c-0.582-0.191-1.078-0.463-1.488-0.816s-0.693-0.729-0.854-1.128c-0.156-0.397-0.236-0.974-0.236-1.729v-5.8h-1.828v-2.34
		c0.65-0.21,1.207-0.514,1.668-0.905c0.465-0.395,0.836-0.867,1.115-1.422c0.281-0.552,0.475-1.254,0.58-2.107H159.924z"/>
	<path fill="#FFFFFF" d="M185.545,467.161c-5.055,0-9.154,4.099-9.154,9.155c0,3.748,2.254,6.969,5.48,8.386
		c-0.025-0.641-0.005-1.409,0.158-2.103c0.176-0.744,1.178-4.989,1.178-4.989s-0.292-0.585-0.292-1.448
		c0-1.355,0.788-2.369,1.767-2.369c0.832,0,1.234,0.625,1.234,1.374c0,0.837-0.534,2.089-0.809,3.248
		c-0.229,0.971,0.487,1.763,1.443,1.763c1.735,0,2.904-2.227,2.904-4.867c0-2.006-1.352-3.508-3.81-3.508
		c-2.776,0-4.507,2.072-4.507,4.385c0,0.797,0.236,1.359,0.604,1.795c0.17,0.201,0.193,0.281,0.131,0.511
		c-0.043,0.169-0.145,0.573-0.186,0.733c-0.061,0.233-0.249,0.316-0.458,0.23c-1.28-0.521-1.874-1.922-1.874-3.498
		c0-2.6,2.191-5.719,6.542-5.719c3.495,0,5.796,2.529,5.796,5.246c0,3.59-1.998,6.273-4.939,6.273c-0.99,0-1.919-0.535-2.236-1.141
		c0,0-0.533,2.107-0.645,2.516c-0.195,0.705-0.574,1.412-0.922,1.961c0.822,0.242,1.693,0.376,2.594,0.376
		c5.057,0,9.154-4.099,9.154-9.155S190.602,467.161,185.545,467.161z"/>
	<path fill="#FFFFFF" d="M33.088,478.801l0.498-3.855h-3.819v-2.462c0-1.116,0.312-1.877,1.912-1.877l2.041-0.001v-3.449
		c-0.353-0.046-1.563-0.15-2.975-0.15c-2.944,0-4.958,1.797-4.958,5.097v2.843h-3.33v3.855h3.33v9.893h3.98v-9.893H33.088z"/>
	<g>
		<path fill="#FFFFFF" d="M72.249,473.432h3.571v11.473h-3.571V473.432z M74.036,467.729c1.141,0,2.067,0.928,2.067,2.068
			s-0.926,2.067-2.067,2.067c-1.146,0-2.07-0.927-2.07-2.067S72.89,467.729,74.036,467.729"/>
		<path fill="#FFFFFF" d="M78.059,473.432h3.421V475h0.048c0.476-0.902,1.64-1.853,3.376-1.853c3.61,0,4.278,2.376,4.278,5.464
			v6.293h-3.564v-5.577c0-1.331-0.027-3.043-1.855-3.043c-1.856,0-2.14,1.449-2.14,2.944v5.676h-3.563V473.432z"/>
	</g>
	<path fill="#FFFFFF" d="M62.768,471.084c-0.622,0.275-1.289,0.461-1.988,0.545c0.714-0.429,1.263-1.106,1.521-1.916
		c-0.667,0.397-1.408,0.686-2.197,0.841c-0.631-0.673-1.532-1.094-2.527-1.094c-1.912,0-3.462,1.552-3.462,3.462
		c0,0.272,0.03,0.535,0.089,0.789c-2.877-0.145-5.428-1.521-7.136-3.617c-0.297,0.512-0.468,1.106-0.468,1.74
		c0,1.201,0.611,2.262,1.539,2.882c-0.567-0.019-1.101-0.174-1.567-0.434v0.044c0,1.678,1.193,3.076,2.776,3.395
		c-0.29,0.078-0.596,0.122-0.912,0.122c-0.222,0-0.44-0.022-0.651-0.063c0.44,1.376,1.718,2.376,3.233,2.404
		c-1.184,0.929-2.676,1.481-4.299,1.481c-0.279,0-0.554-0.016-0.826-0.049c1.532,0.982,3.352,1.555,5.308,1.555
		c6.367,0,9.849-5.273,9.849-9.848c0-0.15-0.004-0.301-0.009-0.449C61.716,472.388,62.303,471.777,62.768,471.084z"/>
</g>
</svg>
