<?xml version="1.0" encoding="utf-8"?>
<!-- Generator: Adobe Illustrator 16.0.0, SVG Export Plug-In . SVG Version: 6.00 Build 0)  -->
<!DOCTYPE svg PUBLIC "-//W3C//DTD SVG 1.1//EN" "http://www.w3.org/Graphics/SVG/1.1/DTD/svg11.dtd">
<svg version="1.1" id="Layer_1" xmlns="http://www.w3.org/2000/svg" xmlns:xlink="http://www.w3.org/1999/xlink" x="0px" y="0px"
	 width="72px" height="72px" viewBox="0 0 72 72" enable-background="new 0 0 72 72" xml:space="preserve">
<path fill="#FFFFFF" d="M47,20.328C47,19.042,45.957,18,44.67,18H27.33C26.043,18,25,19.042,25,20.328v31.344
	C25,52.957,26.043,54,27.33,54h17.34c1.287,0,2.33-1.043,2.33-2.328V20.328z M32.115,20h7.811c0.482,0,0.875,0.517,0.875,1
	s-0.393,1-0.875,1h-7.811c-0.482,0-0.874-0.518-0.874-1S31.632,20,32.115,20z M36.021,52.355c-1.138,0-2.06-0.923-2.06-2.06
	c0-1.138,0.922-2.059,2.06-2.059c1.137,0,2.059,0.921,2.059,2.059C38.08,51.433,37.158,52.355,36.021,52.355z M45,47H27V24h18V47z"
	/>
</svg>
